%TF.GenerationSoftware,KiCad,Pcbnew,9.0.4*%
%TF.CreationDate,2025-10-24T17:45:02+05:30*%
%TF.ProjectId,waterlevel project1,77617465-726c-4657-9665-6c2070726f6a,rev?*%
%TF.SameCoordinates,Original*%
%TF.FileFunction,Paste,Top*%
%TF.FilePolarity,Positive*%
%FSLAX46Y46*%
G04 Gerber Fmt 4.6, Leading zero omitted, Abs format (unit mm)*
G04 Created by KiCad (PCBNEW 9.0.4) date 2025-10-24 17:45:02*
%MOMM*%
%LPD*%
G01*
G04 APERTURE LIST*
G04 Aperture macros list*
%AMRoundRect*
0 Rectangle with rounded corners*
0 $1 Rounding radius*
0 $2 $3 $4 $5 $6 $7 $8 $9 X,Y pos of 4 corners*
0 Add a 4 corners polygon primitive as box body*
4,1,4,$2,$3,$4,$5,$6,$7,$8,$9,$2,$3,0*
0 Add four circle primitives for the rounded corners*
1,1,$1+$1,$2,$3*
1,1,$1+$1,$4,$5*
1,1,$1+$1,$6,$7*
1,1,$1+$1,$8,$9*
0 Add four rect primitives between the rounded corners*
20,1,$1+$1,$2,$3,$4,$5,0*
20,1,$1+$1,$4,$5,$6,$7,0*
20,1,$1+$1,$6,$7,$8,$9,0*
20,1,$1+$1,$8,$9,$2,$3,0*%
G04 Aperture macros list end*
%ADD10RoundRect,0.250000X-0.250000X-0.475000X0.250000X-0.475000X0.250000X0.475000X-0.250000X0.475000X0*%
%ADD11RoundRect,0.250000X-0.262500X-0.450000X0.262500X-0.450000X0.262500X0.450000X-0.262500X0.450000X0*%
%ADD12RoundRect,0.243750X-0.243750X-0.456250X0.243750X-0.456250X0.243750X0.456250X-0.243750X0.456250X0*%
%ADD13RoundRect,0.150000X-0.587500X-0.150000X0.587500X-0.150000X0.587500X0.150000X-0.587500X0.150000X0*%
%ADD14RoundRect,0.250000X0.475000X-0.250000X0.475000X0.250000X-0.475000X0.250000X-0.475000X-0.250000X0*%
%ADD15RoundRect,0.250000X0.250000X0.475000X-0.250000X0.475000X-0.250000X-0.475000X0.250000X-0.475000X0*%
%ADD16R,0.700000X1.600000*%
%ADD17R,1.200000X1.800000*%
%ADD18R,1.600000X1.500000*%
%ADD19R,1.200000X2.200000*%
%ADD20RoundRect,0.147500X0.537500X0.147500X-0.537500X0.147500X-0.537500X-0.147500X0.537500X-0.147500X0*%
%ADD21RoundRect,0.243750X0.243750X0.456250X-0.243750X0.456250X-0.243750X-0.456250X0.243750X-0.456250X0*%
%ADD22RoundRect,0.375000X-0.625000X-0.375000X0.625000X-0.375000X0.625000X0.375000X-0.625000X0.375000X0*%
%ADD23RoundRect,0.500000X-0.500000X-1.400000X0.500000X-1.400000X0.500000X1.400000X-0.500000X1.400000X0*%
%ADD24RoundRect,0.250000X-0.475000X0.250000X-0.475000X-0.250000X0.475000X-0.250000X0.475000X0.250000X0*%
%ADD25R,2.000000X2.000000*%
%ADD26RoundRect,0.250000X-0.255000X-0.440000X0.255000X-0.440000X0.255000X0.440000X-0.255000X0.440000X0*%
%ADD27RoundRect,0.150000X-0.825000X-0.150000X0.825000X-0.150000X0.825000X0.150000X-0.825000X0.150000X0*%
%ADD28RoundRect,0.250000X-0.450000X0.262500X-0.450000X-0.262500X0.450000X-0.262500X0.450000X0.262500X0*%
%ADD29R,0.590000X1.150000*%
%ADD30R,0.298000X1.150000*%
%ADD31RoundRect,0.250000X0.450000X-0.262500X0.450000X0.262500X-0.450000X0.262500X-0.450000X-0.262500X0*%
%ADD32RoundRect,0.250000X-0.650000X1.000000X-0.650000X-1.000000X0.650000X-1.000000X0.650000X1.000000X0*%
%ADD33R,1.500000X0.900000*%
%ADD34R,0.900000X1.500000*%
%ADD35R,1.050000X1.050000*%
%ADD36RoundRect,0.218750X-0.218750X-0.381250X0.218750X-0.381250X0.218750X0.381250X-0.218750X0.381250X0*%
%ADD37RoundRect,0.250000X0.262500X0.450000X-0.262500X0.450000X-0.262500X-0.450000X0.262500X-0.450000X0*%
%ADD38RoundRect,0.250000X0.275000X-0.275000X0.275000X0.275000X-0.275000X0.275000X-0.275000X-0.275000X0*%
%ADD39RoundRect,0.062500X0.062500X-0.350000X0.062500X0.350000X-0.062500X0.350000X-0.062500X-0.350000X0*%
%ADD40RoundRect,0.062500X0.350000X-0.062500X0.350000X0.062500X-0.350000X0.062500X-0.350000X-0.062500X0*%
G04 APERTURE END LIST*
D10*
%TO.C,C1*%
X85982800Y-121208800D03*
X87882800Y-121208800D03*
%TD*%
D11*
%TO.C,R18*%
X107061000Y-94792800D03*
X108886000Y-94792800D03*
%TD*%
D12*
%TO.C,D2*%
X91386400Y-116242600D03*
X93261400Y-116242600D03*
%TD*%
%TO.C,D1*%
X91386400Y-112242600D03*
X93261400Y-112242600D03*
%TD*%
D13*
%TO.C,Q3*%
X67848000Y-105806200D03*
X67848000Y-107706200D03*
X69723000Y-106756200D03*
%TD*%
D11*
%TO.C,R8*%
X111215100Y-112868200D03*
X113040100Y-112868200D03*
%TD*%
D14*
%TO.C,C10*%
X73050400Y-99283600D03*
X73050400Y-97383600D03*
%TD*%
%TO.C,C9*%
X68376800Y-99359800D03*
X68376800Y-97459800D03*
%TD*%
D11*
%TO.C,R7*%
X100863400Y-126212600D03*
X102688400Y-126212600D03*
%TD*%
%TO.C,R11*%
X88188800Y-89453800D03*
X90013800Y-89453800D03*
%TD*%
D14*
%TO.C,C12_BYP1*%
X44000000Y-84400000D03*
X44000000Y-82500000D03*
%TD*%
D11*
%TO.C,R2*%
X85932000Y-116255800D03*
X87757000Y-116255800D03*
%TD*%
%TO.C,R12*%
X82274400Y-100025200D03*
X84099400Y-100025200D03*
%TD*%
D15*
%TO.C,C8_BYP1*%
X80716200Y-84328000D03*
X78816200Y-84328000D03*
%TD*%
%TO.C,C2*%
X93286400Y-121242600D03*
X91386400Y-121242600D03*
%TD*%
D11*
%TO.C,R17*%
X42051200Y-125104400D03*
X43876200Y-125104400D03*
%TD*%
D16*
%TO.C,J3*%
X56301200Y-116354400D03*
X55201200Y-116354400D03*
X54101200Y-116354400D03*
X53001200Y-116354400D03*
X51901200Y-116354400D03*
X50801200Y-116354400D03*
X49701200Y-116354400D03*
X48601200Y-116354400D03*
X47501200Y-116354400D03*
D17*
X46301200Y-117654400D03*
D18*
X60901200Y-117404400D03*
D19*
X46301200Y-126954400D03*
X61801200Y-126954400D03*
%TD*%
D14*
%TO.C,C6*%
X102226200Y-107519800D03*
X102226200Y-105619800D03*
%TD*%
D10*
%TO.C,C4*%
X98276200Y-91069800D03*
X100176200Y-91069800D03*
%TD*%
D20*
%TO.C,U3*%
X97336000Y-128773000D03*
X97336000Y-127823000D03*
X97336000Y-126873000D03*
X94996000Y-126873000D03*
X94996000Y-127823000D03*
X94996000Y-128773000D03*
%TD*%
D10*
%TO.C,C11*%
X42101200Y-129104400D03*
X44001200Y-129104400D03*
%TD*%
D11*
%TO.C,R9*%
X80564300Y-123816200D03*
X82389300Y-123816200D03*
%TD*%
D21*
%TO.C,D7*%
X113990600Y-87122000D03*
X112115600Y-87122000D03*
%TD*%
D22*
%TO.C,U1*%
X86386400Y-103242600D03*
X86386400Y-105542600D03*
D23*
X92686400Y-105542600D03*
D22*
X86386400Y-107842600D03*
%TD*%
D15*
%TO.C,C7*%
X95756900Y-96753800D03*
X93856900Y-96753800D03*
%TD*%
D24*
%TO.C,C5*%
X88798400Y-126796800D03*
X88798400Y-128696800D03*
%TD*%
D25*
%TO.C,BZ1*%
X106941600Y-99343400D03*
X106941600Y-106343400D03*
X113941600Y-106343400D03*
X113941600Y-99343400D03*
%TD*%
D13*
%TO.C,Q1*%
X90957400Y-92964000D03*
X90957400Y-94864000D03*
X92832400Y-93914000D03*
%TD*%
%TO.C,Q2*%
X85242400Y-92959000D03*
X85242400Y-94859000D03*
X87117400Y-93909000D03*
%TD*%
D21*
%TO.C,D5*%
X113863600Y-94818200D03*
X111988600Y-94818200D03*
%TD*%
D11*
%TO.C,R22*%
X80564300Y-128816200D03*
X82389300Y-128816200D03*
%TD*%
D26*
%TO.C,U2*%
X100376200Y-100444800D03*
X100376200Y-102094800D03*
X101576200Y-100444800D03*
X101576200Y-102094800D03*
D27*
X98501200Y-99364800D03*
X98501200Y-100634800D03*
X98501200Y-101904800D03*
X98501200Y-103174800D03*
X103451200Y-103174800D03*
X103451200Y-101904800D03*
X103451200Y-100634800D03*
X103451200Y-99364800D03*
%TD*%
D28*
%TO.C,R13*%
X73812400Y-89179400D03*
X73812400Y-91004400D03*
%TD*%
D29*
%TO.C,J4*%
X70276800Y-124391200D03*
X71076800Y-124391200D03*
D30*
X72226800Y-124391200D03*
X73226800Y-124391200D03*
X73726800Y-124391200D03*
X74726800Y-124391200D03*
D29*
X76676800Y-124391200D03*
X75876800Y-124391200D03*
D30*
X75226800Y-124391200D03*
X74226800Y-124391200D03*
X72726800Y-124391200D03*
X71726800Y-124391200D03*
%TD*%
D28*
%TO.C,R14*%
X66421000Y-88366600D03*
X66421000Y-90191600D03*
%TD*%
D14*
%TO.C,C3*%
X99226200Y-88019800D03*
X99226200Y-86119800D03*
%TD*%
D11*
%TO.C,R20*%
X107137200Y-87249000D03*
X108962200Y-87249000D03*
%TD*%
D31*
%TO.C,R3*%
X76250800Y-104288600D03*
X76250800Y-102463600D03*
%TD*%
D11*
%TO.C,R19*%
X107010200Y-90957400D03*
X108835200Y-90957400D03*
%TD*%
%TO.C,R21*%
X57353200Y-105537000D03*
X59178200Y-105537000D03*
%TD*%
D32*
%TO.C,D4*%
X103745600Y-112366800D03*
X103745600Y-116366800D03*
%TD*%
D33*
%TO.C,U4*%
X46250000Y-81865000D03*
X46250000Y-83135000D03*
X46250000Y-84405000D03*
X46250000Y-85675000D03*
X46250000Y-86945000D03*
X46250000Y-88215000D03*
X46250000Y-89485000D03*
X46250000Y-90755000D03*
X46250000Y-92025000D03*
X46250000Y-93295000D03*
X46250000Y-94565000D03*
X46250000Y-95835000D03*
X46250000Y-97105000D03*
X46250000Y-98375000D03*
D34*
X49290000Y-99625000D03*
X50560000Y-99625000D03*
X51830000Y-99625000D03*
X53100000Y-99625000D03*
X54370000Y-99625000D03*
X55640000Y-99625000D03*
X56910000Y-99625000D03*
X58180000Y-99625000D03*
X59450000Y-99625000D03*
X60720000Y-99625000D03*
D33*
X63750000Y-98375000D03*
X63750000Y-97105000D03*
X63750000Y-95835000D03*
X63750000Y-94565000D03*
X63750000Y-93295000D03*
X63750000Y-92025000D03*
X63750000Y-90755000D03*
X63750000Y-89485000D03*
X63750000Y-88215000D03*
X63750000Y-86945000D03*
X63750000Y-85675000D03*
X63750000Y-84405000D03*
X63750000Y-83135000D03*
X63750000Y-81865000D03*
D35*
X52795000Y-87680000D03*
X52795000Y-89205000D03*
X52795000Y-90730000D03*
X54320000Y-87680000D03*
X54320000Y-89205000D03*
X54320000Y-90730000D03*
X55845000Y-87680000D03*
X55845000Y-89205000D03*
X55845000Y-90730000D03*
%TD*%
D11*
%TO.C,R16*%
X42138700Y-121104400D03*
X43963700Y-121104400D03*
%TD*%
D21*
%TO.C,D6*%
X113889000Y-90779600D03*
X112014000Y-90779600D03*
%TD*%
D36*
%TO.C,L1*%
X96748600Y-119126000D03*
X98873600Y-119126000D03*
%TD*%
D11*
%TO.C,R4*%
X98276200Y-95069800D03*
X100101200Y-95069800D03*
%TD*%
D37*
%TO.C,R1*%
X87731600Y-112217200D03*
X85906600Y-112217200D03*
%TD*%
D38*
%TO.C,U6*%
X79614000Y-89905600D03*
X80914000Y-89905600D03*
X79614000Y-88605600D03*
X80914000Y-88605600D03*
D39*
X79014000Y-91193100D03*
X79514000Y-91193100D03*
X80014000Y-91193100D03*
X80514000Y-91193100D03*
X81014000Y-91193100D03*
X81514000Y-91193100D03*
D40*
X82201500Y-90505600D03*
X82201500Y-90005600D03*
X82201500Y-89505600D03*
X82201500Y-89005600D03*
X82201500Y-88505600D03*
X82201500Y-88005600D03*
D39*
X81514000Y-87318100D03*
X81014000Y-87318100D03*
X80514000Y-87318100D03*
X80014000Y-87318100D03*
X79514000Y-87318100D03*
X79014000Y-87318100D03*
D40*
X78326500Y-88005600D03*
X78326500Y-88505600D03*
X78326500Y-89005600D03*
X78326500Y-89505600D03*
X78326500Y-90005600D03*
X78326500Y-90505600D03*
%TD*%
D11*
%TO.C,R15*%
X42051200Y-117104400D03*
X43876200Y-117104400D03*
%TD*%
M02*
