%TF.GenerationSoftware,KiCad,Pcbnew,9.0.4*%
%TF.CreationDate,2025-10-24T17:45:02+05:30*%
%TF.ProjectId,waterlevel project1,77617465-726c-4657-9665-6c2070726f6a,rev?*%
%TF.SameCoordinates,Original*%
%TF.FileFunction,Soldermask,Top*%
%TF.FilePolarity,Negative*%
%FSLAX46Y46*%
G04 Gerber Fmt 4.6, Leading zero omitted, Abs format (unit mm)*
G04 Created by KiCad (PCBNEW 9.0.4) date 2025-10-24 17:45:02*
%MOMM*%
%LPD*%
G01*
G04 APERTURE LIST*
G04 Aperture macros list*
%AMRoundRect*
0 Rectangle with rounded corners*
0 $1 Rounding radius*
0 $2 $3 $4 $5 $6 $7 $8 $9 X,Y pos of 4 corners*
0 Add a 4 corners polygon primitive as box body*
4,1,4,$2,$3,$4,$5,$6,$7,$8,$9,$2,$3,0*
0 Add four circle primitives for the rounded corners*
1,1,$1+$1,$2,$3*
1,1,$1+$1,$4,$5*
1,1,$1+$1,$6,$7*
1,1,$1+$1,$8,$9*
0 Add four rect primitives between the rounded corners*
20,1,$1+$1,$2,$3,$4,$5,0*
20,1,$1+$1,$4,$5,$6,$7,0*
20,1,$1+$1,$6,$7,$8,$9,0*
20,1,$1+$1,$8,$9,$2,$3,0*%
G04 Aperture macros list end*
%ADD10C,0.010000*%
%ADD11RoundRect,0.250000X-0.250000X-0.475000X0.250000X-0.475000X0.250000X0.475000X-0.250000X0.475000X0*%
%ADD12R,1.700000X1.700000*%
%ADD13C,1.700000*%
%ADD14RoundRect,0.250000X-0.262500X-0.450000X0.262500X-0.450000X0.262500X0.450000X-0.262500X0.450000X0*%
%ADD15RoundRect,0.243750X-0.243750X-0.456250X0.243750X-0.456250X0.243750X0.456250X-0.243750X0.456250X0*%
%ADD16RoundRect,0.150000X-0.587500X-0.150000X0.587500X-0.150000X0.587500X0.150000X-0.587500X0.150000X0*%
%ADD17RoundRect,0.250000X0.475000X-0.250000X0.475000X0.250000X-0.475000X0.250000X-0.475000X-0.250000X0*%
%ADD18RoundRect,0.250000X0.250000X0.475000X-0.250000X0.475000X-0.250000X-0.475000X0.250000X-0.475000X0*%
%ADD19C,1.000000*%
%ADD20RoundRect,0.102000X-0.350000X-0.800000X0.350000X-0.800000X0.350000X0.800000X-0.350000X0.800000X0*%
%ADD21RoundRect,0.102000X-0.600000X-0.900000X0.600000X-0.900000X0.600000X0.900000X-0.600000X0.900000X0*%
%ADD22RoundRect,0.102000X-0.800000X-0.750000X0.800000X-0.750000X0.800000X0.750000X-0.800000X0.750000X0*%
%ADD23RoundRect,0.102000X-0.600000X-1.100000X0.600000X-1.100000X0.600000X1.100000X-0.600000X1.100000X0*%
%ADD24RoundRect,0.198500X0.588500X0.198500X-0.588500X0.198500X-0.588500X-0.198500X0.588500X-0.198500X0*%
%ADD25RoundRect,0.243750X0.243750X0.456250X-0.243750X0.456250X-0.243750X-0.456250X0.243750X-0.456250X0*%
%ADD26RoundRect,0.375000X-0.625000X-0.375000X0.625000X-0.375000X0.625000X0.375000X-0.625000X0.375000X0*%
%ADD27RoundRect,0.500000X-0.500000X-1.400000X0.500000X-1.400000X0.500000X1.400000X-0.500000X1.400000X0*%
%ADD28RoundRect,0.102000X0.654000X0.654000X-0.654000X0.654000X-0.654000X-0.654000X0.654000X-0.654000X0*%
%ADD29C,1.512000*%
%ADD30C,3.200000*%
%ADD31RoundRect,0.250000X-0.475000X0.250000X-0.475000X-0.250000X0.475000X-0.250000X0.475000X0.250000X0*%
%ADD32R,2.000000X2.000000*%
%ADD33RoundRect,0.150000X-0.825000X-0.150000X0.825000X-0.150000X0.825000X0.150000X-0.825000X0.150000X0*%
%ADD34R,2.410000X3.300000*%
%ADD35RoundRect,0.250000X-0.450000X0.262500X-0.450000X-0.262500X0.450000X-0.262500X0.450000X0.262500X0*%
%ADD36O,1.152400X2.352400*%
%ADD37O,1.152400X1.952400*%
%ADD38RoundRect,0.250000X0.450000X-0.262500X0.450000X0.262500X-0.450000X0.262500X-0.450000X-0.262500X0*%
%ADD39RoundRect,0.250000X-0.650000X1.000000X-0.650000X-1.000000X0.650000X-1.000000X0.650000X1.000000X0*%
%ADD40R,1.500000X0.900000*%
%ADD41R,0.900000X1.500000*%
%ADD42C,0.600000*%
%ADD43R,4.200000X4.200000*%
%ADD44C,3.800000*%
%ADD45RoundRect,0.218750X-0.218750X-0.381250X0.218750X-0.381250X0.218750X0.381250X-0.218750X0.381250X0*%
%ADD46RoundRect,0.250000X0.262500X0.450000X-0.262500X0.450000X-0.262500X-0.450000X0.262500X-0.450000X0*%
%ADD47RoundRect,0.062500X0.062500X-0.350000X0.062500X0.350000X-0.062500X0.350000X-0.062500X-0.350000X0*%
%ADD48RoundRect,0.062500X0.350000X-0.062500X0.350000X0.062500X-0.350000X0.062500X-0.350000X-0.062500X0*%
%ADD49R,2.600000X2.600000*%
G04 APERTURE END LIST*
D10*
%TO.C,J4*%
X70635300Y-125029700D02*
X69918300Y-125029700D01*
X69918300Y-123752700D01*
X70635300Y-123752700D01*
X70635300Y-125029700D01*
G36*
X70635300Y-125029700D02*
G01*
X69918300Y-125029700D01*
X69918300Y-123752700D01*
X70635300Y-123752700D01*
X70635300Y-125029700D01*
G37*
X71435300Y-125029700D02*
X70718300Y-125029700D01*
X70718300Y-123752700D01*
X71435300Y-123752700D01*
X71435300Y-125029700D01*
G36*
X71435300Y-125029700D02*
G01*
X70718300Y-125029700D01*
X70718300Y-123752700D01*
X71435300Y-123752700D01*
X71435300Y-125029700D01*
G37*
X71939300Y-125029700D02*
X71514300Y-125029700D01*
X71514300Y-123752700D01*
X71939300Y-123752700D01*
X71939300Y-125029700D01*
G36*
X71939300Y-125029700D02*
G01*
X71514300Y-125029700D01*
X71514300Y-123752700D01*
X71939300Y-123752700D01*
X71939300Y-125029700D01*
G37*
X72439300Y-125029700D02*
X72014300Y-125029700D01*
X72014300Y-123752700D01*
X72439300Y-123752700D01*
X72439300Y-125029700D01*
G36*
X72439300Y-125029700D02*
G01*
X72014300Y-125029700D01*
X72014300Y-123752700D01*
X72439300Y-123752700D01*
X72439300Y-125029700D01*
G37*
X72939300Y-125029700D02*
X72514300Y-125029700D01*
X72514300Y-123752700D01*
X72939300Y-123752700D01*
X72939300Y-125029700D01*
G36*
X72939300Y-125029700D02*
G01*
X72514300Y-125029700D01*
X72514300Y-123752700D01*
X72939300Y-123752700D01*
X72939300Y-125029700D01*
G37*
X73439300Y-125029700D02*
X73014300Y-125029700D01*
X73014300Y-123752700D01*
X73439300Y-123752700D01*
X73439300Y-125029700D01*
G36*
X73439300Y-125029700D02*
G01*
X73014300Y-125029700D01*
X73014300Y-123752700D01*
X73439300Y-123752700D01*
X73439300Y-125029700D01*
G37*
X73939300Y-125029700D02*
X73514300Y-125029700D01*
X73514300Y-123752700D01*
X73939300Y-123752700D01*
X73939300Y-125029700D01*
G36*
X73939300Y-125029700D02*
G01*
X73514300Y-125029700D01*
X73514300Y-123752700D01*
X73939300Y-123752700D01*
X73939300Y-125029700D01*
G37*
X74439300Y-125029700D02*
X74014300Y-125029700D01*
X74014300Y-123752700D01*
X74439300Y-123752700D01*
X74439300Y-125029700D01*
G36*
X74439300Y-125029700D02*
G01*
X74014300Y-125029700D01*
X74014300Y-123752700D01*
X74439300Y-123752700D01*
X74439300Y-125029700D01*
G37*
X74939300Y-125029700D02*
X74514300Y-125029700D01*
X74514300Y-123752700D01*
X74939300Y-123752700D01*
X74939300Y-125029700D01*
G36*
X74939300Y-125029700D02*
G01*
X74514300Y-125029700D01*
X74514300Y-123752700D01*
X74939300Y-123752700D01*
X74939300Y-125029700D01*
G37*
X75439300Y-125029700D02*
X75014300Y-125029700D01*
X75014300Y-123752700D01*
X75439300Y-123752700D01*
X75439300Y-125029700D01*
G36*
X75439300Y-125029700D02*
G01*
X75014300Y-125029700D01*
X75014300Y-123752700D01*
X75439300Y-123752700D01*
X75439300Y-125029700D01*
G37*
X76235300Y-125029700D02*
X75518300Y-125029700D01*
X75518300Y-123752700D01*
X76235300Y-123752700D01*
X76235300Y-125029700D01*
G36*
X76235300Y-125029700D02*
G01*
X75518300Y-125029700D01*
X75518300Y-123752700D01*
X76235300Y-123752700D01*
X76235300Y-125029700D01*
G37*
X77035300Y-125029700D02*
X76318300Y-125029700D01*
X76318300Y-123752700D01*
X77035300Y-123752700D01*
X77035300Y-125029700D01*
G36*
X77035300Y-125029700D02*
G01*
X76318300Y-125029700D01*
X76318300Y-123752700D01*
X77035300Y-123752700D01*
X77035300Y-125029700D01*
G37*
%TD*%
D11*
%TO.C,C1*%
X85982800Y-121208800D03*
X87882800Y-121208800D03*
%TD*%
D12*
%TO.C,J5*%
X37500000Y-84960000D03*
D13*
X37500000Y-87500000D03*
X37500000Y-90040000D03*
X37500000Y-92580000D03*
X37500000Y-95120000D03*
X37500000Y-97660000D03*
%TD*%
D14*
%TO.C,R18*%
X107061000Y-94792800D03*
X108886000Y-94792800D03*
%TD*%
D15*
%TO.C,D2*%
X91386400Y-116242600D03*
X93261400Y-116242600D03*
%TD*%
%TO.C,D1*%
X91386400Y-112242600D03*
X93261400Y-112242600D03*
%TD*%
D16*
%TO.C,Q3*%
X67848000Y-105806200D03*
X67848000Y-107706200D03*
X69723000Y-106756200D03*
%TD*%
D14*
%TO.C,R8*%
X111215100Y-112868200D03*
X113040100Y-112868200D03*
%TD*%
D17*
%TO.C,C10*%
X73050400Y-99283600D03*
X73050400Y-97383600D03*
%TD*%
%TO.C,C9*%
X68376800Y-99359800D03*
X68376800Y-97459800D03*
%TD*%
D14*
%TO.C,R7*%
X100863400Y-126212600D03*
X102688400Y-126212600D03*
%TD*%
%TO.C,R11*%
X88188800Y-89453800D03*
X90013800Y-89453800D03*
%TD*%
D17*
%TO.C,C12_BYP1*%
X44000000Y-84400000D03*
X44000000Y-82500000D03*
%TD*%
D14*
%TO.C,R2*%
X85932000Y-116255800D03*
X87757000Y-116255800D03*
%TD*%
%TO.C,R12*%
X82274400Y-100025200D03*
X84099400Y-100025200D03*
%TD*%
D18*
%TO.C,C8_BYP1*%
X80716200Y-84328000D03*
X78816200Y-84328000D03*
%TD*%
%TO.C,C2*%
X93286400Y-121242600D03*
X91386400Y-121242600D03*
%TD*%
D12*
%TO.C,J1*%
X37474600Y-125504800D03*
D13*
X37474600Y-122964800D03*
X37474600Y-120424800D03*
X37474600Y-117884800D03*
%TD*%
D14*
%TO.C,R17*%
X42051200Y-125104400D03*
X43876200Y-125104400D03*
%TD*%
D19*
%TO.C,J3*%
X49101200Y-127354400D03*
X57101200Y-127354400D03*
D20*
X56301200Y-116354400D03*
X55201200Y-116354400D03*
X54101200Y-116354400D03*
X53001200Y-116354400D03*
X51901200Y-116354400D03*
X50801200Y-116354400D03*
X49701200Y-116354400D03*
X48601200Y-116354400D03*
X47501200Y-116354400D03*
D21*
X46301200Y-117654400D03*
D22*
X60901200Y-117404400D03*
D23*
X46301200Y-126954400D03*
X61801200Y-126954400D03*
%TD*%
D17*
%TO.C,C6*%
X102226200Y-107519800D03*
X102226200Y-105619800D03*
%TD*%
D11*
%TO.C,C4*%
X98276200Y-91069800D03*
X100176200Y-91069800D03*
%TD*%
D24*
%TO.C,U3*%
X97336000Y-128773000D03*
X97336000Y-127823000D03*
X97336000Y-126873000D03*
X94996000Y-126873000D03*
X94996000Y-127823000D03*
X94996000Y-128773000D03*
%TD*%
D11*
%TO.C,C11*%
X42101200Y-129104400D03*
X44001200Y-129104400D03*
%TD*%
D14*
%TO.C,R9*%
X80564300Y-123816200D03*
X82389300Y-123816200D03*
%TD*%
D25*
%TO.C,D7*%
X113990600Y-87122000D03*
X112115600Y-87122000D03*
%TD*%
D26*
%TO.C,U1*%
X86386400Y-103242600D03*
X86386400Y-105542600D03*
D27*
X92686400Y-105542600D03*
D26*
X86386400Y-107842600D03*
%TD*%
D18*
%TO.C,C7*%
X95756900Y-96753800D03*
X93856900Y-96753800D03*
%TD*%
D28*
%TO.C,J6*%
X108194600Y-128482000D03*
D29*
X110194600Y-128482000D03*
%TD*%
D30*
%TO.C,REF\u002A\u002A*%
X111607600Y-122199400D03*
%TD*%
D31*
%TO.C,C5*%
X88798400Y-126796800D03*
X88798400Y-128696800D03*
%TD*%
D32*
%TO.C,BZ1*%
X106941600Y-99343400D03*
X106941600Y-106343400D03*
X113941600Y-106343400D03*
X113941600Y-99343400D03*
%TD*%
D16*
%TO.C,Q1*%
X90957400Y-92964000D03*
X90957400Y-94864000D03*
X92832400Y-93914000D03*
%TD*%
%TO.C,Q2*%
X85242400Y-92959000D03*
X85242400Y-94859000D03*
X87117400Y-93909000D03*
%TD*%
D30*
%TO.C,REF\u002A\u002A*%
X68275200Y-114427000D03*
%TD*%
D25*
%TO.C,D5*%
X113863600Y-94818200D03*
X111988600Y-94818200D03*
%TD*%
D14*
%TO.C,R22*%
X80564300Y-128816200D03*
X82389300Y-128816200D03*
%TD*%
D33*
%TO.C,U2*%
X98501200Y-99364800D03*
X98501200Y-100634800D03*
X98501200Y-101904800D03*
X98501200Y-103174800D03*
X103451200Y-103174800D03*
X103451200Y-101904800D03*
X103451200Y-100634800D03*
X103451200Y-99364800D03*
D34*
X100976200Y-101269800D03*
%TD*%
D35*
%TO.C,R13*%
X73812400Y-89179400D03*
X73812400Y-91004400D03*
%TD*%
D36*
%TO.C,J4*%
X69156800Y-128966200D03*
X77796800Y-128966200D03*
D37*
X69156800Y-124966200D03*
X77796800Y-124966200D03*
%TD*%
D35*
%TO.C,R14*%
X66421000Y-88366600D03*
X66421000Y-90191600D03*
%TD*%
D17*
%TO.C,C3*%
X99226200Y-88019800D03*
X99226200Y-86119800D03*
%TD*%
D14*
%TO.C,R20*%
X107137200Y-87249000D03*
X108962200Y-87249000D03*
%TD*%
D38*
%TO.C,R3*%
X76250800Y-104288600D03*
X76250800Y-102463600D03*
%TD*%
D14*
%TO.C,R19*%
X107010200Y-90957400D03*
X108835200Y-90957400D03*
%TD*%
%TO.C,R21*%
X57353200Y-105537000D03*
X59178200Y-105537000D03*
%TD*%
D39*
%TO.C,D4*%
X103745600Y-112366800D03*
X103745600Y-116366800D03*
%TD*%
D40*
%TO.C,U4*%
X46250000Y-81865000D03*
X46250000Y-83135000D03*
X46250000Y-84405000D03*
X46250000Y-85675000D03*
X46250000Y-86945000D03*
X46250000Y-88215000D03*
X46250000Y-89485000D03*
X46250000Y-90755000D03*
X46250000Y-92025000D03*
X46250000Y-93295000D03*
X46250000Y-94565000D03*
X46250000Y-95835000D03*
X46250000Y-97105000D03*
X46250000Y-98375000D03*
D41*
X49290000Y-99625000D03*
X50560000Y-99625000D03*
X51830000Y-99625000D03*
X53100000Y-99625000D03*
X54370000Y-99625000D03*
X55640000Y-99625000D03*
X56910000Y-99625000D03*
X58180000Y-99625000D03*
X59450000Y-99625000D03*
X60720000Y-99625000D03*
D40*
X63750000Y-98375000D03*
X63750000Y-97105000D03*
X63750000Y-95835000D03*
X63750000Y-94565000D03*
X63750000Y-93295000D03*
X63750000Y-92025000D03*
X63750000Y-90755000D03*
X63750000Y-89485000D03*
X63750000Y-88215000D03*
X63750000Y-86945000D03*
X63750000Y-85675000D03*
X63750000Y-84405000D03*
X63750000Y-83135000D03*
X63750000Y-81865000D03*
D42*
X52795000Y-88442500D03*
X52795000Y-89967500D03*
X53557500Y-87680000D03*
X53557500Y-89205000D03*
X53557500Y-90730000D03*
X54320000Y-88442500D03*
D43*
X54320000Y-89205000D03*
D42*
X54320000Y-89967500D03*
X55082500Y-87680000D03*
X55082500Y-89205000D03*
X55082500Y-90730000D03*
X55845000Y-88442500D03*
X55845000Y-89967500D03*
%TD*%
D44*
%TO.C,REF\u002A\u002A*%
X37947600Y-108762800D03*
%TD*%
D14*
%TO.C,R16*%
X42138700Y-121104400D03*
X43963700Y-121104400D03*
%TD*%
D25*
%TO.C,D6*%
X113889000Y-90779600D03*
X112014000Y-90779600D03*
%TD*%
D45*
%TO.C,L1*%
X96748600Y-119126000D03*
X98873600Y-119126000D03*
%TD*%
D14*
%TO.C,R4*%
X98276200Y-95069800D03*
X100101200Y-95069800D03*
%TD*%
D46*
%TO.C,R1*%
X87731600Y-112217200D03*
X85906600Y-112217200D03*
%TD*%
D47*
%TO.C,U6*%
X79014000Y-91193100D03*
X79514000Y-91193100D03*
X80014000Y-91193100D03*
X80514000Y-91193100D03*
X81014000Y-91193100D03*
X81514000Y-91193100D03*
D48*
X82201500Y-90505600D03*
X82201500Y-90005600D03*
X82201500Y-89505600D03*
X82201500Y-89005600D03*
X82201500Y-88505600D03*
X82201500Y-88005600D03*
D47*
X81514000Y-87318100D03*
X81014000Y-87318100D03*
X80514000Y-87318100D03*
X80014000Y-87318100D03*
X79514000Y-87318100D03*
X79014000Y-87318100D03*
D48*
X78326500Y-88005600D03*
X78326500Y-88505600D03*
X78326500Y-89005600D03*
X78326500Y-89505600D03*
X78326500Y-90005600D03*
X78326500Y-90505600D03*
D49*
X80264000Y-89255600D03*
%TD*%
D14*
%TO.C,R15*%
X42051200Y-117104400D03*
X43876200Y-117104400D03*
%TD*%
M02*
