%TF.GenerationSoftware,KiCad,Pcbnew,9.0.4*%
%TF.CreationDate,2025-10-24T17:45:02+05:30*%
%TF.ProjectId,waterlevel project1,77617465-726c-4657-9665-6c2070726f6a,rev?*%
%TF.SameCoordinates,Original*%
%TF.FileFunction,Legend,Top*%
%TF.FilePolarity,Positive*%
%FSLAX46Y46*%
G04 Gerber Fmt 4.6, Leading zero omitted, Abs format (unit mm)*
G04 Created by KiCad (PCBNEW 9.0.4) date 2025-10-24 17:45:02*
%MOMM*%
%LPD*%
G01*
G04 APERTURE LIST*
%ADD10C,0.150000*%
%ADD11C,0.120000*%
%ADD12C,0.127000*%
%ADD13C,0.200000*%
G04 APERTURE END LIST*
D10*
X85278933Y-119968180D02*
X85231314Y-120015800D01*
X85231314Y-120015800D02*
X85088457Y-120063419D01*
X85088457Y-120063419D02*
X84993219Y-120063419D01*
X84993219Y-120063419D02*
X84850362Y-120015800D01*
X84850362Y-120015800D02*
X84755124Y-119920561D01*
X84755124Y-119920561D02*
X84707505Y-119825323D01*
X84707505Y-119825323D02*
X84659886Y-119634847D01*
X84659886Y-119634847D02*
X84659886Y-119491990D01*
X84659886Y-119491990D02*
X84707505Y-119301514D01*
X84707505Y-119301514D02*
X84755124Y-119206276D01*
X84755124Y-119206276D02*
X84850362Y-119111038D01*
X84850362Y-119111038D02*
X84993219Y-119063419D01*
X84993219Y-119063419D02*
X85088457Y-119063419D01*
X85088457Y-119063419D02*
X85231314Y-119111038D01*
X85231314Y-119111038D02*
X85278933Y-119158657D01*
X86231314Y-120063419D02*
X85659886Y-120063419D01*
X85945600Y-120063419D02*
X85945600Y-119063419D01*
X85945600Y-119063419D02*
X85850362Y-119206276D01*
X85850362Y-119206276D02*
X85755124Y-119301514D01*
X85755124Y-119301514D02*
X85659886Y-119349133D01*
X37166666Y-82034819D02*
X37166666Y-82749104D01*
X37166666Y-82749104D02*
X37119047Y-82891961D01*
X37119047Y-82891961D02*
X37023809Y-82987200D01*
X37023809Y-82987200D02*
X36880952Y-83034819D01*
X36880952Y-83034819D02*
X36785714Y-83034819D01*
X38119047Y-82034819D02*
X37642857Y-82034819D01*
X37642857Y-82034819D02*
X37595238Y-82511009D01*
X37595238Y-82511009D02*
X37642857Y-82463390D01*
X37642857Y-82463390D02*
X37738095Y-82415771D01*
X37738095Y-82415771D02*
X37976190Y-82415771D01*
X37976190Y-82415771D02*
X38071428Y-82463390D01*
X38071428Y-82463390D02*
X38119047Y-82511009D01*
X38119047Y-82511009D02*
X38166666Y-82606247D01*
X38166666Y-82606247D02*
X38166666Y-82844342D01*
X38166666Y-82844342D02*
X38119047Y-82939580D01*
X38119047Y-82939580D02*
X38071428Y-82987200D01*
X38071428Y-82987200D02*
X37976190Y-83034819D01*
X37976190Y-83034819D02*
X37738095Y-83034819D01*
X37738095Y-83034819D02*
X37642857Y-82987200D01*
X37642857Y-82987200D02*
X37595238Y-82939580D01*
X107840542Y-93444219D02*
X107507209Y-92968028D01*
X107269114Y-93444219D02*
X107269114Y-92444219D01*
X107269114Y-92444219D02*
X107650066Y-92444219D01*
X107650066Y-92444219D02*
X107745304Y-92491838D01*
X107745304Y-92491838D02*
X107792923Y-92539457D01*
X107792923Y-92539457D02*
X107840542Y-92634695D01*
X107840542Y-92634695D02*
X107840542Y-92777552D01*
X107840542Y-92777552D02*
X107792923Y-92872790D01*
X107792923Y-92872790D02*
X107745304Y-92920409D01*
X107745304Y-92920409D02*
X107650066Y-92968028D01*
X107650066Y-92968028D02*
X107269114Y-92968028D01*
X108792923Y-93444219D02*
X108221495Y-93444219D01*
X108507209Y-93444219D02*
X108507209Y-92444219D01*
X108507209Y-92444219D02*
X108411971Y-92587076D01*
X108411971Y-92587076D02*
X108316733Y-92682314D01*
X108316733Y-92682314D02*
X108221495Y-92729933D01*
X109364352Y-92872790D02*
X109269114Y-92825171D01*
X109269114Y-92825171D02*
X109221495Y-92777552D01*
X109221495Y-92777552D02*
X109173876Y-92682314D01*
X109173876Y-92682314D02*
X109173876Y-92634695D01*
X109173876Y-92634695D02*
X109221495Y-92539457D01*
X109221495Y-92539457D02*
X109269114Y-92491838D01*
X109269114Y-92491838D02*
X109364352Y-92444219D01*
X109364352Y-92444219D02*
X109554828Y-92444219D01*
X109554828Y-92444219D02*
X109650066Y-92491838D01*
X109650066Y-92491838D02*
X109697685Y-92539457D01*
X109697685Y-92539457D02*
X109745304Y-92634695D01*
X109745304Y-92634695D02*
X109745304Y-92682314D01*
X109745304Y-92682314D02*
X109697685Y-92777552D01*
X109697685Y-92777552D02*
X109650066Y-92825171D01*
X109650066Y-92825171D02*
X109554828Y-92872790D01*
X109554828Y-92872790D02*
X109364352Y-92872790D01*
X109364352Y-92872790D02*
X109269114Y-92920409D01*
X109269114Y-92920409D02*
X109221495Y-92968028D01*
X109221495Y-92968028D02*
X109173876Y-93063266D01*
X109173876Y-93063266D02*
X109173876Y-93253742D01*
X109173876Y-93253742D02*
X109221495Y-93348980D01*
X109221495Y-93348980D02*
X109269114Y-93396600D01*
X109269114Y-93396600D02*
X109364352Y-93444219D01*
X109364352Y-93444219D02*
X109554828Y-93444219D01*
X109554828Y-93444219D02*
X109650066Y-93396600D01*
X109650066Y-93396600D02*
X109697685Y-93348980D01*
X109697685Y-93348980D02*
X109745304Y-93253742D01*
X109745304Y-93253742D02*
X109745304Y-93063266D01*
X109745304Y-93063266D02*
X109697685Y-92968028D01*
X109697685Y-92968028D02*
X109650066Y-92920409D01*
X109650066Y-92920409D02*
X109554828Y-92872790D01*
X92530705Y-118514019D02*
X92530705Y-117514019D01*
X92530705Y-117514019D02*
X92768800Y-117514019D01*
X92768800Y-117514019D02*
X92911657Y-117561638D01*
X92911657Y-117561638D02*
X93006895Y-117656876D01*
X93006895Y-117656876D02*
X93054514Y-117752114D01*
X93054514Y-117752114D02*
X93102133Y-117942590D01*
X93102133Y-117942590D02*
X93102133Y-118085447D01*
X93102133Y-118085447D02*
X93054514Y-118275923D01*
X93054514Y-118275923D02*
X93006895Y-118371161D01*
X93006895Y-118371161D02*
X92911657Y-118466400D01*
X92911657Y-118466400D02*
X92768800Y-118514019D01*
X92768800Y-118514019D02*
X92530705Y-118514019D01*
X93483086Y-117609257D02*
X93530705Y-117561638D01*
X93530705Y-117561638D02*
X93625943Y-117514019D01*
X93625943Y-117514019D02*
X93864038Y-117514019D01*
X93864038Y-117514019D02*
X93959276Y-117561638D01*
X93959276Y-117561638D02*
X94006895Y-117609257D01*
X94006895Y-117609257D02*
X94054514Y-117704495D01*
X94054514Y-117704495D02*
X94054514Y-117799733D01*
X94054514Y-117799733D02*
X94006895Y-117942590D01*
X94006895Y-117942590D02*
X93435467Y-118514019D01*
X93435467Y-118514019D02*
X94054514Y-118514019D01*
X89127105Y-114323019D02*
X89127105Y-113323019D01*
X89127105Y-113323019D02*
X89365200Y-113323019D01*
X89365200Y-113323019D02*
X89508057Y-113370638D01*
X89508057Y-113370638D02*
X89603295Y-113465876D01*
X89603295Y-113465876D02*
X89650914Y-113561114D01*
X89650914Y-113561114D02*
X89698533Y-113751590D01*
X89698533Y-113751590D02*
X89698533Y-113894447D01*
X89698533Y-113894447D02*
X89650914Y-114084923D01*
X89650914Y-114084923D02*
X89603295Y-114180161D01*
X89603295Y-114180161D02*
X89508057Y-114275400D01*
X89508057Y-114275400D02*
X89365200Y-114323019D01*
X89365200Y-114323019D02*
X89127105Y-114323019D01*
X90650914Y-114323019D02*
X90079486Y-114323019D01*
X90365200Y-114323019D02*
X90365200Y-113323019D01*
X90365200Y-113323019D02*
X90269962Y-113465876D01*
X90269962Y-113465876D02*
X90174724Y-113561114D01*
X90174724Y-113561114D02*
X90079486Y-113608733D01*
X68690261Y-104906257D02*
X68595023Y-104858638D01*
X68595023Y-104858638D02*
X68499785Y-104763400D01*
X68499785Y-104763400D02*
X68356928Y-104620542D01*
X68356928Y-104620542D02*
X68261690Y-104572923D01*
X68261690Y-104572923D02*
X68166452Y-104572923D01*
X68214071Y-104811019D02*
X68118833Y-104763400D01*
X68118833Y-104763400D02*
X68023595Y-104668161D01*
X68023595Y-104668161D02*
X67975976Y-104477685D01*
X67975976Y-104477685D02*
X67975976Y-104144352D01*
X67975976Y-104144352D02*
X68023595Y-103953876D01*
X68023595Y-103953876D02*
X68118833Y-103858638D01*
X68118833Y-103858638D02*
X68214071Y-103811019D01*
X68214071Y-103811019D02*
X68404547Y-103811019D01*
X68404547Y-103811019D02*
X68499785Y-103858638D01*
X68499785Y-103858638D02*
X68595023Y-103953876D01*
X68595023Y-103953876D02*
X68642642Y-104144352D01*
X68642642Y-104144352D02*
X68642642Y-104477685D01*
X68642642Y-104477685D02*
X68595023Y-104668161D01*
X68595023Y-104668161D02*
X68499785Y-104763400D01*
X68499785Y-104763400D02*
X68404547Y-104811019D01*
X68404547Y-104811019D02*
X68214071Y-104811019D01*
X68975976Y-103811019D02*
X69595023Y-103811019D01*
X69595023Y-103811019D02*
X69261690Y-104191971D01*
X69261690Y-104191971D02*
X69404547Y-104191971D01*
X69404547Y-104191971D02*
X69499785Y-104239590D01*
X69499785Y-104239590D02*
X69547404Y-104287209D01*
X69547404Y-104287209D02*
X69595023Y-104382447D01*
X69595023Y-104382447D02*
X69595023Y-104620542D01*
X69595023Y-104620542D02*
X69547404Y-104715780D01*
X69547404Y-104715780D02*
X69499785Y-104763400D01*
X69499785Y-104763400D02*
X69404547Y-104811019D01*
X69404547Y-104811019D02*
X69118833Y-104811019D01*
X69118833Y-104811019D02*
X69023595Y-104763400D01*
X69023595Y-104763400D02*
X68975976Y-104715780D01*
X113015733Y-111706819D02*
X112682400Y-111230628D01*
X112444305Y-111706819D02*
X112444305Y-110706819D01*
X112444305Y-110706819D02*
X112825257Y-110706819D01*
X112825257Y-110706819D02*
X112920495Y-110754438D01*
X112920495Y-110754438D02*
X112968114Y-110802057D01*
X112968114Y-110802057D02*
X113015733Y-110897295D01*
X113015733Y-110897295D02*
X113015733Y-111040152D01*
X113015733Y-111040152D02*
X112968114Y-111135390D01*
X112968114Y-111135390D02*
X112920495Y-111183009D01*
X112920495Y-111183009D02*
X112825257Y-111230628D01*
X112825257Y-111230628D02*
X112444305Y-111230628D01*
X113587162Y-111135390D02*
X113491924Y-111087771D01*
X113491924Y-111087771D02*
X113444305Y-111040152D01*
X113444305Y-111040152D02*
X113396686Y-110944914D01*
X113396686Y-110944914D02*
X113396686Y-110897295D01*
X113396686Y-110897295D02*
X113444305Y-110802057D01*
X113444305Y-110802057D02*
X113491924Y-110754438D01*
X113491924Y-110754438D02*
X113587162Y-110706819D01*
X113587162Y-110706819D02*
X113777638Y-110706819D01*
X113777638Y-110706819D02*
X113872876Y-110754438D01*
X113872876Y-110754438D02*
X113920495Y-110802057D01*
X113920495Y-110802057D02*
X113968114Y-110897295D01*
X113968114Y-110897295D02*
X113968114Y-110944914D01*
X113968114Y-110944914D02*
X113920495Y-111040152D01*
X113920495Y-111040152D02*
X113872876Y-111087771D01*
X113872876Y-111087771D02*
X113777638Y-111135390D01*
X113777638Y-111135390D02*
X113587162Y-111135390D01*
X113587162Y-111135390D02*
X113491924Y-111183009D01*
X113491924Y-111183009D02*
X113444305Y-111230628D01*
X113444305Y-111230628D02*
X113396686Y-111325866D01*
X113396686Y-111325866D02*
X113396686Y-111516342D01*
X113396686Y-111516342D02*
X113444305Y-111611580D01*
X113444305Y-111611580D02*
X113491924Y-111659200D01*
X113491924Y-111659200D02*
X113587162Y-111706819D01*
X113587162Y-111706819D02*
X113777638Y-111706819D01*
X113777638Y-111706819D02*
X113872876Y-111659200D01*
X113872876Y-111659200D02*
X113920495Y-111611580D01*
X113920495Y-111611580D02*
X113968114Y-111516342D01*
X113968114Y-111516342D02*
X113968114Y-111325866D01*
X113968114Y-111325866D02*
X113920495Y-111230628D01*
X113920495Y-111230628D02*
X113872876Y-111183009D01*
X113872876Y-111183009D02*
X113777638Y-111135390D01*
X70731142Y-101324580D02*
X70683523Y-101372200D01*
X70683523Y-101372200D02*
X70540666Y-101419819D01*
X70540666Y-101419819D02*
X70445428Y-101419819D01*
X70445428Y-101419819D02*
X70302571Y-101372200D01*
X70302571Y-101372200D02*
X70207333Y-101276961D01*
X70207333Y-101276961D02*
X70159714Y-101181723D01*
X70159714Y-101181723D02*
X70112095Y-100991247D01*
X70112095Y-100991247D02*
X70112095Y-100848390D01*
X70112095Y-100848390D02*
X70159714Y-100657914D01*
X70159714Y-100657914D02*
X70207333Y-100562676D01*
X70207333Y-100562676D02*
X70302571Y-100467438D01*
X70302571Y-100467438D02*
X70445428Y-100419819D01*
X70445428Y-100419819D02*
X70540666Y-100419819D01*
X70540666Y-100419819D02*
X70683523Y-100467438D01*
X70683523Y-100467438D02*
X70731142Y-100515057D01*
X71683523Y-101419819D02*
X71112095Y-101419819D01*
X71397809Y-101419819D02*
X71397809Y-100419819D01*
X71397809Y-100419819D02*
X71302571Y-100562676D01*
X71302571Y-100562676D02*
X71207333Y-100657914D01*
X71207333Y-100657914D02*
X71112095Y-100705533D01*
X72302571Y-100419819D02*
X72397809Y-100419819D01*
X72397809Y-100419819D02*
X72493047Y-100467438D01*
X72493047Y-100467438D02*
X72540666Y-100515057D01*
X72540666Y-100515057D02*
X72588285Y-100610295D01*
X72588285Y-100610295D02*
X72635904Y-100800771D01*
X72635904Y-100800771D02*
X72635904Y-101038866D01*
X72635904Y-101038866D02*
X72588285Y-101229342D01*
X72588285Y-101229342D02*
X72540666Y-101324580D01*
X72540666Y-101324580D02*
X72493047Y-101372200D01*
X72493047Y-101372200D02*
X72397809Y-101419819D01*
X72397809Y-101419819D02*
X72302571Y-101419819D01*
X72302571Y-101419819D02*
X72207333Y-101372200D01*
X72207333Y-101372200D02*
X72159714Y-101324580D01*
X72159714Y-101324580D02*
X72112095Y-101229342D01*
X72112095Y-101229342D02*
X72064476Y-101038866D01*
X72064476Y-101038866D02*
X72064476Y-100800771D01*
X72064476Y-100800771D02*
X72112095Y-100610295D01*
X72112095Y-100610295D02*
X72159714Y-100515057D01*
X72159714Y-100515057D02*
X72207333Y-100467438D01*
X72207333Y-100467438D02*
X72302571Y-100419819D01*
X68235533Y-101476980D02*
X68187914Y-101524600D01*
X68187914Y-101524600D02*
X68045057Y-101572219D01*
X68045057Y-101572219D02*
X67949819Y-101572219D01*
X67949819Y-101572219D02*
X67806962Y-101524600D01*
X67806962Y-101524600D02*
X67711724Y-101429361D01*
X67711724Y-101429361D02*
X67664105Y-101334123D01*
X67664105Y-101334123D02*
X67616486Y-101143647D01*
X67616486Y-101143647D02*
X67616486Y-101000790D01*
X67616486Y-101000790D02*
X67664105Y-100810314D01*
X67664105Y-100810314D02*
X67711724Y-100715076D01*
X67711724Y-100715076D02*
X67806962Y-100619838D01*
X67806962Y-100619838D02*
X67949819Y-100572219D01*
X67949819Y-100572219D02*
X68045057Y-100572219D01*
X68045057Y-100572219D02*
X68187914Y-100619838D01*
X68187914Y-100619838D02*
X68235533Y-100667457D01*
X68711724Y-101572219D02*
X68902200Y-101572219D01*
X68902200Y-101572219D02*
X68997438Y-101524600D01*
X68997438Y-101524600D02*
X69045057Y-101476980D01*
X69045057Y-101476980D02*
X69140295Y-101334123D01*
X69140295Y-101334123D02*
X69187914Y-101143647D01*
X69187914Y-101143647D02*
X69187914Y-100762695D01*
X69187914Y-100762695D02*
X69140295Y-100667457D01*
X69140295Y-100667457D02*
X69092676Y-100619838D01*
X69092676Y-100619838D02*
X68997438Y-100572219D01*
X68997438Y-100572219D02*
X68806962Y-100572219D01*
X68806962Y-100572219D02*
X68711724Y-100619838D01*
X68711724Y-100619838D02*
X68664105Y-100667457D01*
X68664105Y-100667457D02*
X68616486Y-100762695D01*
X68616486Y-100762695D02*
X68616486Y-101000790D01*
X68616486Y-101000790D02*
X68664105Y-101096028D01*
X68664105Y-101096028D02*
X68711724Y-101143647D01*
X68711724Y-101143647D02*
X68806962Y-101191266D01*
X68806962Y-101191266D02*
X68997438Y-101191266D01*
X68997438Y-101191266D02*
X69092676Y-101143647D01*
X69092676Y-101143647D02*
X69140295Y-101096028D01*
X69140295Y-101096028D02*
X69187914Y-101000790D01*
X101609233Y-125017419D02*
X101275900Y-124541228D01*
X101037805Y-125017419D02*
X101037805Y-124017419D01*
X101037805Y-124017419D02*
X101418757Y-124017419D01*
X101418757Y-124017419D02*
X101513995Y-124065038D01*
X101513995Y-124065038D02*
X101561614Y-124112657D01*
X101561614Y-124112657D02*
X101609233Y-124207895D01*
X101609233Y-124207895D02*
X101609233Y-124350752D01*
X101609233Y-124350752D02*
X101561614Y-124445990D01*
X101561614Y-124445990D02*
X101513995Y-124493609D01*
X101513995Y-124493609D02*
X101418757Y-124541228D01*
X101418757Y-124541228D02*
X101037805Y-124541228D01*
X101942567Y-124017419D02*
X102609233Y-124017419D01*
X102609233Y-124017419D02*
X102180662Y-125017419D01*
X86961742Y-88237219D02*
X86628409Y-87761028D01*
X86390314Y-88237219D02*
X86390314Y-87237219D01*
X86390314Y-87237219D02*
X86771266Y-87237219D01*
X86771266Y-87237219D02*
X86866504Y-87284838D01*
X86866504Y-87284838D02*
X86914123Y-87332457D01*
X86914123Y-87332457D02*
X86961742Y-87427695D01*
X86961742Y-87427695D02*
X86961742Y-87570552D01*
X86961742Y-87570552D02*
X86914123Y-87665790D01*
X86914123Y-87665790D02*
X86866504Y-87713409D01*
X86866504Y-87713409D02*
X86771266Y-87761028D01*
X86771266Y-87761028D02*
X86390314Y-87761028D01*
X87914123Y-88237219D02*
X87342695Y-88237219D01*
X87628409Y-88237219D02*
X87628409Y-87237219D01*
X87628409Y-87237219D02*
X87533171Y-87380076D01*
X87533171Y-87380076D02*
X87437933Y-87475314D01*
X87437933Y-87475314D02*
X87342695Y-87522933D01*
X88866504Y-88237219D02*
X88295076Y-88237219D01*
X88580790Y-88237219D02*
X88580790Y-87237219D01*
X88580790Y-87237219D02*
X88485552Y-87380076D01*
X88485552Y-87380076D02*
X88390314Y-87475314D01*
X88390314Y-87475314D02*
X88295076Y-87522933D01*
X42679580Y-87928571D02*
X42727200Y-87976190D01*
X42727200Y-87976190D02*
X42774819Y-88119047D01*
X42774819Y-88119047D02*
X42774819Y-88214285D01*
X42774819Y-88214285D02*
X42727200Y-88357142D01*
X42727200Y-88357142D02*
X42631961Y-88452380D01*
X42631961Y-88452380D02*
X42536723Y-88499999D01*
X42536723Y-88499999D02*
X42346247Y-88547618D01*
X42346247Y-88547618D02*
X42203390Y-88547618D01*
X42203390Y-88547618D02*
X42012914Y-88499999D01*
X42012914Y-88499999D02*
X41917676Y-88452380D01*
X41917676Y-88452380D02*
X41822438Y-88357142D01*
X41822438Y-88357142D02*
X41774819Y-88214285D01*
X41774819Y-88214285D02*
X41774819Y-88119047D01*
X41774819Y-88119047D02*
X41822438Y-87976190D01*
X41822438Y-87976190D02*
X41870057Y-87928571D01*
X42774819Y-86976190D02*
X42774819Y-87547618D01*
X42774819Y-87261904D02*
X41774819Y-87261904D01*
X41774819Y-87261904D02*
X41917676Y-87357142D01*
X41917676Y-87357142D02*
X42012914Y-87452380D01*
X42012914Y-87452380D02*
X42060533Y-87547618D01*
X41870057Y-86595237D02*
X41822438Y-86547618D01*
X41822438Y-86547618D02*
X41774819Y-86452380D01*
X41774819Y-86452380D02*
X41774819Y-86214285D01*
X41774819Y-86214285D02*
X41822438Y-86119047D01*
X41822438Y-86119047D02*
X41870057Y-86071428D01*
X41870057Y-86071428D02*
X41965295Y-86023809D01*
X41965295Y-86023809D02*
X42060533Y-86023809D01*
X42060533Y-86023809D02*
X42203390Y-86071428D01*
X42203390Y-86071428D02*
X42774819Y-86642856D01*
X42774819Y-86642856D02*
X42774819Y-86023809D01*
X42870057Y-85833333D02*
X42870057Y-85071428D01*
X42251009Y-84499999D02*
X42298628Y-84357142D01*
X42298628Y-84357142D02*
X42346247Y-84309523D01*
X42346247Y-84309523D02*
X42441485Y-84261904D01*
X42441485Y-84261904D02*
X42584342Y-84261904D01*
X42584342Y-84261904D02*
X42679580Y-84309523D01*
X42679580Y-84309523D02*
X42727200Y-84357142D01*
X42727200Y-84357142D02*
X42774819Y-84452380D01*
X42774819Y-84452380D02*
X42774819Y-84833332D01*
X42774819Y-84833332D02*
X41774819Y-84833332D01*
X41774819Y-84833332D02*
X41774819Y-84499999D01*
X41774819Y-84499999D02*
X41822438Y-84404761D01*
X41822438Y-84404761D02*
X41870057Y-84357142D01*
X41870057Y-84357142D02*
X41965295Y-84309523D01*
X41965295Y-84309523D02*
X42060533Y-84309523D01*
X42060533Y-84309523D02*
X42155771Y-84357142D01*
X42155771Y-84357142D02*
X42203390Y-84404761D01*
X42203390Y-84404761D02*
X42251009Y-84499999D01*
X42251009Y-84499999D02*
X42251009Y-84833332D01*
X42298628Y-83642856D02*
X42774819Y-83642856D01*
X41774819Y-83976189D02*
X42298628Y-83642856D01*
X42298628Y-83642856D02*
X41774819Y-83309523D01*
X42774819Y-82976189D02*
X41774819Y-82976189D01*
X41774819Y-82976189D02*
X41774819Y-82595237D01*
X41774819Y-82595237D02*
X41822438Y-82499999D01*
X41822438Y-82499999D02*
X41870057Y-82452380D01*
X41870057Y-82452380D02*
X41965295Y-82404761D01*
X41965295Y-82404761D02*
X42108152Y-82404761D01*
X42108152Y-82404761D02*
X42203390Y-82452380D01*
X42203390Y-82452380D02*
X42251009Y-82499999D01*
X42251009Y-82499999D02*
X42298628Y-82595237D01*
X42298628Y-82595237D02*
X42298628Y-82976189D01*
X42774819Y-81452380D02*
X42774819Y-82023808D01*
X42774819Y-81738094D02*
X41774819Y-81738094D01*
X41774819Y-81738094D02*
X41917676Y-81833332D01*
X41917676Y-81833332D02*
X42012914Y-81928570D01*
X42012914Y-81928570D02*
X42060533Y-82023808D01*
X86677833Y-115060619D02*
X86344500Y-114584428D01*
X86106405Y-115060619D02*
X86106405Y-114060619D01*
X86106405Y-114060619D02*
X86487357Y-114060619D01*
X86487357Y-114060619D02*
X86582595Y-114108238D01*
X86582595Y-114108238D02*
X86630214Y-114155857D01*
X86630214Y-114155857D02*
X86677833Y-114251095D01*
X86677833Y-114251095D02*
X86677833Y-114393952D01*
X86677833Y-114393952D02*
X86630214Y-114489190D01*
X86630214Y-114489190D02*
X86582595Y-114536809D01*
X86582595Y-114536809D02*
X86487357Y-114584428D01*
X86487357Y-114584428D02*
X86106405Y-114584428D01*
X87058786Y-114155857D02*
X87106405Y-114108238D01*
X87106405Y-114108238D02*
X87201643Y-114060619D01*
X87201643Y-114060619D02*
X87439738Y-114060619D01*
X87439738Y-114060619D02*
X87534976Y-114108238D01*
X87534976Y-114108238D02*
X87582595Y-114155857D01*
X87582595Y-114155857D02*
X87630214Y-114251095D01*
X87630214Y-114251095D02*
X87630214Y-114346333D01*
X87630214Y-114346333D02*
X87582595Y-114489190D01*
X87582595Y-114489190D02*
X87011167Y-115060619D01*
X87011167Y-115060619D02*
X87630214Y-115060619D01*
X84040742Y-98778219D02*
X83707409Y-98302028D01*
X83469314Y-98778219D02*
X83469314Y-97778219D01*
X83469314Y-97778219D02*
X83850266Y-97778219D01*
X83850266Y-97778219D02*
X83945504Y-97825838D01*
X83945504Y-97825838D02*
X83993123Y-97873457D01*
X83993123Y-97873457D02*
X84040742Y-97968695D01*
X84040742Y-97968695D02*
X84040742Y-98111552D01*
X84040742Y-98111552D02*
X83993123Y-98206790D01*
X83993123Y-98206790D02*
X83945504Y-98254409D01*
X83945504Y-98254409D02*
X83850266Y-98302028D01*
X83850266Y-98302028D02*
X83469314Y-98302028D01*
X84993123Y-98778219D02*
X84421695Y-98778219D01*
X84707409Y-98778219D02*
X84707409Y-97778219D01*
X84707409Y-97778219D02*
X84612171Y-97921076D01*
X84612171Y-97921076D02*
X84516933Y-98016314D01*
X84516933Y-98016314D02*
X84421695Y-98063933D01*
X85374076Y-97873457D02*
X85421695Y-97825838D01*
X85421695Y-97825838D02*
X85516933Y-97778219D01*
X85516933Y-97778219D02*
X85755028Y-97778219D01*
X85755028Y-97778219D02*
X85850266Y-97825838D01*
X85850266Y-97825838D02*
X85897885Y-97873457D01*
X85897885Y-97873457D02*
X85945504Y-97968695D01*
X85945504Y-97968695D02*
X85945504Y-98063933D01*
X85945504Y-98063933D02*
X85897885Y-98206790D01*
X85897885Y-98206790D02*
X85326457Y-98778219D01*
X85326457Y-98778219D02*
X85945504Y-98778219D01*
X77313818Y-86367580D02*
X77266199Y-86415200D01*
X77266199Y-86415200D02*
X77123342Y-86462819D01*
X77123342Y-86462819D02*
X77028104Y-86462819D01*
X77028104Y-86462819D02*
X76885247Y-86415200D01*
X76885247Y-86415200D02*
X76790009Y-86319961D01*
X76790009Y-86319961D02*
X76742390Y-86224723D01*
X76742390Y-86224723D02*
X76694771Y-86034247D01*
X76694771Y-86034247D02*
X76694771Y-85891390D01*
X76694771Y-85891390D02*
X76742390Y-85700914D01*
X76742390Y-85700914D02*
X76790009Y-85605676D01*
X76790009Y-85605676D02*
X76885247Y-85510438D01*
X76885247Y-85510438D02*
X77028104Y-85462819D01*
X77028104Y-85462819D02*
X77123342Y-85462819D01*
X77123342Y-85462819D02*
X77266199Y-85510438D01*
X77266199Y-85510438D02*
X77313818Y-85558057D01*
X77885247Y-85891390D02*
X77790009Y-85843771D01*
X77790009Y-85843771D02*
X77742390Y-85796152D01*
X77742390Y-85796152D02*
X77694771Y-85700914D01*
X77694771Y-85700914D02*
X77694771Y-85653295D01*
X77694771Y-85653295D02*
X77742390Y-85558057D01*
X77742390Y-85558057D02*
X77790009Y-85510438D01*
X77790009Y-85510438D02*
X77885247Y-85462819D01*
X77885247Y-85462819D02*
X78075723Y-85462819D01*
X78075723Y-85462819D02*
X78170961Y-85510438D01*
X78170961Y-85510438D02*
X78218580Y-85558057D01*
X78218580Y-85558057D02*
X78266199Y-85653295D01*
X78266199Y-85653295D02*
X78266199Y-85700914D01*
X78266199Y-85700914D02*
X78218580Y-85796152D01*
X78218580Y-85796152D02*
X78170961Y-85843771D01*
X78170961Y-85843771D02*
X78075723Y-85891390D01*
X78075723Y-85891390D02*
X77885247Y-85891390D01*
X77885247Y-85891390D02*
X77790009Y-85939009D01*
X77790009Y-85939009D02*
X77742390Y-85986628D01*
X77742390Y-85986628D02*
X77694771Y-86081866D01*
X77694771Y-86081866D02*
X77694771Y-86272342D01*
X77694771Y-86272342D02*
X77742390Y-86367580D01*
X77742390Y-86367580D02*
X77790009Y-86415200D01*
X77790009Y-86415200D02*
X77885247Y-86462819D01*
X77885247Y-86462819D02*
X78075723Y-86462819D01*
X78075723Y-86462819D02*
X78170961Y-86415200D01*
X78170961Y-86415200D02*
X78218580Y-86367580D01*
X78218580Y-86367580D02*
X78266199Y-86272342D01*
X78266199Y-86272342D02*
X78266199Y-86081866D01*
X78266199Y-86081866D02*
X78218580Y-85986628D01*
X78218580Y-85986628D02*
X78170961Y-85939009D01*
X78170961Y-85939009D02*
X78075723Y-85891390D01*
X78456676Y-86558057D02*
X79218580Y-86558057D01*
X79790009Y-85939009D02*
X79932866Y-85986628D01*
X79932866Y-85986628D02*
X79980485Y-86034247D01*
X79980485Y-86034247D02*
X80028104Y-86129485D01*
X80028104Y-86129485D02*
X80028104Y-86272342D01*
X80028104Y-86272342D02*
X79980485Y-86367580D01*
X79980485Y-86367580D02*
X79932866Y-86415200D01*
X79932866Y-86415200D02*
X79837628Y-86462819D01*
X79837628Y-86462819D02*
X79456676Y-86462819D01*
X79456676Y-86462819D02*
X79456676Y-85462819D01*
X79456676Y-85462819D02*
X79790009Y-85462819D01*
X79790009Y-85462819D02*
X79885247Y-85510438D01*
X79885247Y-85510438D02*
X79932866Y-85558057D01*
X79932866Y-85558057D02*
X79980485Y-85653295D01*
X79980485Y-85653295D02*
X79980485Y-85748533D01*
X79980485Y-85748533D02*
X79932866Y-85843771D01*
X79932866Y-85843771D02*
X79885247Y-85891390D01*
X79885247Y-85891390D02*
X79790009Y-85939009D01*
X79790009Y-85939009D02*
X79456676Y-85939009D01*
X80647152Y-85986628D02*
X80647152Y-86462819D01*
X80313819Y-85462819D02*
X80647152Y-85986628D01*
X80647152Y-85986628D02*
X80980485Y-85462819D01*
X81313819Y-86462819D02*
X81313819Y-85462819D01*
X81313819Y-85462819D02*
X81694771Y-85462819D01*
X81694771Y-85462819D02*
X81790009Y-85510438D01*
X81790009Y-85510438D02*
X81837628Y-85558057D01*
X81837628Y-85558057D02*
X81885247Y-85653295D01*
X81885247Y-85653295D02*
X81885247Y-85796152D01*
X81885247Y-85796152D02*
X81837628Y-85891390D01*
X81837628Y-85891390D02*
X81790009Y-85939009D01*
X81790009Y-85939009D02*
X81694771Y-85986628D01*
X81694771Y-85986628D02*
X81313819Y-85986628D01*
X82837628Y-86462819D02*
X82266200Y-86462819D01*
X82551914Y-86462819D02*
X82551914Y-85462819D01*
X82551914Y-85462819D02*
X82456676Y-85605676D01*
X82456676Y-85605676D02*
X82361438Y-85700914D01*
X82361438Y-85700914D02*
X82266200Y-85748533D01*
X92169733Y-123282180D02*
X92122114Y-123329800D01*
X92122114Y-123329800D02*
X91979257Y-123377419D01*
X91979257Y-123377419D02*
X91884019Y-123377419D01*
X91884019Y-123377419D02*
X91741162Y-123329800D01*
X91741162Y-123329800D02*
X91645924Y-123234561D01*
X91645924Y-123234561D02*
X91598305Y-123139323D01*
X91598305Y-123139323D02*
X91550686Y-122948847D01*
X91550686Y-122948847D02*
X91550686Y-122805990D01*
X91550686Y-122805990D02*
X91598305Y-122615514D01*
X91598305Y-122615514D02*
X91645924Y-122520276D01*
X91645924Y-122520276D02*
X91741162Y-122425038D01*
X91741162Y-122425038D02*
X91884019Y-122377419D01*
X91884019Y-122377419D02*
X91979257Y-122377419D01*
X91979257Y-122377419D02*
X92122114Y-122425038D01*
X92122114Y-122425038D02*
X92169733Y-122472657D01*
X92550686Y-122472657D02*
X92598305Y-122425038D01*
X92598305Y-122425038D02*
X92693543Y-122377419D01*
X92693543Y-122377419D02*
X92931638Y-122377419D01*
X92931638Y-122377419D02*
X93026876Y-122425038D01*
X93026876Y-122425038D02*
X93074495Y-122472657D01*
X93074495Y-122472657D02*
X93122114Y-122567895D01*
X93122114Y-122567895D02*
X93122114Y-122663133D01*
X93122114Y-122663133D02*
X93074495Y-122805990D01*
X93074495Y-122805990D02*
X92503067Y-123377419D01*
X92503067Y-123377419D02*
X93122114Y-123377419D01*
X37141266Y-127339619D02*
X37141266Y-128053904D01*
X37141266Y-128053904D02*
X37093647Y-128196761D01*
X37093647Y-128196761D02*
X36998409Y-128292000D01*
X36998409Y-128292000D02*
X36855552Y-128339619D01*
X36855552Y-128339619D02*
X36760314Y-128339619D01*
X38141266Y-128339619D02*
X37569838Y-128339619D01*
X37855552Y-128339619D02*
X37855552Y-127339619D01*
X37855552Y-127339619D02*
X37760314Y-127482476D01*
X37760314Y-127482476D02*
X37665076Y-127577714D01*
X37665076Y-127577714D02*
X37569838Y-127625333D01*
X40967819Y-125915657D02*
X40491628Y-126248990D01*
X40967819Y-126487085D02*
X39967819Y-126487085D01*
X39967819Y-126487085D02*
X39967819Y-126106133D01*
X39967819Y-126106133D02*
X40015438Y-126010895D01*
X40015438Y-126010895D02*
X40063057Y-125963276D01*
X40063057Y-125963276D02*
X40158295Y-125915657D01*
X40158295Y-125915657D02*
X40301152Y-125915657D01*
X40301152Y-125915657D02*
X40396390Y-125963276D01*
X40396390Y-125963276D02*
X40444009Y-126010895D01*
X40444009Y-126010895D02*
X40491628Y-126106133D01*
X40491628Y-126106133D02*
X40491628Y-126487085D01*
X40967819Y-124963276D02*
X40967819Y-125534704D01*
X40967819Y-125248990D02*
X39967819Y-125248990D01*
X39967819Y-125248990D02*
X40110676Y-125344228D01*
X40110676Y-125344228D02*
X40205914Y-125439466D01*
X40205914Y-125439466D02*
X40253533Y-125534704D01*
X39967819Y-124629942D02*
X39967819Y-123963276D01*
X39967819Y-123963276D02*
X40967819Y-124391847D01*
X59458266Y-113983419D02*
X59458266Y-114697704D01*
X59458266Y-114697704D02*
X59410647Y-114840561D01*
X59410647Y-114840561D02*
X59315409Y-114935800D01*
X59315409Y-114935800D02*
X59172552Y-114983419D01*
X59172552Y-114983419D02*
X59077314Y-114983419D01*
X59839219Y-113983419D02*
X60458266Y-113983419D01*
X60458266Y-113983419D02*
X60124933Y-114364371D01*
X60124933Y-114364371D02*
X60267790Y-114364371D01*
X60267790Y-114364371D02*
X60363028Y-114411990D01*
X60363028Y-114411990D02*
X60410647Y-114459609D01*
X60410647Y-114459609D02*
X60458266Y-114554847D01*
X60458266Y-114554847D02*
X60458266Y-114792942D01*
X60458266Y-114792942D02*
X60410647Y-114888180D01*
X60410647Y-114888180D02*
X60363028Y-114935800D01*
X60363028Y-114935800D02*
X60267790Y-114983419D01*
X60267790Y-114983419D02*
X59982076Y-114983419D01*
X59982076Y-114983419D02*
X59886838Y-114935800D01*
X59886838Y-114935800D02*
X59839219Y-114888180D01*
X100905780Y-106736466D02*
X100953400Y-106784085D01*
X100953400Y-106784085D02*
X101001019Y-106926942D01*
X101001019Y-106926942D02*
X101001019Y-107022180D01*
X101001019Y-107022180D02*
X100953400Y-107165037D01*
X100953400Y-107165037D02*
X100858161Y-107260275D01*
X100858161Y-107260275D02*
X100762923Y-107307894D01*
X100762923Y-107307894D02*
X100572447Y-107355513D01*
X100572447Y-107355513D02*
X100429590Y-107355513D01*
X100429590Y-107355513D02*
X100239114Y-107307894D01*
X100239114Y-107307894D02*
X100143876Y-107260275D01*
X100143876Y-107260275D02*
X100048638Y-107165037D01*
X100048638Y-107165037D02*
X100001019Y-107022180D01*
X100001019Y-107022180D02*
X100001019Y-106926942D01*
X100001019Y-106926942D02*
X100048638Y-106784085D01*
X100048638Y-106784085D02*
X100096257Y-106736466D01*
X100001019Y-105879323D02*
X100001019Y-106069799D01*
X100001019Y-106069799D02*
X100048638Y-106165037D01*
X100048638Y-106165037D02*
X100096257Y-106212656D01*
X100096257Y-106212656D02*
X100239114Y-106307894D01*
X100239114Y-106307894D02*
X100429590Y-106355513D01*
X100429590Y-106355513D02*
X100810542Y-106355513D01*
X100810542Y-106355513D02*
X100905780Y-106307894D01*
X100905780Y-106307894D02*
X100953400Y-106260275D01*
X100953400Y-106260275D02*
X101001019Y-106165037D01*
X101001019Y-106165037D02*
X101001019Y-105974561D01*
X101001019Y-105974561D02*
X100953400Y-105879323D01*
X100953400Y-105879323D02*
X100905780Y-105831704D01*
X100905780Y-105831704D02*
X100810542Y-105784085D01*
X100810542Y-105784085D02*
X100572447Y-105784085D01*
X100572447Y-105784085D02*
X100477209Y-105831704D01*
X100477209Y-105831704D02*
X100429590Y-105879323D01*
X100429590Y-105879323D02*
X100381971Y-105974561D01*
X100381971Y-105974561D02*
X100381971Y-106165037D01*
X100381971Y-106165037D02*
X100429590Y-106260275D01*
X100429590Y-106260275D02*
X100477209Y-106307894D01*
X100477209Y-106307894D02*
X100572447Y-106355513D01*
X99121933Y-89843780D02*
X99074314Y-89891400D01*
X99074314Y-89891400D02*
X98931457Y-89939019D01*
X98931457Y-89939019D02*
X98836219Y-89939019D01*
X98836219Y-89939019D02*
X98693362Y-89891400D01*
X98693362Y-89891400D02*
X98598124Y-89796161D01*
X98598124Y-89796161D02*
X98550505Y-89700923D01*
X98550505Y-89700923D02*
X98502886Y-89510447D01*
X98502886Y-89510447D02*
X98502886Y-89367590D01*
X98502886Y-89367590D02*
X98550505Y-89177114D01*
X98550505Y-89177114D02*
X98598124Y-89081876D01*
X98598124Y-89081876D02*
X98693362Y-88986638D01*
X98693362Y-88986638D02*
X98836219Y-88939019D01*
X98836219Y-88939019D02*
X98931457Y-88939019D01*
X98931457Y-88939019D02*
X99074314Y-88986638D01*
X99074314Y-88986638D02*
X99121933Y-89034257D01*
X99979076Y-89272352D02*
X99979076Y-89939019D01*
X99740981Y-88891400D02*
X99502886Y-89605685D01*
X99502886Y-89605685D02*
X100121933Y-89605685D01*
X92654333Y-129951866D02*
X92654333Y-131085200D01*
X92654333Y-131085200D02*
X92721000Y-131218533D01*
X92721000Y-131218533D02*
X92787666Y-131285200D01*
X92787666Y-131285200D02*
X92921000Y-131351866D01*
X92921000Y-131351866D02*
X93187666Y-131351866D01*
X93187666Y-131351866D02*
X93321000Y-131285200D01*
X93321000Y-131285200D02*
X93387666Y-131218533D01*
X93387666Y-131218533D02*
X93454333Y-131085200D01*
X93454333Y-131085200D02*
X93454333Y-129951866D01*
X93987667Y-129951866D02*
X94854333Y-129951866D01*
X94854333Y-129951866D02*
X94387667Y-130485200D01*
X94387667Y-130485200D02*
X94587667Y-130485200D01*
X94587667Y-130485200D02*
X94721000Y-130551866D01*
X94721000Y-130551866D02*
X94787667Y-130618533D01*
X94787667Y-130618533D02*
X94854333Y-130751866D01*
X94854333Y-130751866D02*
X94854333Y-131085200D01*
X94854333Y-131085200D02*
X94787667Y-131218533D01*
X94787667Y-131218533D02*
X94721000Y-131285200D01*
X94721000Y-131285200D02*
X94587667Y-131351866D01*
X94587667Y-131351866D02*
X94187667Y-131351866D01*
X94187667Y-131351866D02*
X94054333Y-131285200D01*
X94054333Y-131285200D02*
X93987667Y-131218533D01*
X43070542Y-127613580D02*
X43022923Y-127661200D01*
X43022923Y-127661200D02*
X42880066Y-127708819D01*
X42880066Y-127708819D02*
X42784828Y-127708819D01*
X42784828Y-127708819D02*
X42641971Y-127661200D01*
X42641971Y-127661200D02*
X42546733Y-127565961D01*
X42546733Y-127565961D02*
X42499114Y-127470723D01*
X42499114Y-127470723D02*
X42451495Y-127280247D01*
X42451495Y-127280247D02*
X42451495Y-127137390D01*
X42451495Y-127137390D02*
X42499114Y-126946914D01*
X42499114Y-126946914D02*
X42546733Y-126851676D01*
X42546733Y-126851676D02*
X42641971Y-126756438D01*
X42641971Y-126756438D02*
X42784828Y-126708819D01*
X42784828Y-126708819D02*
X42880066Y-126708819D01*
X42880066Y-126708819D02*
X43022923Y-126756438D01*
X43022923Y-126756438D02*
X43070542Y-126804057D01*
X44022923Y-127708819D02*
X43451495Y-127708819D01*
X43737209Y-127708819D02*
X43737209Y-126708819D01*
X43737209Y-126708819D02*
X43641971Y-126851676D01*
X43641971Y-126851676D02*
X43546733Y-126946914D01*
X43546733Y-126946914D02*
X43451495Y-126994533D01*
X44975304Y-127708819D02*
X44403876Y-127708819D01*
X44689590Y-127708819D02*
X44689590Y-126708819D01*
X44689590Y-126708819D02*
X44594352Y-126851676D01*
X44594352Y-126851676D02*
X44499114Y-126946914D01*
X44499114Y-126946914D02*
X44403876Y-126994533D01*
X81310133Y-122621019D02*
X80976800Y-122144828D01*
X80738705Y-122621019D02*
X80738705Y-121621019D01*
X80738705Y-121621019D02*
X81119657Y-121621019D01*
X81119657Y-121621019D02*
X81214895Y-121668638D01*
X81214895Y-121668638D02*
X81262514Y-121716257D01*
X81262514Y-121716257D02*
X81310133Y-121811495D01*
X81310133Y-121811495D02*
X81310133Y-121954352D01*
X81310133Y-121954352D02*
X81262514Y-122049590D01*
X81262514Y-122049590D02*
X81214895Y-122097209D01*
X81214895Y-122097209D02*
X81119657Y-122144828D01*
X81119657Y-122144828D02*
X80738705Y-122144828D01*
X81786324Y-122621019D02*
X81976800Y-122621019D01*
X81976800Y-122621019D02*
X82072038Y-122573400D01*
X82072038Y-122573400D02*
X82119657Y-122525780D01*
X82119657Y-122525780D02*
X82214895Y-122382923D01*
X82214895Y-122382923D02*
X82262514Y-122192447D01*
X82262514Y-122192447D02*
X82262514Y-121811495D01*
X82262514Y-121811495D02*
X82214895Y-121716257D01*
X82214895Y-121716257D02*
X82167276Y-121668638D01*
X82167276Y-121668638D02*
X82072038Y-121621019D01*
X82072038Y-121621019D02*
X81881562Y-121621019D01*
X81881562Y-121621019D02*
X81786324Y-121668638D01*
X81786324Y-121668638D02*
X81738705Y-121716257D01*
X81738705Y-121716257D02*
X81691086Y-121811495D01*
X81691086Y-121811495D02*
X81691086Y-122049590D01*
X81691086Y-122049590D02*
X81738705Y-122144828D01*
X81738705Y-122144828D02*
X81786324Y-122192447D01*
X81786324Y-122192447D02*
X81881562Y-122240066D01*
X81881562Y-122240066D02*
X82072038Y-122240066D01*
X82072038Y-122240066D02*
X82167276Y-122192447D01*
X82167276Y-122192447D02*
X82214895Y-122144828D01*
X82214895Y-122144828D02*
X82262514Y-122049590D01*
X110031305Y-86916419D02*
X110031305Y-85916419D01*
X110031305Y-85916419D02*
X110269400Y-85916419D01*
X110269400Y-85916419D02*
X110412257Y-85964038D01*
X110412257Y-85964038D02*
X110507495Y-86059276D01*
X110507495Y-86059276D02*
X110555114Y-86154514D01*
X110555114Y-86154514D02*
X110602733Y-86344990D01*
X110602733Y-86344990D02*
X110602733Y-86487847D01*
X110602733Y-86487847D02*
X110555114Y-86678323D01*
X110555114Y-86678323D02*
X110507495Y-86773561D01*
X110507495Y-86773561D02*
X110412257Y-86868800D01*
X110412257Y-86868800D02*
X110269400Y-86916419D01*
X110269400Y-86916419D02*
X110031305Y-86916419D01*
X110936067Y-85916419D02*
X111602733Y-85916419D01*
X111602733Y-85916419D02*
X111174162Y-86916419D01*
X90957495Y-100673819D02*
X90957495Y-101483342D01*
X90957495Y-101483342D02*
X91005114Y-101578580D01*
X91005114Y-101578580D02*
X91052733Y-101626200D01*
X91052733Y-101626200D02*
X91147971Y-101673819D01*
X91147971Y-101673819D02*
X91338447Y-101673819D01*
X91338447Y-101673819D02*
X91433685Y-101626200D01*
X91433685Y-101626200D02*
X91481304Y-101578580D01*
X91481304Y-101578580D02*
X91528923Y-101483342D01*
X91528923Y-101483342D02*
X91528923Y-100673819D01*
X92528923Y-101673819D02*
X91957495Y-101673819D01*
X92243209Y-101673819D02*
X92243209Y-100673819D01*
X92243209Y-100673819D02*
X92147971Y-100816676D01*
X92147971Y-100816676D02*
X92052733Y-100911914D01*
X92052733Y-100911914D02*
X91957495Y-100959533D01*
X91882933Y-97285980D02*
X91835314Y-97333600D01*
X91835314Y-97333600D02*
X91692457Y-97381219D01*
X91692457Y-97381219D02*
X91597219Y-97381219D01*
X91597219Y-97381219D02*
X91454362Y-97333600D01*
X91454362Y-97333600D02*
X91359124Y-97238361D01*
X91359124Y-97238361D02*
X91311505Y-97143123D01*
X91311505Y-97143123D02*
X91263886Y-96952647D01*
X91263886Y-96952647D02*
X91263886Y-96809790D01*
X91263886Y-96809790D02*
X91311505Y-96619314D01*
X91311505Y-96619314D02*
X91359124Y-96524076D01*
X91359124Y-96524076D02*
X91454362Y-96428838D01*
X91454362Y-96428838D02*
X91597219Y-96381219D01*
X91597219Y-96381219D02*
X91692457Y-96381219D01*
X91692457Y-96381219D02*
X91835314Y-96428838D01*
X91835314Y-96428838D02*
X91882933Y-96476457D01*
X92216267Y-96381219D02*
X92882933Y-96381219D01*
X92882933Y-96381219D02*
X92454362Y-97381219D01*
X104381466Y-130451419D02*
X104381466Y-131165704D01*
X104381466Y-131165704D02*
X104333847Y-131308561D01*
X104333847Y-131308561D02*
X104238609Y-131403800D01*
X104238609Y-131403800D02*
X104095752Y-131451419D01*
X104095752Y-131451419D02*
X104000514Y-131451419D01*
X105286228Y-130451419D02*
X105095752Y-130451419D01*
X105095752Y-130451419D02*
X105000514Y-130499038D01*
X105000514Y-130499038D02*
X104952895Y-130546657D01*
X104952895Y-130546657D02*
X104857657Y-130689514D01*
X104857657Y-130689514D02*
X104810038Y-130879990D01*
X104810038Y-130879990D02*
X104810038Y-131260942D01*
X104810038Y-131260942D02*
X104857657Y-131356180D01*
X104857657Y-131356180D02*
X104905276Y-131403800D01*
X104905276Y-131403800D02*
X105000514Y-131451419D01*
X105000514Y-131451419D02*
X105190990Y-131451419D01*
X105190990Y-131451419D02*
X105286228Y-131403800D01*
X105286228Y-131403800D02*
X105333847Y-131356180D01*
X105333847Y-131356180D02*
X105381466Y-131260942D01*
X105381466Y-131260942D02*
X105381466Y-131022847D01*
X105381466Y-131022847D02*
X105333847Y-130927609D01*
X105333847Y-130927609D02*
X105286228Y-130879990D01*
X105286228Y-130879990D02*
X105190990Y-130832371D01*
X105190990Y-130832371D02*
X105000514Y-130832371D01*
X105000514Y-130832371D02*
X104905276Y-130879990D01*
X104905276Y-130879990D02*
X104857657Y-130927609D01*
X104857657Y-130927609D02*
X104810038Y-131022847D01*
X111315666Y-118260019D02*
X110982333Y-117783828D01*
X110744238Y-118260019D02*
X110744238Y-117260019D01*
X110744238Y-117260019D02*
X111125190Y-117260019D01*
X111125190Y-117260019D02*
X111220428Y-117307638D01*
X111220428Y-117307638D02*
X111268047Y-117355257D01*
X111268047Y-117355257D02*
X111315666Y-117450495D01*
X111315666Y-117450495D02*
X111315666Y-117593352D01*
X111315666Y-117593352D02*
X111268047Y-117688590D01*
X111268047Y-117688590D02*
X111220428Y-117736209D01*
X111220428Y-117736209D02*
X111125190Y-117783828D01*
X111125190Y-117783828D02*
X110744238Y-117783828D01*
X111744238Y-117736209D02*
X112077571Y-117736209D01*
X112220428Y-118260019D02*
X111744238Y-118260019D01*
X111744238Y-118260019D02*
X111744238Y-117260019D01*
X111744238Y-117260019D02*
X112220428Y-117260019D01*
X112982333Y-117736209D02*
X112649000Y-117736209D01*
X112649000Y-118260019D02*
X112649000Y-117260019D01*
X112649000Y-117260019D02*
X113125190Y-117260019D01*
X113649000Y-117260019D02*
X113649000Y-117498114D01*
X113410905Y-117402876D02*
X113649000Y-117498114D01*
X113649000Y-117498114D02*
X113887095Y-117402876D01*
X113506143Y-117688590D02*
X113649000Y-117498114D01*
X113649000Y-117498114D02*
X113791857Y-117688590D01*
X114410905Y-117260019D02*
X114410905Y-117498114D01*
X114172810Y-117402876D02*
X114410905Y-117498114D01*
X114410905Y-117498114D02*
X114649000Y-117402876D01*
X114268048Y-117688590D02*
X114410905Y-117498114D01*
X114410905Y-117498114D02*
X114553762Y-117688590D01*
X88428533Y-130813980D02*
X88380914Y-130861600D01*
X88380914Y-130861600D02*
X88238057Y-130909219D01*
X88238057Y-130909219D02*
X88142819Y-130909219D01*
X88142819Y-130909219D02*
X87999962Y-130861600D01*
X87999962Y-130861600D02*
X87904724Y-130766361D01*
X87904724Y-130766361D02*
X87857105Y-130671123D01*
X87857105Y-130671123D02*
X87809486Y-130480647D01*
X87809486Y-130480647D02*
X87809486Y-130337790D01*
X87809486Y-130337790D02*
X87857105Y-130147314D01*
X87857105Y-130147314D02*
X87904724Y-130052076D01*
X87904724Y-130052076D02*
X87999962Y-129956838D01*
X87999962Y-129956838D02*
X88142819Y-129909219D01*
X88142819Y-129909219D02*
X88238057Y-129909219D01*
X88238057Y-129909219D02*
X88380914Y-129956838D01*
X88380914Y-129956838D02*
X88428533Y-130004457D01*
X89333295Y-129909219D02*
X88857105Y-129909219D01*
X88857105Y-129909219D02*
X88809486Y-130385409D01*
X88809486Y-130385409D02*
X88857105Y-130337790D01*
X88857105Y-130337790D02*
X88952343Y-130290171D01*
X88952343Y-130290171D02*
X89190438Y-130290171D01*
X89190438Y-130290171D02*
X89285676Y-130337790D01*
X89285676Y-130337790D02*
X89333295Y-130385409D01*
X89333295Y-130385409D02*
X89380914Y-130480647D01*
X89380914Y-130480647D02*
X89380914Y-130718742D01*
X89380914Y-130718742D02*
X89333295Y-130813980D01*
X89333295Y-130813980D02*
X89285676Y-130861600D01*
X89285676Y-130861600D02*
X89190438Y-130909219D01*
X89190438Y-130909219D02*
X88952343Y-130909219D01*
X88952343Y-130909219D02*
X88857105Y-130861600D01*
X88857105Y-130861600D02*
X88809486Y-130813980D01*
X110802847Y-97213009D02*
X110945704Y-97260628D01*
X110945704Y-97260628D02*
X110993323Y-97308247D01*
X110993323Y-97308247D02*
X111040942Y-97403485D01*
X111040942Y-97403485D02*
X111040942Y-97546342D01*
X111040942Y-97546342D02*
X110993323Y-97641580D01*
X110993323Y-97641580D02*
X110945704Y-97689200D01*
X110945704Y-97689200D02*
X110850466Y-97736819D01*
X110850466Y-97736819D02*
X110469514Y-97736819D01*
X110469514Y-97736819D02*
X110469514Y-96736819D01*
X110469514Y-96736819D02*
X110802847Y-96736819D01*
X110802847Y-96736819D02*
X110898085Y-96784438D01*
X110898085Y-96784438D02*
X110945704Y-96832057D01*
X110945704Y-96832057D02*
X110993323Y-96927295D01*
X110993323Y-96927295D02*
X110993323Y-97022533D01*
X110993323Y-97022533D02*
X110945704Y-97117771D01*
X110945704Y-97117771D02*
X110898085Y-97165390D01*
X110898085Y-97165390D02*
X110802847Y-97213009D01*
X110802847Y-97213009D02*
X110469514Y-97213009D01*
X111374276Y-96736819D02*
X112040942Y-96736819D01*
X112040942Y-96736819D02*
X111374276Y-97736819D01*
X111374276Y-97736819D02*
X112040942Y-97736819D01*
X112945704Y-97736819D02*
X112374276Y-97736819D01*
X112659990Y-97736819D02*
X112659990Y-96736819D01*
X112659990Y-96736819D02*
X112564752Y-96879676D01*
X112564752Y-96879676D02*
X112469514Y-96974914D01*
X112469514Y-96974914D02*
X112374276Y-97022533D01*
X109015466Y-99974351D02*
X109015466Y-99212447D01*
X109396419Y-99593399D02*
X108634514Y-99593399D01*
X91799661Y-92064057D02*
X91704423Y-92016438D01*
X91704423Y-92016438D02*
X91609185Y-91921200D01*
X91609185Y-91921200D02*
X91466328Y-91778342D01*
X91466328Y-91778342D02*
X91371090Y-91730723D01*
X91371090Y-91730723D02*
X91275852Y-91730723D01*
X91323471Y-91968819D02*
X91228233Y-91921200D01*
X91228233Y-91921200D02*
X91132995Y-91825961D01*
X91132995Y-91825961D02*
X91085376Y-91635485D01*
X91085376Y-91635485D02*
X91085376Y-91302152D01*
X91085376Y-91302152D02*
X91132995Y-91111676D01*
X91132995Y-91111676D02*
X91228233Y-91016438D01*
X91228233Y-91016438D02*
X91323471Y-90968819D01*
X91323471Y-90968819D02*
X91513947Y-90968819D01*
X91513947Y-90968819D02*
X91609185Y-91016438D01*
X91609185Y-91016438D02*
X91704423Y-91111676D01*
X91704423Y-91111676D02*
X91752042Y-91302152D01*
X91752042Y-91302152D02*
X91752042Y-91635485D01*
X91752042Y-91635485D02*
X91704423Y-91825961D01*
X91704423Y-91825961D02*
X91609185Y-91921200D01*
X91609185Y-91921200D02*
X91513947Y-91968819D01*
X91513947Y-91968819D02*
X91323471Y-91968819D01*
X92704423Y-91968819D02*
X92132995Y-91968819D01*
X92418709Y-91968819D02*
X92418709Y-90968819D01*
X92418709Y-90968819D02*
X92323471Y-91111676D01*
X92323471Y-91111676D02*
X92228233Y-91206914D01*
X92228233Y-91206914D02*
X92132995Y-91254533D01*
X85756761Y-96968457D02*
X85661523Y-96920838D01*
X85661523Y-96920838D02*
X85566285Y-96825600D01*
X85566285Y-96825600D02*
X85423428Y-96682742D01*
X85423428Y-96682742D02*
X85328190Y-96635123D01*
X85328190Y-96635123D02*
X85232952Y-96635123D01*
X85280571Y-96873219D02*
X85185333Y-96825600D01*
X85185333Y-96825600D02*
X85090095Y-96730361D01*
X85090095Y-96730361D02*
X85042476Y-96539885D01*
X85042476Y-96539885D02*
X85042476Y-96206552D01*
X85042476Y-96206552D02*
X85090095Y-96016076D01*
X85090095Y-96016076D02*
X85185333Y-95920838D01*
X85185333Y-95920838D02*
X85280571Y-95873219D01*
X85280571Y-95873219D02*
X85471047Y-95873219D01*
X85471047Y-95873219D02*
X85566285Y-95920838D01*
X85566285Y-95920838D02*
X85661523Y-96016076D01*
X85661523Y-96016076D02*
X85709142Y-96206552D01*
X85709142Y-96206552D02*
X85709142Y-96539885D01*
X85709142Y-96539885D02*
X85661523Y-96730361D01*
X85661523Y-96730361D02*
X85566285Y-96825600D01*
X85566285Y-96825600D02*
X85471047Y-96873219D01*
X85471047Y-96873219D02*
X85280571Y-96873219D01*
X86090095Y-95968457D02*
X86137714Y-95920838D01*
X86137714Y-95920838D02*
X86232952Y-95873219D01*
X86232952Y-95873219D02*
X86471047Y-95873219D01*
X86471047Y-95873219D02*
X86566285Y-95920838D01*
X86566285Y-95920838D02*
X86613904Y-95968457D01*
X86613904Y-95968457D02*
X86661523Y-96063695D01*
X86661523Y-96063695D02*
X86661523Y-96158933D01*
X86661523Y-96158933D02*
X86613904Y-96301790D01*
X86613904Y-96301790D02*
X86042476Y-96873219D01*
X86042476Y-96873219D02*
X86661523Y-96873219D01*
X66941866Y-110731819D02*
X66608533Y-110255628D01*
X66370438Y-110731819D02*
X66370438Y-109731819D01*
X66370438Y-109731819D02*
X66751390Y-109731819D01*
X66751390Y-109731819D02*
X66846628Y-109779438D01*
X66846628Y-109779438D02*
X66894247Y-109827057D01*
X66894247Y-109827057D02*
X66941866Y-109922295D01*
X66941866Y-109922295D02*
X66941866Y-110065152D01*
X66941866Y-110065152D02*
X66894247Y-110160390D01*
X66894247Y-110160390D02*
X66846628Y-110208009D01*
X66846628Y-110208009D02*
X66751390Y-110255628D01*
X66751390Y-110255628D02*
X66370438Y-110255628D01*
X67370438Y-110208009D02*
X67703771Y-110208009D01*
X67846628Y-110731819D02*
X67370438Y-110731819D01*
X67370438Y-110731819D02*
X67370438Y-109731819D01*
X67370438Y-109731819D02*
X67846628Y-109731819D01*
X68608533Y-110208009D02*
X68275200Y-110208009D01*
X68275200Y-110731819D02*
X68275200Y-109731819D01*
X68275200Y-109731819D02*
X68751390Y-109731819D01*
X69275200Y-109731819D02*
X69275200Y-109969914D01*
X69037105Y-109874676D02*
X69275200Y-109969914D01*
X69275200Y-109969914D02*
X69513295Y-109874676D01*
X69132343Y-110160390D02*
X69275200Y-109969914D01*
X69275200Y-109969914D02*
X69418057Y-110160390D01*
X70037105Y-109731819D02*
X70037105Y-109969914D01*
X69799010Y-109874676D02*
X70037105Y-109969914D01*
X70037105Y-109969914D02*
X70275200Y-109874676D01*
X69894248Y-110160390D02*
X70037105Y-109969914D01*
X70037105Y-109969914D02*
X70179962Y-110160390D01*
X111326705Y-93520419D02*
X111326705Y-92520419D01*
X111326705Y-92520419D02*
X111564800Y-92520419D01*
X111564800Y-92520419D02*
X111707657Y-92568038D01*
X111707657Y-92568038D02*
X111802895Y-92663276D01*
X111802895Y-92663276D02*
X111850514Y-92758514D01*
X111850514Y-92758514D02*
X111898133Y-92948990D01*
X111898133Y-92948990D02*
X111898133Y-93091847D01*
X111898133Y-93091847D02*
X111850514Y-93282323D01*
X111850514Y-93282323D02*
X111802895Y-93377561D01*
X111802895Y-93377561D02*
X111707657Y-93472800D01*
X111707657Y-93472800D02*
X111564800Y-93520419D01*
X111564800Y-93520419D02*
X111326705Y-93520419D01*
X112802895Y-92520419D02*
X112326705Y-92520419D01*
X112326705Y-92520419D02*
X112279086Y-92996609D01*
X112279086Y-92996609D02*
X112326705Y-92948990D01*
X112326705Y-92948990D02*
X112421943Y-92901371D01*
X112421943Y-92901371D02*
X112660038Y-92901371D01*
X112660038Y-92901371D02*
X112755276Y-92948990D01*
X112755276Y-92948990D02*
X112802895Y-92996609D01*
X112802895Y-92996609D02*
X112850514Y-93091847D01*
X112850514Y-93091847D02*
X112850514Y-93329942D01*
X112850514Y-93329942D02*
X112802895Y-93425180D01*
X112802895Y-93425180D02*
X112755276Y-93472800D01*
X112755276Y-93472800D02*
X112660038Y-93520419D01*
X112660038Y-93520419D02*
X112421943Y-93520419D01*
X112421943Y-93520419D02*
X112326705Y-93472800D01*
X112326705Y-93472800D02*
X112279086Y-93425180D01*
X80687942Y-131468019D02*
X80354609Y-130991828D01*
X80116514Y-131468019D02*
X80116514Y-130468019D01*
X80116514Y-130468019D02*
X80497466Y-130468019D01*
X80497466Y-130468019D02*
X80592704Y-130515638D01*
X80592704Y-130515638D02*
X80640323Y-130563257D01*
X80640323Y-130563257D02*
X80687942Y-130658495D01*
X80687942Y-130658495D02*
X80687942Y-130801352D01*
X80687942Y-130801352D02*
X80640323Y-130896590D01*
X80640323Y-130896590D02*
X80592704Y-130944209D01*
X80592704Y-130944209D02*
X80497466Y-130991828D01*
X80497466Y-130991828D02*
X80116514Y-130991828D01*
X81068895Y-130563257D02*
X81116514Y-130515638D01*
X81116514Y-130515638D02*
X81211752Y-130468019D01*
X81211752Y-130468019D02*
X81449847Y-130468019D01*
X81449847Y-130468019D02*
X81545085Y-130515638D01*
X81545085Y-130515638D02*
X81592704Y-130563257D01*
X81592704Y-130563257D02*
X81640323Y-130658495D01*
X81640323Y-130658495D02*
X81640323Y-130753733D01*
X81640323Y-130753733D02*
X81592704Y-130896590D01*
X81592704Y-130896590D02*
X81021276Y-131468019D01*
X81021276Y-131468019D02*
X81640323Y-131468019D01*
X82021276Y-130563257D02*
X82068895Y-130515638D01*
X82068895Y-130515638D02*
X82164133Y-130468019D01*
X82164133Y-130468019D02*
X82402228Y-130468019D01*
X82402228Y-130468019D02*
X82497466Y-130515638D01*
X82497466Y-130515638D02*
X82545085Y-130563257D01*
X82545085Y-130563257D02*
X82592704Y-130658495D01*
X82592704Y-130658495D02*
X82592704Y-130753733D01*
X82592704Y-130753733D02*
X82545085Y-130896590D01*
X82545085Y-130896590D02*
X81973657Y-131468019D01*
X81973657Y-131468019D02*
X82592704Y-131468019D01*
X97764695Y-104306019D02*
X97764695Y-105115542D01*
X97764695Y-105115542D02*
X97812314Y-105210780D01*
X97812314Y-105210780D02*
X97859933Y-105258400D01*
X97859933Y-105258400D02*
X97955171Y-105306019D01*
X97955171Y-105306019D02*
X98145647Y-105306019D01*
X98145647Y-105306019D02*
X98240885Y-105258400D01*
X98240885Y-105258400D02*
X98288504Y-105210780D01*
X98288504Y-105210780D02*
X98336123Y-105115542D01*
X98336123Y-105115542D02*
X98336123Y-104306019D01*
X98764695Y-104401257D02*
X98812314Y-104353638D01*
X98812314Y-104353638D02*
X98907552Y-104306019D01*
X98907552Y-104306019D02*
X99145647Y-104306019D01*
X99145647Y-104306019D02*
X99240885Y-104353638D01*
X99240885Y-104353638D02*
X99288504Y-104401257D01*
X99288504Y-104401257D02*
X99336123Y-104496495D01*
X99336123Y-104496495D02*
X99336123Y-104591733D01*
X99336123Y-104591733D02*
X99288504Y-104734590D01*
X99288504Y-104734590D02*
X98717076Y-105306019D01*
X98717076Y-105306019D02*
X99336123Y-105306019D01*
X72407542Y-93012419D02*
X72074209Y-92536228D01*
X71836114Y-93012419D02*
X71836114Y-92012419D01*
X71836114Y-92012419D02*
X72217066Y-92012419D01*
X72217066Y-92012419D02*
X72312304Y-92060038D01*
X72312304Y-92060038D02*
X72359923Y-92107657D01*
X72359923Y-92107657D02*
X72407542Y-92202895D01*
X72407542Y-92202895D02*
X72407542Y-92345752D01*
X72407542Y-92345752D02*
X72359923Y-92440990D01*
X72359923Y-92440990D02*
X72312304Y-92488609D01*
X72312304Y-92488609D02*
X72217066Y-92536228D01*
X72217066Y-92536228D02*
X71836114Y-92536228D01*
X73359923Y-93012419D02*
X72788495Y-93012419D01*
X73074209Y-93012419D02*
X73074209Y-92012419D01*
X73074209Y-92012419D02*
X72978971Y-92155276D01*
X72978971Y-92155276D02*
X72883733Y-92250514D01*
X72883733Y-92250514D02*
X72788495Y-92298133D01*
X73693257Y-92012419D02*
X74312304Y-92012419D01*
X74312304Y-92012419D02*
X73978971Y-92393371D01*
X73978971Y-92393371D02*
X74121828Y-92393371D01*
X74121828Y-92393371D02*
X74217066Y-92440990D01*
X74217066Y-92440990D02*
X74264685Y-92488609D01*
X74264685Y-92488609D02*
X74312304Y-92583847D01*
X74312304Y-92583847D02*
X74312304Y-92821942D01*
X74312304Y-92821942D02*
X74264685Y-92917180D01*
X74264685Y-92917180D02*
X74217066Y-92964800D01*
X74217066Y-92964800D02*
X74121828Y-93012419D01*
X74121828Y-93012419D02*
X73836114Y-93012419D01*
X73836114Y-93012419D02*
X73740876Y-92964800D01*
X73740876Y-92964800D02*
X73693257Y-92917180D01*
X70685066Y-122086019D02*
X70685066Y-122800304D01*
X70685066Y-122800304D02*
X70637447Y-122943161D01*
X70637447Y-122943161D02*
X70542209Y-123038400D01*
X70542209Y-123038400D02*
X70399352Y-123086019D01*
X70399352Y-123086019D02*
X70304114Y-123086019D01*
X71589828Y-122419352D02*
X71589828Y-123086019D01*
X71351733Y-122038400D02*
X71113638Y-122752685D01*
X71113638Y-122752685D02*
X71732685Y-122752685D01*
X67479942Y-87322819D02*
X67146609Y-86846628D01*
X66908514Y-87322819D02*
X66908514Y-86322819D01*
X66908514Y-86322819D02*
X67289466Y-86322819D01*
X67289466Y-86322819D02*
X67384704Y-86370438D01*
X67384704Y-86370438D02*
X67432323Y-86418057D01*
X67432323Y-86418057D02*
X67479942Y-86513295D01*
X67479942Y-86513295D02*
X67479942Y-86656152D01*
X67479942Y-86656152D02*
X67432323Y-86751390D01*
X67432323Y-86751390D02*
X67384704Y-86799009D01*
X67384704Y-86799009D02*
X67289466Y-86846628D01*
X67289466Y-86846628D02*
X66908514Y-86846628D01*
X68432323Y-87322819D02*
X67860895Y-87322819D01*
X68146609Y-87322819D02*
X68146609Y-86322819D01*
X68146609Y-86322819D02*
X68051371Y-86465676D01*
X68051371Y-86465676D02*
X67956133Y-86560914D01*
X67956133Y-86560914D02*
X67860895Y-86608533D01*
X69289466Y-86656152D02*
X69289466Y-87322819D01*
X69051371Y-86275200D02*
X68813276Y-86989485D01*
X68813276Y-86989485D02*
X69432323Y-86989485D01*
X97905780Y-87236466D02*
X97953400Y-87284085D01*
X97953400Y-87284085D02*
X98001019Y-87426942D01*
X98001019Y-87426942D02*
X98001019Y-87522180D01*
X98001019Y-87522180D02*
X97953400Y-87665037D01*
X97953400Y-87665037D02*
X97858161Y-87760275D01*
X97858161Y-87760275D02*
X97762923Y-87807894D01*
X97762923Y-87807894D02*
X97572447Y-87855513D01*
X97572447Y-87855513D02*
X97429590Y-87855513D01*
X97429590Y-87855513D02*
X97239114Y-87807894D01*
X97239114Y-87807894D02*
X97143876Y-87760275D01*
X97143876Y-87760275D02*
X97048638Y-87665037D01*
X97048638Y-87665037D02*
X97001019Y-87522180D01*
X97001019Y-87522180D02*
X97001019Y-87426942D01*
X97001019Y-87426942D02*
X97048638Y-87284085D01*
X97048638Y-87284085D02*
X97096257Y-87236466D01*
X97001019Y-86903132D02*
X97001019Y-86284085D01*
X97001019Y-86284085D02*
X97381971Y-86617418D01*
X97381971Y-86617418D02*
X97381971Y-86474561D01*
X97381971Y-86474561D02*
X97429590Y-86379323D01*
X97429590Y-86379323D02*
X97477209Y-86331704D01*
X97477209Y-86331704D02*
X97572447Y-86284085D01*
X97572447Y-86284085D02*
X97810542Y-86284085D01*
X97810542Y-86284085D02*
X97905780Y-86331704D01*
X97905780Y-86331704D02*
X97953400Y-86379323D01*
X97953400Y-86379323D02*
X98001019Y-86474561D01*
X98001019Y-86474561D02*
X98001019Y-86760275D01*
X98001019Y-86760275D02*
X97953400Y-86855513D01*
X97953400Y-86855513D02*
X97905780Y-86903132D01*
X107942142Y-85697219D02*
X107608809Y-85221028D01*
X107370714Y-85697219D02*
X107370714Y-84697219D01*
X107370714Y-84697219D02*
X107751666Y-84697219D01*
X107751666Y-84697219D02*
X107846904Y-84744838D01*
X107846904Y-84744838D02*
X107894523Y-84792457D01*
X107894523Y-84792457D02*
X107942142Y-84887695D01*
X107942142Y-84887695D02*
X107942142Y-85030552D01*
X107942142Y-85030552D02*
X107894523Y-85125790D01*
X107894523Y-85125790D02*
X107846904Y-85173409D01*
X107846904Y-85173409D02*
X107751666Y-85221028D01*
X107751666Y-85221028D02*
X107370714Y-85221028D01*
X108323095Y-84792457D02*
X108370714Y-84744838D01*
X108370714Y-84744838D02*
X108465952Y-84697219D01*
X108465952Y-84697219D02*
X108704047Y-84697219D01*
X108704047Y-84697219D02*
X108799285Y-84744838D01*
X108799285Y-84744838D02*
X108846904Y-84792457D01*
X108846904Y-84792457D02*
X108894523Y-84887695D01*
X108894523Y-84887695D02*
X108894523Y-84982933D01*
X108894523Y-84982933D02*
X108846904Y-85125790D01*
X108846904Y-85125790D02*
X108275476Y-85697219D01*
X108275476Y-85697219D02*
X108894523Y-85697219D01*
X109513571Y-84697219D02*
X109608809Y-84697219D01*
X109608809Y-84697219D02*
X109704047Y-84744838D01*
X109704047Y-84744838D02*
X109751666Y-84792457D01*
X109751666Y-84792457D02*
X109799285Y-84887695D01*
X109799285Y-84887695D02*
X109846904Y-85078171D01*
X109846904Y-85078171D02*
X109846904Y-85316266D01*
X109846904Y-85316266D02*
X109799285Y-85506742D01*
X109799285Y-85506742D02*
X109751666Y-85601980D01*
X109751666Y-85601980D02*
X109704047Y-85649600D01*
X109704047Y-85649600D02*
X109608809Y-85697219D01*
X109608809Y-85697219D02*
X109513571Y-85697219D01*
X109513571Y-85697219D02*
X109418333Y-85649600D01*
X109418333Y-85649600D02*
X109370714Y-85601980D01*
X109370714Y-85601980D02*
X109323095Y-85506742D01*
X109323095Y-85506742D02*
X109275476Y-85316266D01*
X109275476Y-85316266D02*
X109275476Y-85078171D01*
X109275476Y-85078171D02*
X109323095Y-84887695D01*
X109323095Y-84887695D02*
X109370714Y-84792457D01*
X109370714Y-84792457D02*
X109418333Y-84744838D01*
X109418333Y-84744838D02*
X109513571Y-84697219D01*
X78268533Y-104569419D02*
X77935200Y-104093228D01*
X77697105Y-104569419D02*
X77697105Y-103569419D01*
X77697105Y-103569419D02*
X78078057Y-103569419D01*
X78078057Y-103569419D02*
X78173295Y-103617038D01*
X78173295Y-103617038D02*
X78220914Y-103664657D01*
X78220914Y-103664657D02*
X78268533Y-103759895D01*
X78268533Y-103759895D02*
X78268533Y-103902752D01*
X78268533Y-103902752D02*
X78220914Y-103997990D01*
X78220914Y-103997990D02*
X78173295Y-104045609D01*
X78173295Y-104045609D02*
X78078057Y-104093228D01*
X78078057Y-104093228D02*
X77697105Y-104093228D01*
X78601867Y-103569419D02*
X79220914Y-103569419D01*
X79220914Y-103569419D02*
X78887581Y-103950371D01*
X78887581Y-103950371D02*
X79030438Y-103950371D01*
X79030438Y-103950371D02*
X79125676Y-103997990D01*
X79125676Y-103997990D02*
X79173295Y-104045609D01*
X79173295Y-104045609D02*
X79220914Y-104140847D01*
X79220914Y-104140847D02*
X79220914Y-104378942D01*
X79220914Y-104378942D02*
X79173295Y-104474180D01*
X79173295Y-104474180D02*
X79125676Y-104521800D01*
X79125676Y-104521800D02*
X79030438Y-104569419D01*
X79030438Y-104569419D02*
X78744724Y-104569419D01*
X78744724Y-104569419D02*
X78649486Y-104521800D01*
X78649486Y-104521800D02*
X78601867Y-104474180D01*
X107992942Y-89761219D02*
X107659609Y-89285028D01*
X107421514Y-89761219D02*
X107421514Y-88761219D01*
X107421514Y-88761219D02*
X107802466Y-88761219D01*
X107802466Y-88761219D02*
X107897704Y-88808838D01*
X107897704Y-88808838D02*
X107945323Y-88856457D01*
X107945323Y-88856457D02*
X107992942Y-88951695D01*
X107992942Y-88951695D02*
X107992942Y-89094552D01*
X107992942Y-89094552D02*
X107945323Y-89189790D01*
X107945323Y-89189790D02*
X107897704Y-89237409D01*
X107897704Y-89237409D02*
X107802466Y-89285028D01*
X107802466Y-89285028D02*
X107421514Y-89285028D01*
X108945323Y-89761219D02*
X108373895Y-89761219D01*
X108659609Y-89761219D02*
X108659609Y-88761219D01*
X108659609Y-88761219D02*
X108564371Y-88904076D01*
X108564371Y-88904076D02*
X108469133Y-88999314D01*
X108469133Y-88999314D02*
X108373895Y-89046933D01*
X109421514Y-89761219D02*
X109611990Y-89761219D01*
X109611990Y-89761219D02*
X109707228Y-89713600D01*
X109707228Y-89713600D02*
X109754847Y-89665980D01*
X109754847Y-89665980D02*
X109850085Y-89523123D01*
X109850085Y-89523123D02*
X109897704Y-89332647D01*
X109897704Y-89332647D02*
X109897704Y-88951695D01*
X109897704Y-88951695D02*
X109850085Y-88856457D01*
X109850085Y-88856457D02*
X109802466Y-88808838D01*
X109802466Y-88808838D02*
X109707228Y-88761219D01*
X109707228Y-88761219D02*
X109516752Y-88761219D01*
X109516752Y-88761219D02*
X109421514Y-88808838D01*
X109421514Y-88808838D02*
X109373895Y-88856457D01*
X109373895Y-88856457D02*
X109326276Y-88951695D01*
X109326276Y-88951695D02*
X109326276Y-89189790D01*
X109326276Y-89189790D02*
X109373895Y-89285028D01*
X109373895Y-89285028D02*
X109421514Y-89332647D01*
X109421514Y-89332647D02*
X109516752Y-89380266D01*
X109516752Y-89380266D02*
X109707228Y-89380266D01*
X109707228Y-89380266D02*
X109802466Y-89332647D01*
X109802466Y-89332647D02*
X109850085Y-89285028D01*
X109850085Y-89285028D02*
X109897704Y-89189790D01*
X58869342Y-107719019D02*
X58536009Y-107242828D01*
X58297914Y-107719019D02*
X58297914Y-106719019D01*
X58297914Y-106719019D02*
X58678866Y-106719019D01*
X58678866Y-106719019D02*
X58774104Y-106766638D01*
X58774104Y-106766638D02*
X58821723Y-106814257D01*
X58821723Y-106814257D02*
X58869342Y-106909495D01*
X58869342Y-106909495D02*
X58869342Y-107052352D01*
X58869342Y-107052352D02*
X58821723Y-107147590D01*
X58821723Y-107147590D02*
X58774104Y-107195209D01*
X58774104Y-107195209D02*
X58678866Y-107242828D01*
X58678866Y-107242828D02*
X58297914Y-107242828D01*
X59250295Y-106814257D02*
X59297914Y-106766638D01*
X59297914Y-106766638D02*
X59393152Y-106719019D01*
X59393152Y-106719019D02*
X59631247Y-106719019D01*
X59631247Y-106719019D02*
X59726485Y-106766638D01*
X59726485Y-106766638D02*
X59774104Y-106814257D01*
X59774104Y-106814257D02*
X59821723Y-106909495D01*
X59821723Y-106909495D02*
X59821723Y-107004733D01*
X59821723Y-107004733D02*
X59774104Y-107147590D01*
X59774104Y-107147590D02*
X59202676Y-107719019D01*
X59202676Y-107719019D02*
X59821723Y-107719019D01*
X60774104Y-107719019D02*
X60202676Y-107719019D01*
X60488390Y-107719019D02*
X60488390Y-106719019D01*
X60488390Y-106719019D02*
X60393152Y-106861876D01*
X60393152Y-106861876D02*
X60297914Y-106957114D01*
X60297914Y-106957114D02*
X60202676Y-107004733D01*
X103046305Y-119326819D02*
X103046305Y-118326819D01*
X103046305Y-118326819D02*
X103284400Y-118326819D01*
X103284400Y-118326819D02*
X103427257Y-118374438D01*
X103427257Y-118374438D02*
X103522495Y-118469676D01*
X103522495Y-118469676D02*
X103570114Y-118564914D01*
X103570114Y-118564914D02*
X103617733Y-118755390D01*
X103617733Y-118755390D02*
X103617733Y-118898247D01*
X103617733Y-118898247D02*
X103570114Y-119088723D01*
X103570114Y-119088723D02*
X103522495Y-119183961D01*
X103522495Y-119183961D02*
X103427257Y-119279200D01*
X103427257Y-119279200D02*
X103284400Y-119326819D01*
X103284400Y-119326819D02*
X103046305Y-119326819D01*
X104474876Y-118660152D02*
X104474876Y-119326819D01*
X104236781Y-118279200D02*
X103998686Y-118993485D01*
X103998686Y-118993485D02*
X104617733Y-118993485D01*
X42990419Y-95148304D02*
X43799942Y-95148304D01*
X43799942Y-95148304D02*
X43895180Y-95100685D01*
X43895180Y-95100685D02*
X43942800Y-95053066D01*
X43942800Y-95053066D02*
X43990419Y-94957828D01*
X43990419Y-94957828D02*
X43990419Y-94767352D01*
X43990419Y-94767352D02*
X43942800Y-94672114D01*
X43942800Y-94672114D02*
X43895180Y-94624495D01*
X43895180Y-94624495D02*
X43799942Y-94576876D01*
X43799942Y-94576876D02*
X42990419Y-94576876D01*
X43323752Y-93672114D02*
X43990419Y-93672114D01*
X42942800Y-93910209D02*
X43657085Y-94148304D01*
X43657085Y-94148304D02*
X43657085Y-93529257D01*
X36614266Y-106367619D02*
X36280933Y-105891428D01*
X36042838Y-106367619D02*
X36042838Y-105367619D01*
X36042838Y-105367619D02*
X36423790Y-105367619D01*
X36423790Y-105367619D02*
X36519028Y-105415238D01*
X36519028Y-105415238D02*
X36566647Y-105462857D01*
X36566647Y-105462857D02*
X36614266Y-105558095D01*
X36614266Y-105558095D02*
X36614266Y-105700952D01*
X36614266Y-105700952D02*
X36566647Y-105796190D01*
X36566647Y-105796190D02*
X36519028Y-105843809D01*
X36519028Y-105843809D02*
X36423790Y-105891428D01*
X36423790Y-105891428D02*
X36042838Y-105891428D01*
X37042838Y-105843809D02*
X37376171Y-105843809D01*
X37519028Y-106367619D02*
X37042838Y-106367619D01*
X37042838Y-106367619D02*
X37042838Y-105367619D01*
X37042838Y-105367619D02*
X37519028Y-105367619D01*
X38280933Y-105843809D02*
X37947600Y-105843809D01*
X37947600Y-106367619D02*
X37947600Y-105367619D01*
X37947600Y-105367619D02*
X38423790Y-105367619D01*
X38947600Y-105367619D02*
X38947600Y-105605714D01*
X38709505Y-105510476D02*
X38947600Y-105605714D01*
X38947600Y-105605714D02*
X39185695Y-105510476D01*
X38804743Y-105796190D02*
X38947600Y-105605714D01*
X38947600Y-105605714D02*
X39090457Y-105796190D01*
X39709505Y-105367619D02*
X39709505Y-105605714D01*
X39471410Y-105510476D02*
X39709505Y-105605714D01*
X39709505Y-105605714D02*
X39947600Y-105510476D01*
X39566648Y-105796190D02*
X39709505Y-105605714D01*
X39709505Y-105605714D02*
X39852362Y-105796190D01*
X41145619Y-121419857D02*
X40669428Y-121753190D01*
X41145619Y-121991285D02*
X40145619Y-121991285D01*
X40145619Y-121991285D02*
X40145619Y-121610333D01*
X40145619Y-121610333D02*
X40193238Y-121515095D01*
X40193238Y-121515095D02*
X40240857Y-121467476D01*
X40240857Y-121467476D02*
X40336095Y-121419857D01*
X40336095Y-121419857D02*
X40478952Y-121419857D01*
X40478952Y-121419857D02*
X40574190Y-121467476D01*
X40574190Y-121467476D02*
X40621809Y-121515095D01*
X40621809Y-121515095D02*
X40669428Y-121610333D01*
X40669428Y-121610333D02*
X40669428Y-121991285D01*
X41145619Y-120467476D02*
X41145619Y-121038904D01*
X41145619Y-120753190D02*
X40145619Y-120753190D01*
X40145619Y-120753190D02*
X40288476Y-120848428D01*
X40288476Y-120848428D02*
X40383714Y-120943666D01*
X40383714Y-120943666D02*
X40431333Y-121038904D01*
X40145619Y-119610333D02*
X40145619Y-119800809D01*
X40145619Y-119800809D02*
X40193238Y-119896047D01*
X40193238Y-119896047D02*
X40240857Y-119943666D01*
X40240857Y-119943666D02*
X40383714Y-120038904D01*
X40383714Y-120038904D02*
X40574190Y-120086523D01*
X40574190Y-120086523D02*
X40955142Y-120086523D01*
X40955142Y-120086523D02*
X41050380Y-120038904D01*
X41050380Y-120038904D02*
X41098000Y-119991285D01*
X41098000Y-119991285D02*
X41145619Y-119896047D01*
X41145619Y-119896047D02*
X41145619Y-119705571D01*
X41145619Y-119705571D02*
X41098000Y-119610333D01*
X41098000Y-119610333D02*
X41050380Y-119562714D01*
X41050380Y-119562714D02*
X40955142Y-119515095D01*
X40955142Y-119515095D02*
X40717047Y-119515095D01*
X40717047Y-119515095D02*
X40621809Y-119562714D01*
X40621809Y-119562714D02*
X40574190Y-119610333D01*
X40574190Y-119610333D02*
X40526571Y-119705571D01*
X40526571Y-119705571D02*
X40526571Y-119896047D01*
X40526571Y-119896047D02*
X40574190Y-119991285D01*
X40574190Y-119991285D02*
X40621809Y-120038904D01*
X40621809Y-120038904D02*
X40717047Y-120086523D01*
X111352105Y-89481819D02*
X111352105Y-88481819D01*
X111352105Y-88481819D02*
X111590200Y-88481819D01*
X111590200Y-88481819D02*
X111733057Y-88529438D01*
X111733057Y-88529438D02*
X111828295Y-88624676D01*
X111828295Y-88624676D02*
X111875914Y-88719914D01*
X111875914Y-88719914D02*
X111923533Y-88910390D01*
X111923533Y-88910390D02*
X111923533Y-89053247D01*
X111923533Y-89053247D02*
X111875914Y-89243723D01*
X111875914Y-89243723D02*
X111828295Y-89338961D01*
X111828295Y-89338961D02*
X111733057Y-89434200D01*
X111733057Y-89434200D02*
X111590200Y-89481819D01*
X111590200Y-89481819D02*
X111352105Y-89481819D01*
X112780676Y-88481819D02*
X112590200Y-88481819D01*
X112590200Y-88481819D02*
X112494962Y-88529438D01*
X112494962Y-88529438D02*
X112447343Y-88577057D01*
X112447343Y-88577057D02*
X112352105Y-88719914D01*
X112352105Y-88719914D02*
X112304486Y-88910390D01*
X112304486Y-88910390D02*
X112304486Y-89291342D01*
X112304486Y-89291342D02*
X112352105Y-89386580D01*
X112352105Y-89386580D02*
X112399724Y-89434200D01*
X112399724Y-89434200D02*
X112494962Y-89481819D01*
X112494962Y-89481819D02*
X112685438Y-89481819D01*
X112685438Y-89481819D02*
X112780676Y-89434200D01*
X112780676Y-89434200D02*
X112828295Y-89386580D01*
X112828295Y-89386580D02*
X112875914Y-89291342D01*
X112875914Y-89291342D02*
X112875914Y-89053247D01*
X112875914Y-89053247D02*
X112828295Y-88958009D01*
X112828295Y-88958009D02*
X112780676Y-88910390D01*
X112780676Y-88910390D02*
X112685438Y-88862771D01*
X112685438Y-88862771D02*
X112494962Y-88862771D01*
X112494962Y-88862771D02*
X112399724Y-88910390D01*
X112399724Y-88910390D02*
X112352105Y-88958009D01*
X112352105Y-88958009D02*
X112304486Y-89053247D01*
X99579133Y-121104819D02*
X99102943Y-121104819D01*
X99102943Y-121104819D02*
X99102943Y-120104819D01*
X100436276Y-121104819D02*
X99864848Y-121104819D01*
X100150562Y-121104819D02*
X100150562Y-120104819D01*
X100150562Y-120104819D02*
X100055324Y-120247676D01*
X100055324Y-120247676D02*
X99960086Y-120342914D01*
X99960086Y-120342914D02*
X99864848Y-120390533D01*
X98537733Y-93876019D02*
X98204400Y-93399828D01*
X97966305Y-93876019D02*
X97966305Y-92876019D01*
X97966305Y-92876019D02*
X98347257Y-92876019D01*
X98347257Y-92876019D02*
X98442495Y-92923638D01*
X98442495Y-92923638D02*
X98490114Y-92971257D01*
X98490114Y-92971257D02*
X98537733Y-93066495D01*
X98537733Y-93066495D02*
X98537733Y-93209352D01*
X98537733Y-93209352D02*
X98490114Y-93304590D01*
X98490114Y-93304590D02*
X98442495Y-93352209D01*
X98442495Y-93352209D02*
X98347257Y-93399828D01*
X98347257Y-93399828D02*
X97966305Y-93399828D01*
X99394876Y-93209352D02*
X99394876Y-93876019D01*
X99156781Y-92828400D02*
X98918686Y-93542685D01*
X98918686Y-93542685D02*
X99537733Y-93542685D01*
X85812333Y-110995619D02*
X85479000Y-110519428D01*
X85240905Y-110995619D02*
X85240905Y-109995619D01*
X85240905Y-109995619D02*
X85621857Y-109995619D01*
X85621857Y-109995619D02*
X85717095Y-110043238D01*
X85717095Y-110043238D02*
X85764714Y-110090857D01*
X85764714Y-110090857D02*
X85812333Y-110186095D01*
X85812333Y-110186095D02*
X85812333Y-110328952D01*
X85812333Y-110328952D02*
X85764714Y-110424190D01*
X85764714Y-110424190D02*
X85717095Y-110471809D01*
X85717095Y-110471809D02*
X85621857Y-110519428D01*
X85621857Y-110519428D02*
X85240905Y-110519428D01*
X86764714Y-110995619D02*
X86193286Y-110995619D01*
X86479000Y-110995619D02*
X86479000Y-109995619D01*
X86479000Y-109995619D02*
X86383762Y-110138476D01*
X86383762Y-110138476D02*
X86288524Y-110233714D01*
X86288524Y-110233714D02*
X86193286Y-110281333D01*
X75158695Y-88050019D02*
X75158695Y-88859542D01*
X75158695Y-88859542D02*
X75206314Y-88954780D01*
X75206314Y-88954780D02*
X75253933Y-89002400D01*
X75253933Y-89002400D02*
X75349171Y-89050019D01*
X75349171Y-89050019D02*
X75539647Y-89050019D01*
X75539647Y-89050019D02*
X75634885Y-89002400D01*
X75634885Y-89002400D02*
X75682504Y-88954780D01*
X75682504Y-88954780D02*
X75730123Y-88859542D01*
X75730123Y-88859542D02*
X75730123Y-88050019D01*
X76634885Y-88050019D02*
X76444409Y-88050019D01*
X76444409Y-88050019D02*
X76349171Y-88097638D01*
X76349171Y-88097638D02*
X76301552Y-88145257D01*
X76301552Y-88145257D02*
X76206314Y-88288114D01*
X76206314Y-88288114D02*
X76158695Y-88478590D01*
X76158695Y-88478590D02*
X76158695Y-88859542D01*
X76158695Y-88859542D02*
X76206314Y-88954780D01*
X76206314Y-88954780D02*
X76253933Y-89002400D01*
X76253933Y-89002400D02*
X76349171Y-89050019D01*
X76349171Y-89050019D02*
X76539647Y-89050019D01*
X76539647Y-89050019D02*
X76634885Y-89002400D01*
X76634885Y-89002400D02*
X76682504Y-88954780D01*
X76682504Y-88954780D02*
X76730123Y-88859542D01*
X76730123Y-88859542D02*
X76730123Y-88621447D01*
X76730123Y-88621447D02*
X76682504Y-88526209D01*
X76682504Y-88526209D02*
X76634885Y-88478590D01*
X76634885Y-88478590D02*
X76539647Y-88430971D01*
X76539647Y-88430971D02*
X76349171Y-88430971D01*
X76349171Y-88430971D02*
X76253933Y-88478590D01*
X76253933Y-88478590D02*
X76206314Y-88526209D01*
X76206314Y-88526209D02*
X76158695Y-88621447D01*
X42320842Y-115909219D02*
X41987509Y-115433028D01*
X41749414Y-115909219D02*
X41749414Y-114909219D01*
X41749414Y-114909219D02*
X42130366Y-114909219D01*
X42130366Y-114909219D02*
X42225604Y-114956838D01*
X42225604Y-114956838D02*
X42273223Y-115004457D01*
X42273223Y-115004457D02*
X42320842Y-115099695D01*
X42320842Y-115099695D02*
X42320842Y-115242552D01*
X42320842Y-115242552D02*
X42273223Y-115337790D01*
X42273223Y-115337790D02*
X42225604Y-115385409D01*
X42225604Y-115385409D02*
X42130366Y-115433028D01*
X42130366Y-115433028D02*
X41749414Y-115433028D01*
X43273223Y-115909219D02*
X42701795Y-115909219D01*
X42987509Y-115909219D02*
X42987509Y-114909219D01*
X42987509Y-114909219D02*
X42892271Y-115052076D01*
X42892271Y-115052076D02*
X42797033Y-115147314D01*
X42797033Y-115147314D02*
X42701795Y-115194933D01*
X44177985Y-114909219D02*
X43701795Y-114909219D01*
X43701795Y-114909219D02*
X43654176Y-115385409D01*
X43654176Y-115385409D02*
X43701795Y-115337790D01*
X43701795Y-115337790D02*
X43797033Y-115290171D01*
X43797033Y-115290171D02*
X44035128Y-115290171D01*
X44035128Y-115290171D02*
X44130366Y-115337790D01*
X44130366Y-115337790D02*
X44177985Y-115385409D01*
X44177985Y-115385409D02*
X44225604Y-115480647D01*
X44225604Y-115480647D02*
X44225604Y-115718742D01*
X44225604Y-115718742D02*
X44177985Y-115813980D01*
X44177985Y-115813980D02*
X44130366Y-115861600D01*
X44130366Y-115861600D02*
X44035128Y-115909219D01*
X44035128Y-115909219D02*
X43797033Y-115909219D01*
X43797033Y-115909219D02*
X43701795Y-115861600D01*
X43701795Y-115861600D02*
X43654176Y-115813980D01*
D11*
%TO.C,C1*%
X86671548Y-120473800D02*
X87194052Y-120473800D01*
X86671548Y-121943800D02*
X87194052Y-121943800D01*
%TO.C,J5*%
X36120000Y-83580000D02*
X37500000Y-83580000D01*
X36120000Y-84960000D02*
X36120000Y-83580000D01*
X36120000Y-86230000D02*
X36120000Y-99040000D01*
X36120000Y-86230000D02*
X38880000Y-86230000D01*
X36120000Y-99040000D02*
X38880000Y-99040000D01*
X38880000Y-86230000D02*
X38880000Y-99040000D01*
%TO.C,R18*%
X107746436Y-94057800D02*
X108200564Y-94057800D01*
X107746436Y-95527800D02*
X108200564Y-95527800D01*
%TO.C,D2*%
X90638900Y-115282600D02*
X90638900Y-117202600D01*
X90638900Y-117202600D02*
X93323900Y-117202600D01*
X93323900Y-115282600D02*
X90638900Y-115282600D01*
%TO.C,D1*%
X90638900Y-111282600D02*
X90638900Y-113202600D01*
X90638900Y-113202600D02*
X93323900Y-113202600D01*
X93323900Y-111282600D02*
X90638900Y-111282600D01*
%TO.C,Q3*%
X68785500Y-105196200D02*
X68135500Y-105196200D01*
X68785500Y-105196200D02*
X69435500Y-105196200D01*
X68785500Y-108316200D02*
X68135500Y-108316200D01*
X68785500Y-108316200D02*
X69435500Y-108316200D01*
X67623000Y-105246200D02*
X67383000Y-104916200D01*
X67863000Y-104916200D01*
X67623000Y-105246200D01*
G36*
X67623000Y-105246200D02*
G01*
X67383000Y-104916200D01*
X67863000Y-104916200D01*
X67623000Y-105246200D01*
G37*
%TO.C,R8*%
X111900536Y-112133200D02*
X112354664Y-112133200D01*
X111900536Y-113603200D02*
X112354664Y-113603200D01*
%TO.C,C10*%
X72315400Y-98594852D02*
X72315400Y-98072348D01*
X73785400Y-98594852D02*
X73785400Y-98072348D01*
%TO.C,C9*%
X67641800Y-98671052D02*
X67641800Y-98148548D01*
X69111800Y-98671052D02*
X69111800Y-98148548D01*
%TO.C,R7*%
X101548836Y-125477600D02*
X102002964Y-125477600D01*
X101548836Y-126947600D02*
X102002964Y-126947600D01*
%TO.C,R11*%
X88874236Y-88718800D02*
X89328364Y-88718800D01*
X88874236Y-90188800D02*
X89328364Y-90188800D01*
%TO.C,C12_BYP1*%
X43265000Y-83711252D02*
X43265000Y-83188748D01*
X44735000Y-83711252D02*
X44735000Y-83188748D01*
%TO.C,R2*%
X86617436Y-115520800D02*
X87071564Y-115520800D01*
X86617436Y-116990800D02*
X87071564Y-116990800D01*
%TO.C,R12*%
X82959836Y-99290200D02*
X83413964Y-99290200D01*
X82959836Y-100760200D02*
X83413964Y-100760200D01*
%TO.C,C8_BYP1*%
X80027452Y-83593000D02*
X79504948Y-83593000D01*
X80027452Y-85063000D02*
X79504948Y-85063000D01*
%TO.C,C2*%
X92597652Y-120507600D02*
X92075148Y-120507600D01*
X92597652Y-121977600D02*
X92075148Y-121977600D01*
%TO.C,J1*%
X36094600Y-124234800D02*
X36094600Y-116504800D01*
X38854600Y-116504800D02*
X36094600Y-116504800D01*
X38854600Y-124234800D02*
X36094600Y-124234800D01*
X38854600Y-124234800D02*
X38854600Y-116504800D01*
X38854600Y-125504800D02*
X38854600Y-126884800D01*
X38854600Y-126884800D02*
X37474600Y-126884800D01*
%TO.C,R17*%
X42736636Y-124369400D02*
X43190764Y-124369400D01*
X42736636Y-125839400D02*
X43190764Y-125839400D01*
D12*
%TO.C,J3*%
X46676200Y-118874400D02*
X46676200Y-125534400D01*
X46676200Y-128374400D02*
X46676200Y-131354400D01*
X46676200Y-131354400D02*
X61426200Y-131354400D01*
X59781200Y-116854400D02*
X56971200Y-116854400D01*
X61426200Y-118474400D02*
X61426200Y-125534400D01*
X61426200Y-128374400D02*
X61426200Y-131354400D01*
D13*
X56401200Y-115004400D02*
G75*
G02*
X56201200Y-115004400I-100000J0D01*
G01*
X56201200Y-115004400D02*
G75*
G02*
X56401200Y-115004400I100000J0D01*
G01*
D11*
%TO.C,C6*%
X101491200Y-106831052D02*
X101491200Y-106308548D01*
X102961200Y-106831052D02*
X102961200Y-106308548D01*
%TO.C,C4*%
X98964948Y-90334800D02*
X99487452Y-90334800D01*
X98964948Y-91804800D02*
X99487452Y-91804800D01*
D12*
%TO.C,U3*%
X95316000Y-126258000D02*
X97016000Y-126258000D01*
X97016000Y-129388000D02*
X95316000Y-129388000D01*
D13*
X98571000Y-128773000D02*
G75*
G02*
X98371000Y-128773000I-100000J0D01*
G01*
X98371000Y-128773000D02*
G75*
G02*
X98571000Y-128773000I100000J0D01*
G01*
D11*
%TO.C,C11*%
X42789948Y-128369400D02*
X43312452Y-128369400D01*
X42789948Y-129839400D02*
X43312452Y-129839400D01*
%TO.C,R9*%
X81249736Y-123081200D02*
X81703864Y-123081200D01*
X81249736Y-124551200D02*
X81703864Y-124551200D01*
%TO.C,D7*%
X112053100Y-88082000D02*
X114738100Y-88082000D01*
X114738100Y-86162000D02*
X112053100Y-86162000D01*
X114738100Y-88082000D02*
X114738100Y-86162000D01*
%TO.C,U1*%
X87686400Y-102132600D02*
X91446400Y-102132600D01*
X87686400Y-108952600D02*
X91446400Y-108952600D01*
X91446400Y-102132600D02*
X91446400Y-103392600D01*
X91446400Y-108952600D02*
X91446400Y-107692600D01*
X86406400Y-102232600D02*
X86166400Y-101902600D01*
X86646400Y-101902600D01*
X86406400Y-102232600D01*
G36*
X86406400Y-102232600D02*
G01*
X86166400Y-101902600D01*
X86646400Y-101902600D01*
X86406400Y-102232600D01*
G37*
%TO.C,C7*%
X95068152Y-96018800D02*
X94545648Y-96018800D01*
X95068152Y-97488800D02*
X94545648Y-97488800D01*
D12*
%TO.C,J6*%
X106244600Y-126782000D02*
X112144600Y-126782000D01*
X106244600Y-131282000D02*
X106244600Y-126782000D01*
X112144600Y-126782000D02*
X112144600Y-131282000D01*
X112144600Y-131282000D02*
X106244600Y-131282000D01*
D13*
X108294600Y-126082000D02*
G75*
G02*
X108094600Y-126082000I-100000J0D01*
G01*
X108094600Y-126082000D02*
G75*
G02*
X108294600Y-126082000I100000J0D01*
G01*
D11*
%TO.C,C5*%
X88063400Y-127485548D02*
X88063400Y-128008052D01*
X89533400Y-127485548D02*
X89533400Y-128008052D01*
%TO.C,BZ1*%
X106091600Y-100843400D02*
X106091600Y-104843400D01*
X108441600Y-107193400D02*
X112441600Y-107193400D01*
X112441600Y-98493400D02*
X108441600Y-98493400D01*
X114791600Y-104843400D02*
X114791600Y-100843400D01*
%TO.C,Q1*%
X91894900Y-92354000D02*
X91244900Y-92354000D01*
X91894900Y-92354000D02*
X92544900Y-92354000D01*
X91894900Y-95474000D02*
X91244900Y-95474000D01*
X91894900Y-95474000D02*
X92544900Y-95474000D01*
X90732400Y-92404000D02*
X90492400Y-92074000D01*
X90972400Y-92074000D01*
X90732400Y-92404000D01*
G36*
X90732400Y-92404000D02*
G01*
X90492400Y-92074000D01*
X90972400Y-92074000D01*
X90732400Y-92404000D01*
G37*
%TO.C,Q2*%
X86179900Y-92349000D02*
X85529900Y-92349000D01*
X86179900Y-92349000D02*
X86829900Y-92349000D01*
X86179900Y-95469000D02*
X85529900Y-95469000D01*
X86179900Y-95469000D02*
X86829900Y-95469000D01*
X85017400Y-92399000D02*
X84777400Y-92069000D01*
X85257400Y-92069000D01*
X85017400Y-92399000D01*
G36*
X85017400Y-92399000D02*
G01*
X84777400Y-92069000D01*
X85257400Y-92069000D01*
X85017400Y-92399000D01*
G37*
%TO.C,D5*%
X111926100Y-95778200D02*
X114611100Y-95778200D01*
X114611100Y-93858200D02*
X111926100Y-93858200D01*
X114611100Y-95778200D02*
X114611100Y-93858200D01*
%TO.C,R22*%
X81249736Y-128081200D02*
X81703864Y-128081200D01*
X81249736Y-129551200D02*
X81703864Y-129551200D01*
%TO.C,U2*%
X100976200Y-98709800D02*
X99026200Y-98709800D01*
X100976200Y-98709800D02*
X102926200Y-98709800D01*
X100976200Y-103829800D02*
X99026200Y-103829800D01*
X100976200Y-103829800D02*
X102926200Y-103829800D01*
X98276200Y-98804800D02*
X98036200Y-98474800D01*
X98516200Y-98474800D01*
X98276200Y-98804800D01*
G36*
X98276200Y-98804800D02*
G01*
X98036200Y-98474800D01*
X98516200Y-98474800D01*
X98276200Y-98804800D01*
G37*
%TO.C,R13*%
X73077400Y-89864836D02*
X73077400Y-90318964D01*
X74547400Y-89864836D02*
X74547400Y-90318964D01*
D10*
%TO.C,J4*%
X68856800Y-127546200D02*
X68856800Y-126186200D01*
X68856800Y-131216200D02*
X68856800Y-130386200D01*
X78096800Y-126186200D02*
X78096800Y-127546200D01*
X78096800Y-130386200D02*
X78096800Y-131216200D01*
X78096800Y-131216200D02*
X68856800Y-131216200D01*
D11*
%TO.C,R14*%
X65686000Y-89052036D02*
X65686000Y-89506164D01*
X67156000Y-89052036D02*
X67156000Y-89506164D01*
%TO.C,C3*%
X98491200Y-87331052D02*
X98491200Y-86808548D01*
X99961200Y-87331052D02*
X99961200Y-86808548D01*
%TO.C,R20*%
X107822636Y-86514000D02*
X108276764Y-86514000D01*
X107822636Y-87984000D02*
X108276764Y-87984000D01*
%TO.C,R3*%
X75515800Y-103603164D02*
X75515800Y-103149036D01*
X76985800Y-103603164D02*
X76985800Y-103149036D01*
%TO.C,R19*%
X107695636Y-90222400D02*
X108149764Y-90222400D01*
X107695636Y-91692400D02*
X108149764Y-91692400D01*
%TO.C,R21*%
X58038636Y-104802000D02*
X58492764Y-104802000D01*
X58038636Y-106272000D02*
X58492764Y-106272000D01*
%TO.C,D4*%
X102095600Y-110856800D02*
X102095600Y-116366800D01*
X105395600Y-110856800D02*
X102095600Y-110856800D01*
X105395600Y-110856800D02*
X105395600Y-116366800D01*
%TO.C,U4*%
X45880000Y-74255000D02*
X45880000Y-80415000D01*
X45880000Y-74255000D02*
X64120000Y-74255000D01*
X45880000Y-99215000D02*
X45880000Y-99995000D01*
X45880000Y-99995000D02*
X46880000Y-99995000D01*
X64120000Y-74255000D02*
X64120000Y-80670000D01*
X64120000Y-99215000D02*
X64120000Y-99995000D01*
X64120000Y-99995000D02*
X63120000Y-99995000D01*
X45875000Y-81140000D02*
X45375000Y-81140000D01*
X45875000Y-80640000D01*
X45875000Y-81140000D01*
G36*
X45875000Y-81140000D02*
G01*
X45375000Y-81140000D01*
X45875000Y-80640000D01*
X45875000Y-81140000D01*
G37*
%TO.C,R16*%
X42824136Y-120369400D02*
X43278264Y-120369400D01*
X42824136Y-121839400D02*
X43278264Y-121839400D01*
%TO.C,D6*%
X111951500Y-91739600D02*
X114636500Y-91739600D01*
X114636500Y-89819600D02*
X111951500Y-89819600D01*
X114636500Y-91739600D02*
X114636500Y-89819600D01*
%TO.C,L1*%
X97411478Y-118566000D02*
X98210722Y-118566000D01*
X97411478Y-119686000D02*
X98210722Y-119686000D01*
%TO.C,R4*%
X98961636Y-94334800D02*
X99415764Y-94334800D01*
X98961636Y-95804800D02*
X99415764Y-95804800D01*
%TO.C,R1*%
X87046164Y-111482200D02*
X86592036Y-111482200D01*
X87046164Y-112952200D02*
X86592036Y-112952200D01*
%TO.C,U6*%
X78154000Y-87145600D02*
X78629000Y-87145600D01*
X78154000Y-87620600D02*
X78154000Y-87145600D01*
X78154000Y-90890600D02*
X78154000Y-91065600D01*
X78629000Y-91365600D02*
X78394000Y-91365600D01*
X82374000Y-87145600D02*
X81899000Y-87145600D01*
X82374000Y-87620600D02*
X82374000Y-87145600D01*
X82374000Y-90890600D02*
X82374000Y-91365600D01*
X82374000Y-91365600D02*
X81899000Y-91365600D01*
X78154000Y-91365600D02*
X77824000Y-91605600D01*
X77824000Y-91125600D01*
X78154000Y-91365600D01*
G36*
X78154000Y-91365600D02*
G01*
X77824000Y-91605600D01*
X77824000Y-91125600D01*
X78154000Y-91365600D01*
G37*
%TO.C,R15*%
X42736636Y-116369400D02*
X43190764Y-116369400D01*
X42736636Y-117839400D02*
X43190764Y-117839400D01*
%TD*%
M02*
