M48
; DRILL file {KiCad 9.0.4} date 2025-10-24T17:45:05+0530
; FORMAT={-:-/ absolute / metric / decimal}
; #@! TF.CreationDate,2025-10-24T17:45:05+05:30
; #@! TF.GenerationSoftware,Kicad,Pcbnew,9.0.4
; #@! TF.FileFunction,Plated,1,2,PTH
FMAT,2
METRIC
; #@! TA.AperFunction,Plated,PTH,ComponentDrill
T1C0.200
; #@! TA.AperFunction,Plated,PTH,ViaDrill
T2C0.300
; #@! TA.AperFunction,Plated,PTH,ComponentDrill
T3C0.600
; #@! TA.AperFunction,Plated,PTH,ComponentDrill
T4C0.800
; #@! TA.AperFunction,Plated,PTH,ComponentDrill
T5C1.000
; #@! TA.AperFunction,Plated,PTH,ComponentDrill
T6C2.200
%
G90
G05
T1
X52.795Y-88.442
X52.795Y-89.968
X53.557Y-87.68
X53.557Y-89.205
X53.557Y-90.73
X54.32Y-88.442
X54.32Y-89.968
X55.082Y-87.68
X55.082Y-89.205
X55.082Y-90.73
X55.845Y-88.442
X55.845Y-89.968
X100.276Y-100.07
X100.276Y-101.27
X100.276Y-102.47
X101.676Y-100.07
X101.676Y-101.27
X101.676Y-102.47
T2
X45.237Y-115.9
X48.26Y-118.466
X48.285Y-126.492
X49.098Y-85.42
X49.276Y-97.892
X50.876Y-118.466
X51.918Y-95.199
X51.918Y-108.179
X52.883Y-119.634
X53.111Y-97.679
X54.102Y-101.651
X54.153Y-109.982
X54.153Y-114.071
X54.229Y-104.216
X55.626Y-101.041
X56.921Y-93.726
X58.191Y-95.758
X58.293Y-118.059
X61.443Y-88.392
X61.57Y-84.912
X64.059Y-107.112
X66.065Y-94.844
X66.142Y-92.227
X66.294Y-96.342
X69.952Y-95.834
X71.704Y-105.461
X72.568Y-83.439
X73.0Y-84.861
X73.083Y-121.844
X73.933Y-121.844
X74.277Y-122.936
X74.346Y-126.187
X74.473Y-127.203
X74.727Y-99.289
X74.752Y-86.131
X75.827Y-125.322
X76.53Y-87.452
X76.556Y-125.654
X76.937Y-91.11
X77.978Y-123.063
X78.058Y-97.024
X78.207Y-100.355
X78.66Y-97.626
X79.07Y-95.021
X80.188Y-119.38
X80.264Y-89.256
X81.153Y-92.405
X82.271Y-97.866
X83.337Y-103.48
X83.515Y-120.879
X83.871Y-85.141
X83.871Y-90.449
X85.049Y-89.51
X86.309Y-91.288
X88.925Y-96.266
X92.939Y-124.155
X93.853Y-99.085
X93.878Y-89.687
X94.564Y-87.503
X95.123Y-116.307
X95.174Y-112.192
X96.749Y-116.789
X96.774Y-103.175
X98.196Y-110.846
X98.349Y-97.053
X100.813Y-88.036
X102.438Y-97.892
X103.988Y-96.926
X105.156Y-100.66
X105.359Y-108.356
X105.435Y-104.165
T4
X108.195Y-128.482
X110.195Y-128.482
T5
X37.475Y-117.885
X37.475Y-120.425
X37.475Y-122.965
X37.475Y-125.505
X37.5Y-84.96
X37.5Y-87.5
X37.5Y-90.04
X37.5Y-92.58
X37.5Y-95.12
X37.5Y-97.66
T6
X37.948Y-108.763
T3
G00X69.157Y-124.566
M15
G01X69.157Y-125.366
M16
G05
G00X69.157Y-128.366
M15
G01X69.157Y-129.566
M16
G05
G00X77.797Y-124.566
M15
G01X77.797Y-125.366
M16
G05
G00X77.797Y-128.366
M15
G01X77.797Y-129.566
M16
G05
M30
