M48
; DRILL file {KiCad 9.0.4} date 2025-10-24T17:48:04+0530
; FORMAT={-:-/ absolute / metric / decimal}
; #@! TF.CreationDate,2025-10-24T17:48:04+05:30
; #@! TF.GenerationSoftware,Kicad,Pcbnew,9.0.4
; #@! TF.FileFunction,Plated,1,2,PTH
FMAT,2
METRIC
; #@! TA.AperFunction,Plated,PTH,ComponentDrill
T1C0.200
; #@! TA.AperFunction,Plated,PTH,ViaDrill
T2C0.300
; #@! TA.AperFunction,Plated,PTH,ComponentDrill
T3C0.600
; #@! TA.AperFunction,Plated,PTH,ComponentDrill
T4C0.800
%
G90
G05
T1
X123.327Y-94.128
X123.327Y-95.653
X124.089Y-93.366
X124.089Y-94.891
X124.089Y-96.416
X124.852Y-94.128
X124.852Y-95.653
X125.614Y-93.366
X125.614Y-94.891
X125.614Y-96.416
X126.377Y-94.128
X126.377Y-95.653
X157.939Y-117.583
X157.939Y-118.783
X157.939Y-119.983
X159.339Y-117.583
X159.339Y-118.783
X159.339Y-119.983
T2
X88.494Y-104.165
X89.484Y-97.587
X90.373Y-114.021
X93.472Y-117.958
X98.679Y-101.981
X103.708Y-117.907
X104.419Y-115.367
X104.502Y-117.804
X106.177Y-115.627
X106.528Y-114.18
X107.823Y-103.784
X109.093Y-118.364
X111.506Y-93.066
X113.614Y-95.504
X114.427Y-98.019
X114.986Y-95.275
X115.875Y-109.347
X119.405Y-92.456
X119.482Y-112.725
X119.786Y-109.245
X125.476Y-107.188
X130.2Y-111.938
X133.198Y-121.158
X134.645Y-116.154
X136.754Y-100.381
X137.051Y-120.577
X139.374Y-110.977
X139.776Y-97.688
X139.975Y-111.578
X139.979Y-115.468
X141.516Y-111.087
X142.545Y-111.633
X146.837Y-119.583
X147.218Y-98.958
X148.006Y-107.188
X150.571Y-113.843
X150.825Y-108.153
X151.968Y-116.865
X153.822Y-120.752
X156.083Y-105.715
X161.239Y-106.855
X162.468Y-119.558
X162.509Y-115.265
X162.662Y-110.338
X163.068Y-121.666
X163.957Y-117.424
X165.329Y-103.937
X166.827Y-93.243
T4
X91.666Y-82.42
X91.666Y-84.42
X91.666Y-86.42
X91.666Y-88.42
X119.329Y-120.701
X121.329Y-120.701
X160.401Y-82.55
X160.401Y-84.55
X160.401Y-86.55
X160.401Y-88.55
T3
G00X102.586Y-116.99
M15
G01X102.586Y-117.79
M16
G05
G00X102.586Y-120.79
M15
G01X102.586Y-121.99
M16
G05
G00X111.226Y-116.99
M15
G01X111.226Y-117.79
M16
G05
G00X111.226Y-120.79
M15
G01X111.226Y-121.99
M16
G05
M30
