%TF.GenerationSoftware,KiCad,Pcbnew,9.0.4*%
%TF.CreationDate,2025-10-24T17:48:01+05:30*%
%TF.ProjectId,sub_unit,7375625f-756e-4697-942e-6b696361645f,rev?*%
%TF.SameCoordinates,Original*%
%TF.FileFunction,Paste,Top*%
%TF.FilePolarity,Positive*%
%FSLAX46Y46*%
G04 Gerber Fmt 4.6, Leading zero omitted, Abs format (unit mm)*
G04 Created by KiCad (PCBNEW 9.0.4) date 2025-10-24 17:48:01*
%MOMM*%
%LPD*%
G01*
G04 APERTURE LIST*
G04 Aperture macros list*
%AMRoundRect*
0 Rectangle with rounded corners*
0 $1 Rounding radius*
0 $2 $3 $4 $5 $6 $7 $8 $9 X,Y pos of 4 corners*
0 Add a 4 corners polygon primitive as box body*
4,1,4,$2,$3,$4,$5,$6,$7,$8,$9,$2,$3,0*
0 Add four circle primitives for the rounded corners*
1,1,$1+$1,$2,$3*
1,1,$1+$1,$4,$5*
1,1,$1+$1,$6,$7*
1,1,$1+$1,$8,$9*
0 Add four rect primitives between the rounded corners*
20,1,$1+$1,$2,$3,$4,$5,0*
20,1,$1+$1,$4,$5,$6,$7,0*
20,1,$1+$1,$6,$7,$8,$9,0*
20,1,$1+$1,$8,$9,$2,$3,0*%
G04 Aperture macros list end*
%ADD10RoundRect,0.250000X-0.262500X-0.450000X0.262500X-0.450000X0.262500X0.450000X-0.262500X0.450000X0*%
%ADD11RoundRect,0.147500X-0.537500X-0.147500X0.537500X-0.147500X0.537500X0.147500X-0.537500X0.147500X0*%
%ADD12RoundRect,0.250000X-0.255000X-0.440000X0.255000X-0.440000X0.255000X0.440000X-0.255000X0.440000X0*%
%ADD13RoundRect,0.150000X-0.825000X-0.150000X0.825000X-0.150000X0.825000X0.150000X-0.825000X0.150000X0*%
%ADD14R,1.500000X0.900000*%
%ADD15R,0.900000X1.500000*%
%ADD16R,1.050000X1.050000*%
%ADD17RoundRect,0.250000X0.650000X-1.000000X0.650000X1.000000X-0.650000X1.000000X-0.650000X-1.000000X0*%
%ADD18RoundRect,0.250000X-0.250000X-0.475000X0.250000X-0.475000X0.250000X0.475000X-0.250000X0.475000X0*%
%ADD19RoundRect,0.150000X-0.587500X-0.150000X0.587500X-0.150000X0.587500X0.150000X-0.587500X0.150000X0*%
%ADD20R,0.590000X1.150000*%
%ADD21R,0.298000X1.150000*%
%ADD22RoundRect,0.250000X0.262500X0.450000X-0.262500X0.450000X-0.262500X-0.450000X0.262500X-0.450000X0*%
%ADD23RoundRect,0.250000X0.450000X-0.262500X0.450000X0.262500X-0.450000X0.262500X-0.450000X-0.262500X0*%
%ADD24RoundRect,0.218750X0.381250X-0.218750X0.381250X0.218750X-0.381250X0.218750X-0.381250X-0.218750X0*%
%ADD25RoundRect,0.243750X-0.243750X-0.456250X0.243750X-0.456250X0.243750X0.456250X-0.243750X0.456250X0*%
%ADD26RoundRect,0.250000X-0.450000X0.262500X-0.450000X-0.262500X0.450000X-0.262500X0.450000X0.262500X0*%
%ADD27RoundRect,0.250000X0.475000X-0.250000X0.475000X0.250000X-0.475000X0.250000X-0.475000X-0.250000X0*%
%ADD28RoundRect,0.250000X0.250000X0.475000X-0.250000X0.475000X-0.250000X-0.475000X0.250000X-0.475000X0*%
%ADD29RoundRect,0.375000X-0.625000X-0.375000X0.625000X-0.375000X0.625000X0.375000X-0.625000X0.375000X0*%
%ADD30RoundRect,0.500000X-0.500000X-1.400000X0.500000X-1.400000X0.500000X1.400000X-0.500000X1.400000X0*%
%ADD31RoundRect,0.250000X-0.275000X-0.275000X0.275000X-0.275000X0.275000X0.275000X-0.275000X0.275000X0*%
%ADD32RoundRect,0.062500X-0.350000X-0.062500X0.350000X-0.062500X0.350000X0.062500X-0.350000X0.062500X0*%
%ADD33RoundRect,0.062500X-0.062500X-0.350000X0.062500X-0.350000X0.062500X0.350000X-0.062500X0.350000X0*%
G04 APERTURE END LIST*
D10*
%TO.C,R11*%
X91162500Y-94564200D03*
X92987500Y-94564200D03*
%TD*%
%TO.C,R6*%
X99798500Y-97713800D03*
X101623500Y-97713800D03*
%TD*%
D11*
%TO.C,U3*%
X135836000Y-119202200D03*
X135836000Y-120152200D03*
X135836000Y-121102200D03*
X138176000Y-121102200D03*
X138176000Y-120152200D03*
X138176000Y-119202200D03*
%TD*%
D12*
%TO.C,U2*%
X158038800Y-117957600D03*
X158038800Y-119607600D03*
X159238800Y-117957600D03*
X159238800Y-119607600D03*
D13*
X156163800Y-116877600D03*
X156163800Y-118147600D03*
X156163800Y-119417600D03*
X156163800Y-120687600D03*
X161113800Y-120687600D03*
X161113800Y-119417600D03*
X161113800Y-118147600D03*
X161113800Y-116877600D03*
%TD*%
D14*
%TO.C,U4*%
X116781600Y-87550700D03*
X116781600Y-88820700D03*
X116781600Y-90090700D03*
X116781600Y-91360700D03*
X116781600Y-92630700D03*
X116781600Y-93900700D03*
X116781600Y-95170700D03*
X116781600Y-96440700D03*
X116781600Y-97710700D03*
X116781600Y-98980700D03*
X116781600Y-100250700D03*
X116781600Y-101520700D03*
X116781600Y-102790700D03*
X116781600Y-104060700D03*
D15*
X119821600Y-105310700D03*
X121091600Y-105310700D03*
X122361600Y-105310700D03*
X123631600Y-105310700D03*
X124901600Y-105310700D03*
X126171600Y-105310700D03*
X127441600Y-105310700D03*
X128711600Y-105310700D03*
X129981600Y-105310700D03*
X131251600Y-105310700D03*
D14*
X134281600Y-104060700D03*
X134281600Y-102790700D03*
X134281600Y-101520700D03*
X134281600Y-100250700D03*
X134281600Y-98980700D03*
X134281600Y-97710700D03*
X134281600Y-96440700D03*
X134281600Y-95170700D03*
X134281600Y-93900700D03*
X134281600Y-92630700D03*
X134281600Y-91360700D03*
X134281600Y-90090700D03*
X134281600Y-88820700D03*
X134281600Y-87550700D03*
D16*
X123326600Y-93365700D03*
X123326600Y-94890700D03*
X123326600Y-96415700D03*
X124851600Y-93365700D03*
X124851600Y-94890700D03*
X124851600Y-96415700D03*
X126376600Y-93365700D03*
X126376600Y-94890700D03*
X126376600Y-96415700D03*
%TD*%
D17*
%TO.C,D4*%
X130708400Y-119773200D03*
X130708400Y-115773200D03*
%TD*%
D18*
%TO.C,C3*%
X91582200Y-100558600D03*
X93482200Y-100558600D03*
%TD*%
D10*
%TO.C,R7*%
X125429000Y-110744000D03*
X127254000Y-110744000D03*
%TD*%
D19*
%TO.C,Q1*%
X101447600Y-103357600D03*
X101447600Y-105257600D03*
X103322600Y-104307600D03*
%TD*%
D18*
%TO.C,C5*%
X136286200Y-110617000D03*
X138186200Y-110617000D03*
%TD*%
%TO.C,C7*%
X111810800Y-109397800D03*
X113710800Y-109397800D03*
%TD*%
D20*
%TO.C,J4*%
X103706000Y-116814600D03*
X104506000Y-116814600D03*
D21*
X105656000Y-116814600D03*
X106656000Y-116814600D03*
X107156000Y-116814600D03*
X108156000Y-116814600D03*
D20*
X110106000Y-116814600D03*
X109306000Y-116814600D03*
D21*
X108656000Y-116814600D03*
X107656000Y-116814600D03*
X106156000Y-116814600D03*
X105156000Y-116814600D03*
%TD*%
D10*
%TO.C,R14*%
X138787500Y-95402400D03*
X140612500Y-95402400D03*
%TD*%
D18*
%TO.C,C2*%
X154193200Y-108559600D03*
X156093200Y-108559600D03*
%TD*%
%TO.C,C1*%
X161261600Y-105425000D03*
X163161600Y-105425000D03*
%TD*%
D22*
%TO.C,R1*%
X166571300Y-119151400D03*
X164746300Y-119151400D03*
%TD*%
D23*
%TO.C,R9*%
X97180400Y-117523900D03*
X97180400Y-115698900D03*
%TD*%
D22*
%TO.C,R4*%
X149627600Y-118211600D03*
X147802600Y-118211600D03*
%TD*%
D18*
%TO.C,C9*%
X162346600Y-93218000D03*
X164246600Y-93218000D03*
%TD*%
D10*
%TO.C,R15*%
X138658600Y-99593400D03*
X140483600Y-99593400D03*
%TD*%
%TO.C,R3*%
X145213700Y-102438200D03*
X147038700Y-102438200D03*
%TD*%
D18*
%TO.C,C6*%
X136286200Y-113627000D03*
X138186200Y-113627000D03*
%TD*%
D24*
%TO.C,L1*%
X143357600Y-120467900D03*
X143357600Y-118342900D03*
%TD*%
D18*
%TO.C,C10*%
X162346600Y-96228000D03*
X164246600Y-96228000D03*
%TD*%
D25*
%TO.C,D2*%
X164134800Y-112031400D03*
X166009800Y-112031400D03*
%TD*%
D10*
%TO.C,R13*%
X138963400Y-90068400D03*
X140788400Y-90068400D03*
%TD*%
%TO.C,R5*%
X99798500Y-94763800D03*
X101623500Y-94763800D03*
%TD*%
D25*
%TO.C,D1*%
X164134800Y-108991400D03*
X166009800Y-108991400D03*
%TD*%
D23*
%TO.C,R22*%
X96697800Y-122094000D03*
X96697800Y-120269000D03*
%TD*%
D10*
%TO.C,R10*%
X138736700Y-104165400D03*
X140561700Y-104165400D03*
%TD*%
D26*
%TO.C,R2*%
X160502600Y-111355500D03*
X160502600Y-113180500D03*
%TD*%
D10*
%TO.C,R8*%
X125429000Y-113694000D03*
X127254000Y-113694000D03*
%TD*%
D27*
%TO.C,C12_BYP1*%
X111607600Y-90703400D03*
X111607600Y-88803400D03*
%TD*%
D18*
%TO.C,C8_BYP1*%
X161029100Y-101100000D03*
X162929100Y-101100000D03*
%TD*%
D10*
%TO.C,R12*%
X151333200Y-101346000D03*
X153158200Y-101346000D03*
%TD*%
D28*
%TO.C,C4*%
X93482200Y-103568600D03*
X91582200Y-103568600D03*
%TD*%
D29*
%TO.C,U1*%
X87045400Y-109954700D03*
X87045400Y-112254700D03*
D30*
X93345400Y-112254700D03*
D29*
X87045400Y-114554700D03*
%TD*%
D19*
%TO.C,Q2*%
X101447600Y-107982600D03*
X101447600Y-109882600D03*
X103322600Y-108932600D03*
%TD*%
D31*
%TO.C,U6*%
X146111200Y-109357400D03*
X146111200Y-110657400D03*
X147411200Y-109357400D03*
X147411200Y-110657400D03*
D32*
X144823700Y-108757400D03*
X144823700Y-109257400D03*
X144823700Y-109757400D03*
X144823700Y-110257400D03*
X144823700Y-110757400D03*
X144823700Y-111257400D03*
D33*
X145511200Y-111944900D03*
X146011200Y-111944900D03*
X146511200Y-111944900D03*
X147011200Y-111944900D03*
X147511200Y-111944900D03*
X148011200Y-111944900D03*
D32*
X148698700Y-111257400D03*
X148698700Y-110757400D03*
X148698700Y-110257400D03*
X148698700Y-109757400D03*
X148698700Y-109257400D03*
X148698700Y-108757400D03*
D33*
X148011200Y-108069900D03*
X147511200Y-108069900D03*
X147011200Y-108069900D03*
X146511200Y-108069900D03*
X146011200Y-108069900D03*
X145511200Y-108069900D03*
%TD*%
M02*
