%TF.GenerationSoftware,KiCad,Pcbnew,9.0.4*%
%TF.CreationDate,2025-10-24T17:48:01+05:30*%
%TF.ProjectId,sub_unit,7375625f-756e-4697-942e-6b696361645f,rev?*%
%TF.SameCoordinates,Original*%
%TF.FileFunction,Copper,L2,Bot*%
%TF.FilePolarity,Positive*%
%FSLAX46Y46*%
G04 Gerber Fmt 4.6, Leading zero omitted, Abs format (unit mm)*
G04 Created by KiCad (PCBNEW 9.0.4) date 2025-10-24 17:48:01*
%MOMM*%
%LPD*%
G01*
G04 APERTURE LIST*
%TA.AperFunction,ComponentPad*%
%ADD10R,1.308000X1.308000*%
%TD*%
%TA.AperFunction,ComponentPad*%
%ADD11C,1.308000*%
%TD*%
%TA.AperFunction,HeatsinkPad*%
%ADD12C,0.500000*%
%TD*%
%TA.AperFunction,HeatsinkPad*%
%ADD13R,1.900000X2.900000*%
%TD*%
%TA.AperFunction,HeatsinkPad*%
%ADD14C,0.600000*%
%TD*%
%TA.AperFunction,ComponentPad*%
%ADD15R,1.350000X1.350000*%
%TD*%
%TA.AperFunction,ComponentPad*%
%ADD16C,1.350000*%
%TD*%
%TA.AperFunction,ComponentPad*%
%ADD17O,1.000000X2.200000*%
%TD*%
%TA.AperFunction,ComponentPad*%
%ADD18O,1.000000X1.800000*%
%TD*%
%TA.AperFunction,ViaPad*%
%ADD19C,0.600000*%
%TD*%
%TA.AperFunction,Conductor*%
%ADD20C,0.500000*%
%TD*%
%TA.AperFunction,Conductor*%
%ADD21C,0.200000*%
%TD*%
%TA.AperFunction,Conductor*%
%ADD22C,0.600000*%
%TD*%
%TA.AperFunction,Conductor*%
%ADD23C,0.300000*%
%TD*%
G04 APERTURE END LIST*
D10*
%TO.P,J5,1,1*%
%TO.N,GND*%
X119329200Y-120700800D03*
D11*
%TO.P,J5,2,2*%
%TO.N,/VBAT*%
X121329200Y-120700800D03*
%TD*%
D12*
%TO.P,U2,9,EPAD*%
%TO.N,GND*%
X157938800Y-117582600D03*
X157938800Y-118782600D03*
X157938800Y-119982600D03*
D13*
X158638800Y-118782600D03*
D12*
X159338800Y-117582600D03*
X159338800Y-118782600D03*
X159338800Y-119982600D03*
%TD*%
D14*
%TO.P,U4,39,GND*%
%TO.N,GND*%
X123326600Y-94128200D03*
X123326600Y-95653200D03*
X124089100Y-93365700D03*
X124089100Y-94890700D03*
X124089100Y-96415700D03*
X124851600Y-94128200D03*
X124851600Y-95653200D03*
X125614100Y-93365700D03*
X125614100Y-94890700D03*
X125614100Y-96415700D03*
X126376600Y-94128200D03*
X126376600Y-95653200D03*
%TD*%
D15*
%TO.P,J1,1,Pin_1*%
%TO.N,/VBUS*%
X91666200Y-82420200D03*
D16*
%TO.P,J1,2,Pin_2*%
%TO.N,Net-(J1-Pin_2)*%
X91666200Y-84420200D03*
%TO.P,J1,3,Pin_3*%
%TO.N,Net-(J1-Pin_3)*%
X91666200Y-86420200D03*
%TO.P,J1,4,Pin_4*%
%TO.N,GND*%
X91666200Y-88420200D03*
%TD*%
D17*
%TO.P,J4,SH1,SHIELD1*%
%TO.N,GND*%
X102586000Y-121389600D03*
%TO.P,J4,SH2,SHIELD2*%
X111226000Y-121389600D03*
D18*
%TO.P,J4,SH3,SHIELD3*%
X102586000Y-117389600D03*
%TO.P,J4,SH4,SHIELD4*%
X111226000Y-117389600D03*
%TD*%
D15*
%TO.P,J3,1,Pin_1*%
%TO.N,/VBUS*%
X160401000Y-88550000D03*
D16*
%TO.P,J3,2,Pin_2*%
%TO.N,Net-(J3-Pin_2)*%
X160401000Y-86550000D03*
%TO.P,J3,3,Pin_3*%
%TO.N,Net-(J3-Pin_3)*%
X160401000Y-84550000D03*
%TO.P,J3,4,Pin_4*%
%TO.N,GND*%
X160401000Y-82550000D03*
%TD*%
D19*
%TO.N,GND*%
X115874800Y-109347000D03*
X139979400Y-115468400D03*
X89484200Y-97586800D03*
X119786400Y-109245400D03*
X166827200Y-93243400D03*
X146837400Y-119583200D03*
X151968200Y-116865400D03*
X137050525Y-120577184D03*
X130200400Y-111937800D03*
X156083000Y-105714800D03*
X165328600Y-103936800D03*
X103708200Y-117906800D03*
%TO.N,/VBUS*%
X109093000Y-118364000D03*
X163957000Y-117424200D03*
X104501625Y-117804423D03*
X150825200Y-108153200D03*
X162661600Y-110337600D03*
X153822400Y-120751600D03*
X104419400Y-115366800D03*
X141516100Y-111086900D03*
X119481600Y-112725200D03*
X161239200Y-106854800D03*
X163068000Y-121666000D03*
X150571200Y-113842800D03*
%TO.N,+5V*%
X134645400Y-116154200D03*
X88493600Y-104165400D03*
X93472000Y-117957600D03*
X90373200Y-114020600D03*
X133197600Y-121158000D03*
%TO.N,/ESP_EN*%
X107823000Y-103784400D03*
X113614200Y-95504000D03*
%TO.N,+3.3V*%
X111506000Y-93065600D03*
X119405400Y-92456000D03*
X147218400Y-98958400D03*
X98679000Y-101981000D03*
X142544800Y-111633000D03*
%TO.N,Net-(J3-Pin_2)*%
X136753600Y-100380800D03*
%TO.N,Net-(J3-Pin_3)*%
X139776200Y-97688400D03*
%TO.N,/USB_DN*%
X139975121Y-111577921D03*
X106177038Y-115627218D03*
%TO.N,/USB_DP*%
X106527600Y-114179800D03*
X139374079Y-110976879D03*
%TO.N,/RTS*%
X125476000Y-107188000D03*
X148005800Y-107188000D03*
%TO.N,Net-(U2-~{STDBY})*%
X162509200Y-115265200D03*
X162468000Y-119557800D03*
%TO.N,Net-(U4-IO35)*%
X114427000Y-98018600D03*
X114985800Y-95275400D03*
%TD*%
D20*
%TO.N,GND*%
X157861000Y-103936800D02*
X156083000Y-105714800D01*
X166827200Y-88976200D02*
X166827200Y-93243400D01*
X160401000Y-82550000D02*
X166827200Y-88976200D01*
X115874800Y-109347000D02*
X110298325Y-109347000D01*
X110298325Y-109347000D02*
X105359200Y-114286125D01*
X119786400Y-109245400D02*
X122478800Y-111937800D01*
X105359200Y-114286125D02*
X105359200Y-115884773D01*
X103708200Y-117535773D02*
X103708200Y-117906800D01*
X137050525Y-118397275D02*
X137050525Y-120577184D01*
X91666200Y-88420200D02*
X89484200Y-90602200D01*
X165328600Y-103936800D02*
X157861000Y-103936800D01*
X122478800Y-111937800D02*
X130200400Y-111937800D01*
X149250400Y-119583200D02*
X146837400Y-119583200D01*
X111226000Y-118338600D02*
X111226000Y-121389600D01*
X110184600Y-119380000D02*
X111226000Y-118338600D01*
X151968200Y-116865400D02*
X149250400Y-119583200D01*
X111226000Y-117389600D02*
X111226000Y-118338600D01*
X103708200Y-118719600D02*
X104368600Y-119380000D01*
X89484200Y-90602200D02*
X89484200Y-97586800D01*
X105359200Y-115884773D02*
X103708200Y-117535773D01*
X103708200Y-117906800D02*
X103708200Y-118719600D01*
X139979400Y-115468400D02*
X137050525Y-118397275D01*
X102586000Y-117389600D02*
X102586000Y-121389600D01*
X104368600Y-119380000D02*
X110184600Y-119380000D01*
D21*
%TO.N,/VBUS*%
X140629820Y-110200620D02*
X139300395Y-110200620D01*
X105061202Y-118364000D02*
X109093000Y-118364000D01*
X150825200Y-108153200D02*
X150825200Y-113588800D01*
X136775815Y-112725200D02*
X119481600Y-112725200D01*
X150571200Y-113842800D02*
X153822400Y-117094000D01*
X150825200Y-113588800D02*
X150571200Y-113842800D01*
X98078000Y-88832000D02*
X98078000Y-109025400D01*
X162661600Y-108277200D02*
X162661600Y-110337600D01*
X153822400Y-117094000D02*
X153822400Y-120751600D01*
X104501625Y-117804423D02*
X105061202Y-118364000D01*
X139300395Y-110200620D02*
X136775815Y-112725200D01*
X161239200Y-106854800D02*
X162661600Y-108277200D01*
X163068000Y-118313200D02*
X163957000Y-117424200D01*
X163068000Y-121666000D02*
X163068000Y-118313200D01*
X141516100Y-111086900D02*
X140629820Y-110200620D01*
X98078000Y-109025400D02*
X104419400Y-115366800D01*
X91666200Y-82420200D02*
X98078000Y-88832000D01*
D22*
%TO.N,+5V*%
X93472000Y-117119400D02*
X90373200Y-114020600D01*
X88493600Y-104165400D02*
X90373200Y-106045000D01*
X134645400Y-119710200D02*
X133197600Y-121158000D01*
X134645400Y-116154200D02*
X134645400Y-119710200D01*
X93472000Y-117957600D02*
X93472000Y-117119400D01*
X90373200Y-106045000D02*
X90373200Y-114020600D01*
D21*
%TO.N,/ESP_EN*%
X113614200Y-97993200D02*
X107823000Y-103784400D01*
X113614200Y-95504000D02*
X113614200Y-97993200D01*
D23*
%TO.N,+3.3V*%
X143978200Y-102198600D02*
X148656800Y-106877200D01*
X144481454Y-111633000D02*
X142544800Y-111633000D01*
D20*
X125766475Y-92456000D02*
X135509075Y-102198600D01*
X135509075Y-102198600D02*
X143978200Y-102198600D01*
X143978200Y-102198600D02*
X147218400Y-98958400D01*
X119405400Y-92456000D02*
X125766475Y-92456000D01*
X102590600Y-101981000D02*
X111506000Y-93065600D01*
D23*
X148656800Y-106877200D02*
X148656800Y-107457654D01*
D20*
X98679000Y-101981000D02*
X102590600Y-101981000D01*
D23*
X148656800Y-107457654D02*
X144481454Y-111633000D01*
D21*
%TO.N,Net-(J3-Pin_2)*%
X158228800Y-88722200D02*
X160401000Y-86550000D01*
X136626600Y-100253800D02*
X136626600Y-88722200D01*
X136753600Y-100380800D02*
X136626600Y-100253800D01*
X136626600Y-88722200D02*
X158228800Y-88722200D01*
%TO.N,Net-(J3-Pin_3)*%
X161377000Y-85526000D02*
X161377000Y-89526000D01*
X161377000Y-89526000D02*
X153214600Y-97688400D01*
X153214600Y-97688400D02*
X139776200Y-97688400D01*
X160401000Y-84550000D02*
X161377000Y-85526000D01*
%TO.N,/USB_DN*%
X106197400Y-114985800D02*
X106197400Y-115606856D01*
X106197400Y-114985800D02*
X107156599Y-114985800D01*
X136440398Y-114829801D02*
X139692278Y-111577921D01*
X106197400Y-115606856D02*
X106177038Y-115627218D01*
X139692278Y-111577921D02*
X139975121Y-111577921D01*
X107312598Y-114829801D02*
X136440398Y-114829801D01*
X107156599Y-114985800D02*
X107312598Y-114829801D01*
%TO.N,/USB_DP*%
X136254002Y-114379799D02*
X106727599Y-114379799D01*
X139374079Y-110976879D02*
X139374079Y-111259722D01*
X139374079Y-111259722D02*
X136254002Y-114379799D01*
X106727599Y-114379799D02*
X106527600Y-114179800D01*
%TO.N,/RTS*%
X125476000Y-107188000D02*
X148005800Y-107188000D01*
%TO.N,Net-(U2-~{STDBY})*%
X162509200Y-115265200D02*
X162509200Y-119516600D01*
X162509200Y-119516600D02*
X162468000Y-119557800D01*
%TO.N,Net-(U4-IO35)*%
X114427000Y-95834200D02*
X114985800Y-95275400D01*
X114427000Y-98018600D02*
X114427000Y-95834200D01*
%TD*%
%TA.AperFunction,Conductor*%
%TO.N,GND*%
G36*
X168098688Y-79392903D02*
G01*
X168157631Y-79392900D01*
X168171495Y-79393678D01*
X168261814Y-79403848D01*
X168288874Y-79410021D01*
X168368056Y-79437714D01*
X168393066Y-79449752D01*
X168464101Y-79494364D01*
X168485808Y-79511665D01*
X168545142Y-79570963D01*
X168562456Y-79592660D01*
X168607109Y-79663666D01*
X168619164Y-79688671D01*
X168646903Y-79767833D01*
X168653092Y-79794891D01*
X168663270Y-79884800D01*
X168664057Y-79898678D01*
X168688548Y-123391374D01*
X168668901Y-123458425D01*
X168616123Y-123504209D01*
X168564584Y-123515444D01*
X84164784Y-123539954D01*
X84097739Y-123520289D01*
X84051969Y-123467498D01*
X84040748Y-123416024D01*
X84040491Y-122959462D01*
X84038595Y-119588911D01*
X86033500Y-119588911D01*
X86033500Y-119831488D01*
X86065161Y-120071985D01*
X86127947Y-120306304D01*
X86220773Y-120530405D01*
X86220777Y-120530414D01*
X86242974Y-120568861D01*
X86342064Y-120740489D01*
X86342066Y-120740492D01*
X86342067Y-120740493D01*
X86489733Y-120932936D01*
X86489739Y-120932943D01*
X86661256Y-121104460D01*
X86661263Y-121104466D01*
X86728047Y-121155711D01*
X86853711Y-121252136D01*
X87063788Y-121373424D01*
X87206406Y-121432498D01*
X87275191Y-121460990D01*
X87287900Y-121466254D01*
X87522211Y-121529038D01*
X87697380Y-121552099D01*
X87762711Y-121560700D01*
X87762712Y-121560700D01*
X88005289Y-121560700D01*
X88053388Y-121554367D01*
X88245789Y-121529038D01*
X88480100Y-121466254D01*
X88704212Y-121373424D01*
X88914289Y-121252136D01*
X89106738Y-121104465D01*
X89278265Y-120932938D01*
X89425936Y-120740489D01*
X89454448Y-120691104D01*
X101586000Y-120691104D01*
X101586000Y-121139600D01*
X102286000Y-121139600D01*
X102286000Y-121639600D01*
X101586000Y-121639600D01*
X101586000Y-122088095D01*
X101624427Y-122281281D01*
X101624430Y-122281293D01*
X101699807Y-122463271D01*
X101699814Y-122463284D01*
X101809248Y-122627062D01*
X101809251Y-122627066D01*
X101948533Y-122766348D01*
X101948537Y-122766351D01*
X102112315Y-122875785D01*
X102112328Y-122875792D01*
X102294308Y-122951169D01*
X102336000Y-122959462D01*
X102336000Y-122156588D01*
X102345940Y-122173805D01*
X102401795Y-122229660D01*
X102470204Y-122269156D01*
X102546504Y-122289600D01*
X102625496Y-122289600D01*
X102701796Y-122269156D01*
X102770205Y-122229660D01*
X102826060Y-122173805D01*
X102836000Y-122156588D01*
X102836000Y-122959462D01*
X102877690Y-122951169D01*
X102877692Y-122951169D01*
X103059671Y-122875792D01*
X103059684Y-122875785D01*
X103223462Y-122766351D01*
X103223466Y-122766348D01*
X103362748Y-122627066D01*
X103362751Y-122627062D01*
X103472185Y-122463284D01*
X103472192Y-122463271D01*
X103547569Y-122281293D01*
X103547572Y-122281281D01*
X103585999Y-122088095D01*
X103586000Y-122088092D01*
X103586000Y-121639600D01*
X102886000Y-121639600D01*
X102886000Y-121139600D01*
X103586000Y-121139600D01*
X103586000Y-120691108D01*
X103585999Y-120691104D01*
X110226000Y-120691104D01*
X110226000Y-121139600D01*
X110926000Y-121139600D01*
X110926000Y-121639600D01*
X110226000Y-121639600D01*
X110226000Y-122088095D01*
X110264427Y-122281281D01*
X110264430Y-122281293D01*
X110339807Y-122463271D01*
X110339814Y-122463284D01*
X110449248Y-122627062D01*
X110449251Y-122627066D01*
X110588533Y-122766348D01*
X110588537Y-122766351D01*
X110752315Y-122875785D01*
X110752328Y-122875792D01*
X110934308Y-122951169D01*
X110976000Y-122959462D01*
X110976000Y-122156588D01*
X110985940Y-122173805D01*
X111041795Y-122229660D01*
X111110204Y-122269156D01*
X111186504Y-122289600D01*
X111265496Y-122289600D01*
X111341796Y-122269156D01*
X111410205Y-122229660D01*
X111466060Y-122173805D01*
X111476000Y-122156588D01*
X111476000Y-122959462D01*
X111517690Y-122951169D01*
X111517692Y-122951169D01*
X111699671Y-122875792D01*
X111699684Y-122875785D01*
X111863462Y-122766351D01*
X111863466Y-122766348D01*
X112002748Y-122627066D01*
X112002751Y-122627062D01*
X112112185Y-122463284D01*
X112112192Y-122463271D01*
X112187569Y-122281293D01*
X112187572Y-122281281D01*
X112225999Y-122088095D01*
X112226000Y-122088092D01*
X112226000Y-121639600D01*
X111526000Y-121639600D01*
X111526000Y-121139600D01*
X112226000Y-121139600D01*
X112226000Y-120691108D01*
X112225999Y-120691104D01*
X112187572Y-120497918D01*
X112187569Y-120497906D01*
X112112192Y-120315928D01*
X112112185Y-120315915D01*
X112002751Y-120152137D01*
X112002748Y-120152133D01*
X111863466Y-120012851D01*
X111863462Y-120012848D01*
X111842670Y-119998955D01*
X118175200Y-119998955D01*
X118175200Y-120450800D01*
X119013514Y-120450800D01*
X119009120Y-120455194D01*
X118956459Y-120546406D01*
X118929200Y-120648139D01*
X118929200Y-120753461D01*
X118956459Y-120855194D01*
X119009120Y-120946406D01*
X119013514Y-120950800D01*
X118175200Y-120950800D01*
X118175200Y-121402644D01*
X118181601Y-121462172D01*
X118181603Y-121462179D01*
X118231845Y-121596886D01*
X118231849Y-121596893D01*
X118318009Y-121711987D01*
X118318012Y-121711990D01*
X118433106Y-121798150D01*
X118433113Y-121798154D01*
X118567820Y-121848396D01*
X118567827Y-121848398D01*
X118627355Y-121854799D01*
X118627372Y-121854800D01*
X119079200Y-121854800D01*
X119079200Y-121016486D01*
X119083594Y-121020880D01*
X119174806Y-121073541D01*
X119276539Y-121100800D01*
X119381861Y-121100800D01*
X119483594Y-121073541D01*
X119574806Y-121020880D01*
X119579200Y-121016486D01*
X119579200Y-121854800D01*
X120031028Y-121854800D01*
X120031044Y-121854799D01*
X120090572Y-121848398D01*
X120090579Y-121848396D01*
X120225286Y-121798154D01*
X120225293Y-121798150D01*
X120340386Y-121711990D01*
X120413838Y-121613873D01*
X120469772Y-121572002D01*
X120539464Y-121567018D01*
X120585987Y-121587864D01*
X120724110Y-121688217D01*
X120886026Y-121770717D01*
X120886028Y-121770718D01*
X121047229Y-121823094D01*
X121058854Y-121826872D01*
X121238339Y-121855300D01*
X121238340Y-121855300D01*
X121420060Y-121855300D01*
X121420061Y-121855300D01*
X121599546Y-121826872D01*
X121599549Y-121826871D01*
X121599550Y-121826871D01*
X121772371Y-121770718D01*
X121772371Y-121770717D01*
X121772374Y-121770717D01*
X121934290Y-121688217D01*
X122081306Y-121581403D01*
X122209803Y-121452906D01*
X122316617Y-121305890D01*
X122399117Y-121143974D01*
X122455272Y-120971146D01*
X122483700Y-120791661D01*
X122483700Y-120609939D01*
X122455272Y-120430454D01*
X122455271Y-120430450D01*
X122455271Y-120430449D01*
X122399118Y-120257628D01*
X122399116Y-120257625D01*
X122390506Y-120240725D01*
X122316617Y-120095710D01*
X122209803Y-119948694D01*
X122081306Y-119820197D01*
X121934290Y-119713383D01*
X121772374Y-119630883D01*
X121772371Y-119630881D01*
X121599548Y-119574728D01*
X121463644Y-119553203D01*
X121420061Y-119546300D01*
X121238339Y-119546300D01*
X121194756Y-119553203D01*
X121058852Y-119574728D01*
X121058849Y-119574728D01*
X120886028Y-119630881D01*
X120886025Y-119630883D01*
X120724109Y-119713383D01*
X120585991Y-119813733D01*
X120520184Y-119837213D01*
X120452130Y-119821388D01*
X120413839Y-119787727D01*
X120340387Y-119689609D01*
X120225293Y-119603449D01*
X120225286Y-119603445D01*
X120090579Y-119553203D01*
X120090572Y-119553201D01*
X120031044Y-119546800D01*
X119579200Y-119546800D01*
X119579200Y-120385114D01*
X119574806Y-120380720D01*
X119483594Y-120328059D01*
X119381861Y-120300800D01*
X119276539Y-120300800D01*
X119174806Y-120328059D01*
X119083594Y-120380720D01*
X119079200Y-120385114D01*
X119079200Y-119546800D01*
X118627355Y-119546800D01*
X118567827Y-119553201D01*
X118567820Y-119553203D01*
X118433113Y-119603445D01*
X118433106Y-119603449D01*
X118318012Y-119689609D01*
X118318009Y-119689612D01*
X118231849Y-119804706D01*
X118231845Y-119804713D01*
X118181603Y-119939420D01*
X118181601Y-119939427D01*
X118175200Y-119998955D01*
X111842670Y-119998955D01*
X111699684Y-119903414D01*
X111699671Y-119903407D01*
X111517691Y-119828029D01*
X111517683Y-119828027D01*
X111476000Y-119819735D01*
X111476000Y-120622611D01*
X111466060Y-120605395D01*
X111410205Y-120549540D01*
X111341796Y-120510044D01*
X111265496Y-120489600D01*
X111186504Y-120489600D01*
X111110204Y-120510044D01*
X111041795Y-120549540D01*
X110985940Y-120605395D01*
X110976000Y-120622611D01*
X110976000Y-119819736D01*
X110975999Y-119819735D01*
X110934316Y-119828027D01*
X110934308Y-119828029D01*
X110752328Y-119903407D01*
X110752315Y-119903414D01*
X110588537Y-120012848D01*
X110588533Y-120012851D01*
X110449251Y-120152133D01*
X110449248Y-120152137D01*
X110339814Y-120315915D01*
X110339807Y-120315928D01*
X110264430Y-120497906D01*
X110264427Y-120497918D01*
X110226000Y-120691104D01*
X103585999Y-120691104D01*
X103547572Y-120497918D01*
X103547569Y-120497906D01*
X103472192Y-120315928D01*
X103472185Y-120315915D01*
X103362751Y-120152137D01*
X103362748Y-120152133D01*
X103223466Y-120012851D01*
X103223462Y-120012848D01*
X103059684Y-119903414D01*
X103059671Y-119903407D01*
X102877691Y-119828029D01*
X102877683Y-119828027D01*
X102836000Y-119819735D01*
X102836000Y-120622611D01*
X102826060Y-120605395D01*
X102770205Y-120549540D01*
X102701796Y-120510044D01*
X102625496Y-120489600D01*
X102546504Y-120489600D01*
X102470204Y-120510044D01*
X102401795Y-120549540D01*
X102345940Y-120605395D01*
X102336000Y-120622611D01*
X102336000Y-119819736D01*
X102335999Y-119819735D01*
X102294316Y-119828027D01*
X102294308Y-119828029D01*
X102112328Y-119903407D01*
X102112315Y-119903414D01*
X101948537Y-120012848D01*
X101948533Y-120012851D01*
X101809251Y-120152133D01*
X101809248Y-120152137D01*
X101699814Y-120315915D01*
X101699807Y-120315928D01*
X101624430Y-120497906D01*
X101624427Y-120497918D01*
X101586000Y-120691104D01*
X89454448Y-120691104D01*
X89547224Y-120530412D01*
X89640054Y-120306300D01*
X89702838Y-120071989D01*
X89734500Y-119831488D01*
X89734500Y-119588912D01*
X89702838Y-119348411D01*
X89640054Y-119114100D01*
X89547224Y-118889988D01*
X89425936Y-118679911D01*
X89278265Y-118487462D01*
X89278260Y-118487456D01*
X89106743Y-118315939D01*
X89106736Y-118315933D01*
X88914293Y-118168267D01*
X88914292Y-118168266D01*
X88914289Y-118168264D01*
X88704212Y-118046976D01*
X88682349Y-118037920D01*
X88480104Y-117954147D01*
X88245785Y-117891361D01*
X88005289Y-117859700D01*
X88005288Y-117859700D01*
X87762712Y-117859700D01*
X87762711Y-117859700D01*
X87522214Y-117891361D01*
X87287895Y-117954147D01*
X87063794Y-118046973D01*
X87063785Y-118046977D01*
X86853706Y-118168267D01*
X86661263Y-118315933D01*
X86661256Y-118315939D01*
X86489739Y-118487456D01*
X86489733Y-118487463D01*
X86342067Y-118679906D01*
X86220777Y-118889985D01*
X86220773Y-118889994D01*
X86127947Y-119114095D01*
X86065161Y-119348414D01*
X86033500Y-119588911D01*
X84038595Y-119588911D01*
X84029872Y-104086553D01*
X87693100Y-104086553D01*
X87693100Y-104244246D01*
X87723861Y-104398889D01*
X87723864Y-104398901D01*
X87784202Y-104544572D01*
X87784209Y-104544585D01*
X87871810Y-104675688D01*
X87871813Y-104675692D01*
X89536381Y-106340259D01*
X89569866Y-106401582D01*
X89572700Y-106427940D01*
X89572700Y-114099446D01*
X89603461Y-114254089D01*
X89603464Y-114254101D01*
X89663802Y-114399772D01*
X89663809Y-114399785D01*
X89751410Y-114530888D01*
X89751413Y-114530892D01*
X92635181Y-117414659D01*
X92668666Y-117475982D01*
X92671500Y-117502340D01*
X92671500Y-118036446D01*
X92702261Y-118191089D01*
X92702264Y-118191101D01*
X92762602Y-118336772D01*
X92762609Y-118336785D01*
X92850210Y-118467888D01*
X92850213Y-118467892D01*
X92961707Y-118579386D01*
X92961711Y-118579389D01*
X93092814Y-118666990D01*
X93092827Y-118666997D01*
X93238498Y-118727335D01*
X93238503Y-118727337D01*
X93358314Y-118751169D01*
X93393153Y-118758099D01*
X93393156Y-118758100D01*
X93393158Y-118758100D01*
X93550844Y-118758100D01*
X93550845Y-118758099D01*
X93705497Y-118727337D01*
X93829939Y-118675792D01*
X93851172Y-118666997D01*
X93851172Y-118666996D01*
X93851179Y-118666994D01*
X93982289Y-118579389D01*
X94093789Y-118467889D01*
X94181394Y-118336779D01*
X94241737Y-118191097D01*
X94272500Y-118036442D01*
X94272500Y-117040558D01*
X94272500Y-117040555D01*
X94246373Y-116909209D01*
X94246373Y-116909208D01*
X94242772Y-116891108D01*
X94242771Y-116891104D01*
X101586000Y-116891104D01*
X101586000Y-117139600D01*
X102286000Y-117139600D01*
X102286000Y-117639600D01*
X101586000Y-117639600D01*
X101586000Y-117888095D01*
X101624427Y-118081281D01*
X101624430Y-118081293D01*
X101699807Y-118263271D01*
X101699814Y-118263284D01*
X101809248Y-118427062D01*
X101809251Y-118427066D01*
X101948533Y-118566348D01*
X101948537Y-118566351D01*
X102112315Y-118675785D01*
X102112328Y-118675792D01*
X102294308Y-118751169D01*
X102336000Y-118759462D01*
X102336000Y-117956588D01*
X102345940Y-117973805D01*
X102401795Y-118029660D01*
X102470204Y-118069156D01*
X102546504Y-118089600D01*
X102625496Y-118089600D01*
X102701796Y-118069156D01*
X102770205Y-118029660D01*
X102826060Y-117973805D01*
X102836000Y-117956588D01*
X102836000Y-118759462D01*
X102877690Y-118751169D01*
X102877692Y-118751169D01*
X103059671Y-118675792D01*
X103059684Y-118675785D01*
X103223462Y-118566351D01*
X103223466Y-118566348D01*
X103362748Y-118427066D01*
X103362751Y-118427062D01*
X103472185Y-118263284D01*
X103472192Y-118263271D01*
X103534150Y-118113690D01*
X103577990Y-118059286D01*
X103644284Y-118037221D01*
X103711984Y-118054500D01*
X103759595Y-118105637D01*
X103763272Y-118113689D01*
X103792229Y-118183599D01*
X103792234Y-118183608D01*
X103879835Y-118314711D01*
X103879838Y-118314715D01*
X103991332Y-118426209D01*
X103991336Y-118426212D01*
X104122439Y-118513813D01*
X104122452Y-118513820D01*
X104238614Y-118561935D01*
X104268128Y-118574160D01*
X104332772Y-118587018D01*
X104423474Y-118605061D01*
X104440230Y-118613825D01*
X104458710Y-118617846D01*
X104483748Y-118636590D01*
X104485385Y-118637446D01*
X104486964Y-118638997D01*
X104576341Y-118728374D01*
X104576351Y-118728385D01*
X104580681Y-118732715D01*
X104580682Y-118732716D01*
X104692486Y-118844520D01*
X104692488Y-118844521D01*
X104692492Y-118844524D01*
X104771250Y-118889994D01*
X104829418Y-118923577D01*
X104941221Y-118953534D01*
X104982144Y-118964500D01*
X104982145Y-118964500D01*
X108513234Y-118964500D01*
X108580273Y-118984185D01*
X108582125Y-118985398D01*
X108713814Y-119073390D01*
X108713827Y-119073397D01*
X108859498Y-119133735D01*
X108859503Y-119133737D01*
X109014153Y-119164499D01*
X109014156Y-119164500D01*
X109014158Y-119164500D01*
X109171844Y-119164500D01*
X109171845Y-119164499D01*
X109326497Y-119133737D01*
X109472179Y-119073394D01*
X109603289Y-118985789D01*
X109714789Y-118874289D01*
X109802394Y-118743179D01*
X109862737Y-118597497D01*
X109893500Y-118442842D01*
X109893500Y-118285158D01*
X109893500Y-118285155D01*
X109893499Y-118285153D01*
X109881591Y-118225289D01*
X109862737Y-118130503D01*
X109855773Y-118113690D01*
X109802397Y-117984827D01*
X109802390Y-117984814D01*
X109714789Y-117853711D01*
X109714786Y-117853707D01*
X109603292Y-117742213D01*
X109603288Y-117742210D01*
X109527156Y-117691340D01*
X109472185Y-117654609D01*
X109472172Y-117654602D01*
X109326501Y-117594264D01*
X109326489Y-117594261D01*
X109171845Y-117563500D01*
X109171842Y-117563500D01*
X109014158Y-117563500D01*
X109014155Y-117563500D01*
X108859510Y-117594261D01*
X108859498Y-117594264D01*
X108713827Y-117654602D01*
X108713814Y-117654609D01*
X108582125Y-117742602D01*
X108515447Y-117763480D01*
X108513234Y-117763500D01*
X105411432Y-117763500D01*
X105344393Y-117743815D01*
X105298638Y-117691011D01*
X105289815Y-117663692D01*
X105271363Y-117570931D01*
X105271362Y-117570930D01*
X105271362Y-117570926D01*
X105268101Y-117563052D01*
X105211022Y-117425250D01*
X105211015Y-117425237D01*
X105123414Y-117294134D01*
X105123411Y-117294130D01*
X105011917Y-117182636D01*
X105011913Y-117182633D01*
X104880810Y-117095032D01*
X104880797Y-117095025D01*
X104735126Y-117034687D01*
X104735114Y-117034684D01*
X104594099Y-117006634D01*
X104594098Y-117006634D01*
X104580469Y-117003923D01*
X104580467Y-117003923D01*
X104422783Y-117003923D01*
X104422780Y-117003923D01*
X104268135Y-117034684D01*
X104268123Y-117034687D01*
X104122452Y-117095025D01*
X104122439Y-117095032D01*
X103991336Y-117182633D01*
X103991332Y-117182636D01*
X103879838Y-117294130D01*
X103879835Y-117294134D01*
X103792234Y-117425237D01*
X103792227Y-117425250D01*
X103735149Y-117563052D01*
X103691308Y-117617456D01*
X103625014Y-117639521D01*
X103620588Y-117639600D01*
X102886000Y-117639600D01*
X102886000Y-117139600D01*
X103586000Y-117139600D01*
X103586000Y-116891108D01*
X103585999Y-116891104D01*
X110226000Y-116891104D01*
X110226000Y-117139600D01*
X110926000Y-117139600D01*
X110926000Y-117639600D01*
X110226000Y-117639600D01*
X110226000Y-117888095D01*
X110264427Y-118081281D01*
X110264430Y-118081293D01*
X110339807Y-118263271D01*
X110339814Y-118263284D01*
X110449248Y-118427062D01*
X110449251Y-118427066D01*
X110588533Y-118566348D01*
X110588537Y-118566351D01*
X110752315Y-118675785D01*
X110752328Y-118675792D01*
X110934308Y-118751169D01*
X110976000Y-118759462D01*
X110976000Y-117956588D01*
X110985940Y-117973805D01*
X111041795Y-118029660D01*
X111110204Y-118069156D01*
X111186504Y-118089600D01*
X111265496Y-118089600D01*
X111341796Y-118069156D01*
X111410205Y-118029660D01*
X111466060Y-117973805D01*
X111476000Y-117956588D01*
X111476000Y-118759462D01*
X111517690Y-118751169D01*
X111517692Y-118751169D01*
X111699671Y-118675792D01*
X111699684Y-118675785D01*
X111863462Y-118566351D01*
X111863466Y-118566348D01*
X112002748Y-118427066D01*
X112002751Y-118427062D01*
X112112185Y-118263284D01*
X112112192Y-118263271D01*
X112187569Y-118081293D01*
X112187572Y-118081281D01*
X112225999Y-117888095D01*
X112226000Y-117888092D01*
X112226000Y-117639600D01*
X111526000Y-117639600D01*
X111526000Y-117139600D01*
X112226000Y-117139600D01*
X112226000Y-116891108D01*
X112225999Y-116891104D01*
X112187572Y-116697918D01*
X112187569Y-116697906D01*
X112112192Y-116515928D01*
X112112185Y-116515915D01*
X112002751Y-116352137D01*
X112002748Y-116352133D01*
X111863466Y-116212851D01*
X111863462Y-116212848D01*
X111699684Y-116103414D01*
X111699671Y-116103407D01*
X111517691Y-116028029D01*
X111517683Y-116028027D01*
X111476000Y-116019735D01*
X111476000Y-116822611D01*
X111466060Y-116805395D01*
X111410205Y-116749540D01*
X111341796Y-116710044D01*
X111265496Y-116689600D01*
X111186504Y-116689600D01*
X111110204Y-116710044D01*
X111041795Y-116749540D01*
X110985940Y-116805395D01*
X110976000Y-116822611D01*
X110976000Y-116019736D01*
X110975999Y-116019735D01*
X110934316Y-116028027D01*
X110934308Y-116028029D01*
X110752328Y-116103407D01*
X110752315Y-116103414D01*
X110588537Y-116212848D01*
X110588533Y-116212851D01*
X110449251Y-116352133D01*
X110449248Y-116352137D01*
X110339814Y-116515915D01*
X110339807Y-116515928D01*
X110264430Y-116697906D01*
X110264427Y-116697918D01*
X110226000Y-116891104D01*
X103585999Y-116891104D01*
X103547572Y-116697918D01*
X103547569Y-116697906D01*
X103472192Y-116515928D01*
X103472185Y-116515915D01*
X103362751Y-116352137D01*
X103362748Y-116352133D01*
X103223466Y-116212851D01*
X103223462Y-116212848D01*
X103059684Y-116103414D01*
X103059671Y-116103407D01*
X102877691Y-116028029D01*
X102877683Y-116028027D01*
X102836000Y-116019735D01*
X102836000Y-116822611D01*
X102826060Y-116805395D01*
X102770205Y-116749540D01*
X102701796Y-116710044D01*
X102625496Y-116689600D01*
X102546504Y-116689600D01*
X102470204Y-116710044D01*
X102401795Y-116749540D01*
X102345940Y-116805395D01*
X102336000Y-116822611D01*
X102336000Y-116019736D01*
X102335999Y-116019735D01*
X102294316Y-116028027D01*
X102294308Y-116028029D01*
X102112328Y-116103407D01*
X102112315Y-116103414D01*
X101948537Y-116212848D01*
X101948533Y-116212851D01*
X101809251Y-116352133D01*
X101809248Y-116352137D01*
X101699814Y-116515915D01*
X101699807Y-116515928D01*
X101624430Y-116697906D01*
X101624427Y-116697918D01*
X101586000Y-116891104D01*
X94242771Y-116891104D01*
X94241737Y-116885903D01*
X94237401Y-116875435D01*
X94181397Y-116740227D01*
X94181390Y-116740214D01*
X94093790Y-116609112D01*
X94093789Y-116609111D01*
X93982289Y-116497611D01*
X91210019Y-113725341D01*
X91176534Y-113664018D01*
X91173700Y-113637660D01*
X91173700Y-105966155D01*
X91173699Y-105966153D01*
X91142938Y-105811510D01*
X91142937Y-105811503D01*
X91142935Y-105811498D01*
X91082597Y-105665827D01*
X91082590Y-105665814D01*
X90994990Y-105534712D01*
X90994989Y-105534711D01*
X90883489Y-105423211D01*
X89954068Y-104493790D01*
X89003892Y-103543613D01*
X89003888Y-103543610D01*
X88872785Y-103456009D01*
X88872772Y-103456002D01*
X88727101Y-103395664D01*
X88727089Y-103395661D01*
X88572445Y-103364900D01*
X88572442Y-103364900D01*
X88414758Y-103364900D01*
X88414755Y-103364900D01*
X88260110Y-103395661D01*
X88260098Y-103395664D01*
X88114427Y-103456002D01*
X88114414Y-103456009D01*
X87983311Y-103543610D01*
X87983307Y-103543613D01*
X87871813Y-103655107D01*
X87871810Y-103655111D01*
X87784209Y-103786214D01*
X87784202Y-103786227D01*
X87723864Y-103931898D01*
X87723861Y-103931910D01*
X87693100Y-104086553D01*
X84029872Y-104086553D01*
X84027401Y-99694248D01*
X85338900Y-99694248D01*
X85338900Y-99898951D01*
X85370922Y-100101134D01*
X85434181Y-100295823D01*
X85527115Y-100478213D01*
X85647428Y-100643813D01*
X85792186Y-100788571D01*
X85933293Y-100891089D01*
X85957790Y-100908887D01*
X86074007Y-100968103D01*
X86140176Y-101001818D01*
X86140178Y-101001818D01*
X86140181Y-101001820D01*
X86244537Y-101035727D01*
X86334865Y-101065077D01*
X86435957Y-101081088D01*
X86537048Y-101097100D01*
X86537049Y-101097100D01*
X86741751Y-101097100D01*
X86741752Y-101097100D01*
X86943934Y-101065077D01*
X87138619Y-101001820D01*
X87321010Y-100908887D01*
X87413990Y-100841332D01*
X87486613Y-100788571D01*
X87486615Y-100788568D01*
X87486619Y-100788566D01*
X87631366Y-100643819D01*
X87631368Y-100643815D01*
X87631371Y-100643813D01*
X87684132Y-100571190D01*
X87751687Y-100478210D01*
X87844620Y-100295819D01*
X87907877Y-100101134D01*
X87939900Y-99898952D01*
X87939900Y-99694248D01*
X87937262Y-99677590D01*
X87907877Y-99492065D01*
X87844618Y-99297376D01*
X87790869Y-99191889D01*
X87751687Y-99114990D01*
X87743956Y-99104349D01*
X87631371Y-98949386D01*
X87486613Y-98804628D01*
X87321013Y-98684315D01*
X87321012Y-98684314D01*
X87321010Y-98684313D01*
X87264053Y-98655291D01*
X87138623Y-98591381D01*
X86943934Y-98528122D01*
X86769395Y-98500478D01*
X86741752Y-98496100D01*
X86537048Y-98496100D01*
X86512729Y-98499951D01*
X86334865Y-98528122D01*
X86140176Y-98591381D01*
X85957786Y-98684315D01*
X85792186Y-98804628D01*
X85647428Y-98949386D01*
X85527115Y-99114986D01*
X85434181Y-99297376D01*
X85370922Y-99492065D01*
X85338900Y-99694248D01*
X84027401Y-99694248D01*
X84017275Y-81697335D01*
X90490700Y-81697335D01*
X90490700Y-83143070D01*
X90490701Y-83143076D01*
X90497108Y-83202683D01*
X90547402Y-83337528D01*
X90547406Y-83337535D01*
X90633652Y-83452744D01*
X90633653Y-83452744D01*
X90633654Y-83452746D01*
X90644174Y-83460621D01*
X90718739Y-83516441D01*
X90760609Y-83572375D01*
X90765593Y-83642067D01*
X90744745Y-83688592D01*
X90660824Y-83804100D01*
X90576820Y-83968964D01*
X90576819Y-83968967D01*
X90519645Y-84144934D01*
X90490700Y-84327686D01*
X90490700Y-84512713D01*
X90519645Y-84695465D01*
X90576819Y-84871432D01*
X90576820Y-84871435D01*
X90660822Y-85036296D01*
X90769579Y-85185987D01*
X90900413Y-85316821D01*
X90904621Y-85319878D01*
X90904632Y-85319886D01*
X90947294Y-85375219D01*
X90953269Y-85444833D01*
X90920659Y-85506626D01*
X90904632Y-85520514D01*
X90900410Y-85523581D01*
X90769581Y-85654410D01*
X90769581Y-85654411D01*
X90769579Y-85654413D01*
X90765098Y-85660581D01*
X90660822Y-85804103D01*
X90576820Y-85968964D01*
X90576819Y-85968967D01*
X90519645Y-86144934D01*
X90490700Y-86327686D01*
X90490700Y-86512713D01*
X90519645Y-86695465D01*
X90576819Y-86871432D01*
X90576820Y-86871435D01*
X90660822Y-87036296D01*
X90769579Y-87185987D01*
X90900413Y-87316821D01*
X90900416Y-87316823D01*
X90975031Y-87371034D01*
X90990006Y-87390454D01*
X91619754Y-88020200D01*
X91613539Y-88020200D01*
X91511806Y-88047459D01*
X91420594Y-88100120D01*
X91346120Y-88174594D01*
X91293459Y-88265806D01*
X91266200Y-88367539D01*
X91266200Y-88373753D01*
X90676215Y-87783768D01*
X90661249Y-87804367D01*
X90577284Y-87969156D01*
X90577283Y-87969159D01*
X90520133Y-88145052D01*
X90491200Y-88327726D01*
X90491200Y-88512673D01*
X90520133Y-88695347D01*
X90577283Y-88871240D01*
X90577284Y-88871243D01*
X90661250Y-89036034D01*
X90676215Y-89056630D01*
X90676216Y-89056631D01*
X91266200Y-88466647D01*
X91266200Y-88472861D01*
X91293459Y-88574594D01*
X91346120Y-88665806D01*
X91420594Y-88740280D01*
X91511806Y-88792941D01*
X91613539Y-88820200D01*
X91619753Y-88820200D01*
X91029768Y-89410183D01*
X91029768Y-89410184D01*
X91050365Y-89425149D01*
X91215156Y-89509115D01*
X91215159Y-89509116D01*
X91391052Y-89566266D01*
X91573727Y-89595200D01*
X91758673Y-89595200D01*
X91941347Y-89566266D01*
X92117240Y-89509116D01*
X92117243Y-89509115D01*
X92282036Y-89425147D01*
X92282045Y-89425142D01*
X92302630Y-89410184D01*
X92302631Y-89410183D01*
X91712648Y-88820200D01*
X91718861Y-88820200D01*
X91820594Y-88792941D01*
X91911806Y-88740280D01*
X91986280Y-88665806D01*
X92038941Y-88574594D01*
X92066200Y-88472861D01*
X92066200Y-88466648D01*
X92656183Y-89056631D01*
X92656184Y-89056630D01*
X92671142Y-89036045D01*
X92671147Y-89036036D01*
X92755115Y-88871243D01*
X92755116Y-88871240D01*
X92812266Y-88695347D01*
X92841200Y-88512673D01*
X92841200Y-88327726D01*
X92812266Y-88145052D01*
X92755116Y-87969159D01*
X92755115Y-87969156D01*
X92671149Y-87804365D01*
X92656183Y-87783768D01*
X92066200Y-88373751D01*
X92066200Y-88367539D01*
X92038941Y-88265806D01*
X91986280Y-88174594D01*
X91911806Y-88100120D01*
X91820594Y-88047459D01*
X91718861Y-88020200D01*
X91712647Y-88020200D01*
X92326875Y-87405971D01*
X92357365Y-87371036D01*
X92431987Y-87316821D01*
X92562821Y-87185987D01*
X92671578Y-87036296D01*
X92755579Y-86871435D01*
X92812755Y-86695464D01*
X92841700Y-86512714D01*
X92841700Y-86327686D01*
X92812755Y-86144936D01*
X92777081Y-86035141D01*
X92755580Y-85968967D01*
X92755579Y-85968964D01*
X92671577Y-85804103D01*
X92657126Y-85784213D01*
X92562821Y-85654413D01*
X92431987Y-85523579D01*
X92427776Y-85520519D01*
X92385109Y-85465194D01*
X92379126Y-85395581D01*
X92411729Y-85333785D01*
X92427770Y-85319884D01*
X92431987Y-85316821D01*
X92562821Y-85185987D01*
X92671578Y-85036296D01*
X92755579Y-84871435D01*
X92812755Y-84695464D01*
X92812894Y-84694585D01*
X92813040Y-84694276D01*
X92813891Y-84690733D01*
X92814634Y-84690911D01*
X92842810Y-84631450D01*
X92902115Y-84594508D01*
X92971978Y-84595493D01*
X93023050Y-84626285D01*
X97441181Y-89044416D01*
X97474666Y-89105739D01*
X97477500Y-89132097D01*
X97477500Y-108938730D01*
X97477499Y-108938748D01*
X97477499Y-109104454D01*
X97477498Y-109104454D01*
X97518423Y-109257185D01*
X97547358Y-109307300D01*
X97547359Y-109307304D01*
X97547360Y-109307304D01*
X97597479Y-109394114D01*
X97597481Y-109394117D01*
X97716349Y-109512985D01*
X97716355Y-109512990D01*
X103584825Y-115381460D01*
X103618310Y-115442783D01*
X103618761Y-115444949D01*
X103649661Y-115600291D01*
X103649664Y-115600301D01*
X103710002Y-115745972D01*
X103710009Y-115745985D01*
X103797610Y-115877088D01*
X103797613Y-115877092D01*
X103909107Y-115988586D01*
X103909111Y-115988589D01*
X104040214Y-116076190D01*
X104040227Y-116076197D01*
X104105919Y-116103407D01*
X104185903Y-116136537D01*
X104340553Y-116167299D01*
X104340556Y-116167300D01*
X104340558Y-116167300D01*
X104498244Y-116167300D01*
X104498245Y-116167299D01*
X104652897Y-116136537D01*
X104798579Y-116076194D01*
X104929689Y-115988589D01*
X105041189Y-115877089D01*
X105128794Y-115745979D01*
X105145097Y-115706619D01*
X105188936Y-115652216D01*
X105255230Y-115630150D01*
X105322929Y-115647428D01*
X105370541Y-115698564D01*
X105381275Y-115729879D01*
X105407299Y-115860709D01*
X105407302Y-115860719D01*
X105467640Y-116006390D01*
X105467647Y-116006403D01*
X105555248Y-116137506D01*
X105555251Y-116137510D01*
X105666745Y-116249004D01*
X105666749Y-116249007D01*
X105797852Y-116336608D01*
X105797865Y-116336615D01*
X105943536Y-116396953D01*
X105943541Y-116396955D01*
X106098191Y-116427717D01*
X106098194Y-116427718D01*
X106098196Y-116427718D01*
X106255882Y-116427718D01*
X106255883Y-116427717D01*
X106410535Y-116396955D01*
X106556217Y-116336612D01*
X106687327Y-116249007D01*
X106798827Y-116137507D01*
X106886432Y-116006397D01*
X106946775Y-115860715D01*
X106977538Y-115706060D01*
X106977538Y-115706053D01*
X106978135Y-115700000D01*
X106980494Y-115700232D01*
X106997223Y-115643262D01*
X107050027Y-115597507D01*
X107101538Y-115586301D01*
X107235653Y-115586301D01*
X107235656Y-115586301D01*
X107388384Y-115545377D01*
X107460570Y-115503700D01*
X107525315Y-115466320D01*
X107534841Y-115456793D01*
X107546595Y-115449388D01*
X107567379Y-115443487D01*
X107586338Y-115433135D01*
X107612696Y-115430301D01*
X133937858Y-115430301D01*
X134004897Y-115449986D01*
X134050652Y-115502790D01*
X134060596Y-115571948D01*
X134031571Y-115635504D01*
X134025539Y-115641982D01*
X134023613Y-115643907D01*
X134023610Y-115643911D01*
X133936009Y-115775014D01*
X133936002Y-115775027D01*
X133875664Y-115920698D01*
X133875661Y-115920710D01*
X133844900Y-116075353D01*
X133844900Y-119327259D01*
X133825215Y-119394298D01*
X133808581Y-119414940D01*
X132575813Y-120647707D01*
X132575810Y-120647711D01*
X132488209Y-120778814D01*
X132488202Y-120778827D01*
X132427864Y-120924498D01*
X132427861Y-120924510D01*
X132397100Y-121079153D01*
X132397100Y-121236846D01*
X132427861Y-121391489D01*
X132427864Y-121391501D01*
X132488202Y-121537172D01*
X132488209Y-121537185D01*
X132575810Y-121668288D01*
X132575813Y-121668292D01*
X132687307Y-121779786D01*
X132687311Y-121779789D01*
X132818414Y-121867390D01*
X132818427Y-121867397D01*
X132964098Y-121927735D01*
X132964103Y-121927737D01*
X133118753Y-121958499D01*
X133118756Y-121958500D01*
X133118758Y-121958500D01*
X133276444Y-121958500D01*
X133276445Y-121958499D01*
X133431097Y-121927737D01*
X133576779Y-121867394D01*
X133707889Y-121779789D01*
X135267188Y-120220490D01*
X135279971Y-120201359D01*
X135292037Y-120183302D01*
X135292037Y-120183301D01*
X135312863Y-120152133D01*
X135354794Y-120089379D01*
X135412071Y-119951100D01*
X135415137Y-119943698D01*
X135445900Y-119789043D01*
X135445900Y-119631358D01*
X135445900Y-116075358D01*
X135445900Y-116075355D01*
X135445899Y-116075353D01*
X135415137Y-115920703D01*
X135390291Y-115860719D01*
X135354797Y-115775027D01*
X135354790Y-115775014D01*
X135267189Y-115643911D01*
X135267186Y-115643907D01*
X135265261Y-115641982D01*
X135264574Y-115640724D01*
X135263324Y-115639201D01*
X135263612Y-115638963D01*
X135231776Y-115580659D01*
X135236760Y-115510967D01*
X135278632Y-115455034D01*
X135344096Y-115430617D01*
X135352942Y-115430301D01*
X136353729Y-115430301D01*
X136353745Y-115430302D01*
X136361341Y-115430302D01*
X136519452Y-115430302D01*
X136519455Y-115430302D01*
X136672183Y-115389378D01*
X136732565Y-115354516D01*
X136809114Y-115310321D01*
X136920918Y-115198517D01*
X136920918Y-115198515D01*
X136931122Y-115188312D01*
X136931125Y-115188307D01*
X138355480Y-113763953D01*
X149770700Y-113763953D01*
X149770700Y-113921646D01*
X149801461Y-114076289D01*
X149801464Y-114076301D01*
X149861802Y-114221972D01*
X149861809Y-114221985D01*
X149949410Y-114353088D01*
X149949413Y-114353092D01*
X150060907Y-114464586D01*
X150060911Y-114464589D01*
X150192014Y-114552190D01*
X150192027Y-114552197D01*
X150337698Y-114612535D01*
X150337703Y-114612537D01*
X150402347Y-114625395D01*
X150493049Y-114643438D01*
X150554960Y-114675823D01*
X150556539Y-114677374D01*
X153185581Y-117306416D01*
X153219066Y-117367739D01*
X153221900Y-117394097D01*
X153221900Y-120171834D01*
X153202215Y-120238873D01*
X153201002Y-120240725D01*
X153113009Y-120372414D01*
X153113002Y-120372427D01*
X153052664Y-120518098D01*
X153052661Y-120518110D01*
X153021900Y-120672753D01*
X153021900Y-120830446D01*
X153052661Y-120985089D01*
X153052664Y-120985101D01*
X153113002Y-121130772D01*
X153113009Y-121130785D01*
X153200610Y-121261888D01*
X153200613Y-121261892D01*
X153312107Y-121373386D01*
X153312111Y-121373389D01*
X153443214Y-121460990D01*
X153443227Y-121460997D01*
X153588898Y-121521335D01*
X153588903Y-121521337D01*
X153743553Y-121552099D01*
X153743556Y-121552100D01*
X153743558Y-121552100D01*
X153901244Y-121552100D01*
X153901245Y-121552099D01*
X154055897Y-121521337D01*
X154201579Y-121460994D01*
X154332689Y-121373389D01*
X154444189Y-121261889D01*
X154531794Y-121130779D01*
X154592137Y-120985097D01*
X154622900Y-120830442D01*
X154622900Y-120672758D01*
X154620398Y-120660178D01*
X154620398Y-120660177D01*
X157614775Y-120660177D01*
X157720036Y-120703778D01*
X157720040Y-120703779D01*
X157864926Y-120732599D01*
X157864929Y-120732600D01*
X158012671Y-120732600D01*
X158012673Y-120732599D01*
X158157560Y-120703779D01*
X158157575Y-120703775D01*
X158262824Y-120660178D01*
X158262824Y-120660177D01*
X159014775Y-120660177D01*
X159120036Y-120703778D01*
X159120040Y-120703779D01*
X159264926Y-120732599D01*
X159264929Y-120732600D01*
X159412671Y-120732600D01*
X159412673Y-120732599D01*
X159557560Y-120703779D01*
X159557575Y-120703775D01*
X159662824Y-120660178D01*
X159662824Y-120660177D01*
X159338801Y-120336154D01*
X159338800Y-120336154D01*
X159014775Y-120660177D01*
X158262824Y-120660177D01*
X157938801Y-120336154D01*
X157938800Y-120336154D01*
X157614775Y-120660177D01*
X154620398Y-120660177D01*
X154617091Y-120643553D01*
X154617091Y-120643550D01*
X154592138Y-120518108D01*
X154592137Y-120518107D01*
X154592137Y-120518103D01*
X154574551Y-120475647D01*
X154531797Y-120372427D01*
X154531790Y-120372414D01*
X154443798Y-120240725D01*
X154422920Y-120174047D01*
X154422900Y-120171834D01*
X154422900Y-119908726D01*
X157188800Y-119908726D01*
X157188800Y-120056473D01*
X157217620Y-120201359D01*
X157217622Y-120201367D01*
X157261221Y-120306624D01*
X157585246Y-119982600D01*
X157585246Y-119982599D01*
X157565356Y-119962709D01*
X157838800Y-119962709D01*
X157838800Y-120002491D01*
X157854024Y-120039245D01*
X157882155Y-120067376D01*
X157918909Y-120082600D01*
X157958691Y-120082600D01*
X157995445Y-120067376D01*
X158023576Y-120039245D01*
X158038800Y-120002491D01*
X158038800Y-119982599D01*
X158292354Y-119982599D01*
X158292354Y-119982601D01*
X158616729Y-120306976D01*
X158660869Y-120306976D01*
X158985246Y-119982600D01*
X158965355Y-119962709D01*
X159238800Y-119962709D01*
X159238800Y-120002491D01*
X159254024Y-120039245D01*
X159282155Y-120067376D01*
X159318909Y-120082600D01*
X159358691Y-120082600D01*
X159395445Y-120067376D01*
X159423576Y-120039245D01*
X159438800Y-120002491D01*
X159438800Y-119982599D01*
X159692354Y-119982599D01*
X159692354Y-119982601D01*
X160016377Y-120306624D01*
X160016378Y-120306624D01*
X160059975Y-120201375D01*
X160059979Y-120201360D01*
X160088799Y-120056473D01*
X160088800Y-120056471D01*
X160088800Y-119908728D01*
X160088799Y-119908726D01*
X160059979Y-119763840D01*
X160059978Y-119763836D01*
X160016377Y-119658575D01*
X159692354Y-119982599D01*
X159438800Y-119982599D01*
X159438800Y-119962709D01*
X159423576Y-119925955D01*
X159395445Y-119897824D01*
X159358691Y-119882600D01*
X159318909Y-119882600D01*
X159282155Y-119897824D01*
X159254024Y-119925955D01*
X159238800Y-119962709D01*
X158965355Y-119962709D01*
X158660868Y-119658222D01*
X158616730Y-119658222D01*
X158292354Y-119982599D01*
X158038800Y-119982599D01*
X158038800Y-119962709D01*
X158023576Y-119925955D01*
X157995445Y-119897824D01*
X157958691Y-119882600D01*
X157918909Y-119882600D01*
X157882155Y-119897824D01*
X157854024Y-119925955D01*
X157838800Y-119962709D01*
X157565356Y-119962709D01*
X157261221Y-119658574D01*
X157261220Y-119658574D01*
X157217623Y-119763828D01*
X157217620Y-119763840D01*
X157188800Y-119908726D01*
X154422900Y-119908726D01*
X154422900Y-119382600D01*
X157692354Y-119382600D01*
X157938800Y-119629046D01*
X158185246Y-119382600D01*
X159092354Y-119382600D01*
X159338800Y-119629046D01*
X159488893Y-119478953D01*
X161667500Y-119478953D01*
X161667500Y-119636646D01*
X161698261Y-119791289D01*
X161698264Y-119791301D01*
X161758602Y-119936972D01*
X161758609Y-119936985D01*
X161846210Y-120068088D01*
X161846213Y-120068092D01*
X161957707Y-120179586D01*
X161957711Y-120179589D01*
X162088814Y-120267190D01*
X162088827Y-120267197D01*
X162206476Y-120315928D01*
X162234503Y-120327537D01*
X162344987Y-120349513D01*
X162367691Y-120354030D01*
X162429602Y-120386415D01*
X162464176Y-120447130D01*
X162467500Y-120475647D01*
X162467500Y-121086234D01*
X162447815Y-121153273D01*
X162446602Y-121155125D01*
X162358609Y-121286814D01*
X162358602Y-121286827D01*
X162298264Y-121432498D01*
X162298261Y-121432510D01*
X162267500Y-121587153D01*
X162267500Y-121744846D01*
X162298261Y-121899489D01*
X162298264Y-121899501D01*
X162358602Y-122045172D01*
X162358609Y-122045185D01*
X162446210Y-122176288D01*
X162446213Y-122176292D01*
X162557707Y-122287786D01*
X162557711Y-122287789D01*
X162688814Y-122375390D01*
X162688827Y-122375397D01*
X162834498Y-122435735D01*
X162834503Y-122435737D01*
X162972925Y-122463271D01*
X162989153Y-122466499D01*
X162989156Y-122466500D01*
X162989158Y-122466500D01*
X163146844Y-122466500D01*
X163146845Y-122466499D01*
X163301497Y-122435737D01*
X163447179Y-122375394D01*
X163578289Y-122287789D01*
X163689789Y-122176289D01*
X163777394Y-122045179D01*
X163837737Y-121899497D01*
X163868500Y-121744842D01*
X163868500Y-121587158D01*
X163868500Y-121587155D01*
X163868499Y-121587153D01*
X163844890Y-121468463D01*
X163837737Y-121432503D01*
X163813265Y-121373422D01*
X163777397Y-121286827D01*
X163777390Y-121286814D01*
X163689398Y-121155125D01*
X163668520Y-121088447D01*
X163668500Y-121086234D01*
X163668500Y-118613297D01*
X163688185Y-118546258D01*
X163704819Y-118525616D01*
X163804226Y-118426209D01*
X163971662Y-118258772D01*
X164032983Y-118225289D01*
X164035150Y-118224838D01*
X164093085Y-118213313D01*
X164190497Y-118193937D01*
X164336179Y-118133594D01*
X164467289Y-118045989D01*
X164578789Y-117934489D01*
X164666394Y-117803379D01*
X164726737Y-117657697D01*
X164757500Y-117503042D01*
X164757500Y-117345358D01*
X164757500Y-117345355D01*
X164757499Y-117345353D01*
X164747310Y-117294130D01*
X164726737Y-117190703D01*
X164687108Y-117095029D01*
X164666397Y-117045027D01*
X164666390Y-117045014D01*
X164578789Y-116913911D01*
X164578786Y-116913907D01*
X164467292Y-116802413D01*
X164467288Y-116802410D01*
X164336185Y-116714809D01*
X164336172Y-116714802D01*
X164190501Y-116654464D01*
X164190489Y-116654461D01*
X164035845Y-116623700D01*
X164035842Y-116623700D01*
X163878158Y-116623700D01*
X163878155Y-116623700D01*
X163723510Y-116654461D01*
X163723498Y-116654464D01*
X163577827Y-116714802D01*
X163577814Y-116714809D01*
X163446711Y-116802410D01*
X163446707Y-116802413D01*
X163335213Y-116913907D01*
X163331347Y-116918619D01*
X163329820Y-116917365D01*
X163283182Y-116956337D01*
X163213856Y-116965040D01*
X163150831Y-116934881D01*
X163114116Y-116875435D01*
X163109700Y-116842638D01*
X163109700Y-115844965D01*
X163129385Y-115777926D01*
X163130598Y-115776074D01*
X163218590Y-115644385D01*
X163218590Y-115644384D01*
X163218594Y-115644379D01*
X163278937Y-115498697D01*
X163309700Y-115344042D01*
X163309700Y-115186358D01*
X163309700Y-115186355D01*
X163309699Y-115186353D01*
X163299148Y-115133310D01*
X163278937Y-115031703D01*
X163260675Y-114987614D01*
X163218597Y-114886027D01*
X163218590Y-114886014D01*
X163130989Y-114754911D01*
X163130986Y-114754907D01*
X163019492Y-114643413D01*
X163019488Y-114643410D01*
X162888385Y-114555809D01*
X162888372Y-114555802D01*
X162742701Y-114495464D01*
X162742689Y-114495461D01*
X162588045Y-114464700D01*
X162588042Y-114464700D01*
X162430358Y-114464700D01*
X162430355Y-114464700D01*
X162275710Y-114495461D01*
X162275698Y-114495464D01*
X162130027Y-114555802D01*
X162130014Y-114555809D01*
X161998911Y-114643410D01*
X161998907Y-114643413D01*
X161887413Y-114754907D01*
X161887410Y-114754911D01*
X161799809Y-114886014D01*
X161799802Y-114886027D01*
X161739464Y-115031698D01*
X161739461Y-115031710D01*
X161708700Y-115186353D01*
X161708700Y-115344046D01*
X161739461Y-115498689D01*
X161739464Y-115498701D01*
X161799802Y-115644372D01*
X161799809Y-115644385D01*
X161887802Y-115776074D01*
X161908680Y-115842751D01*
X161908700Y-115844965D01*
X161908700Y-118933659D01*
X161889015Y-119000698D01*
X161872381Y-119021340D01*
X161846213Y-119047507D01*
X161846210Y-119047511D01*
X161758609Y-119178614D01*
X161758602Y-119178627D01*
X161698264Y-119324298D01*
X161698261Y-119324310D01*
X161667500Y-119478953D01*
X159488893Y-119478953D01*
X159585246Y-119382600D01*
X159338800Y-119136154D01*
X159092354Y-119382600D01*
X158185246Y-119382600D01*
X157938800Y-119136154D01*
X157692354Y-119382600D01*
X154422900Y-119382600D01*
X154422900Y-118708726D01*
X157188800Y-118708726D01*
X157188800Y-118856473D01*
X157217620Y-119001359D01*
X157217622Y-119001367D01*
X157261221Y-119106624D01*
X157585246Y-118782600D01*
X157585246Y-118782599D01*
X157565356Y-118762709D01*
X157838800Y-118762709D01*
X157838800Y-118802491D01*
X157854024Y-118839245D01*
X157882155Y-118867376D01*
X157918909Y-118882600D01*
X157958691Y-118882600D01*
X157995445Y-118867376D01*
X158023576Y-118839245D01*
X158038800Y-118802491D01*
X158038800Y-118782599D01*
X158292354Y-118782599D01*
X158292354Y-118782601D01*
X158616729Y-119106976D01*
X158660869Y-119106976D01*
X158985246Y-118782600D01*
X158965355Y-118762709D01*
X159238800Y-118762709D01*
X159238800Y-118802491D01*
X159254024Y-118839245D01*
X159282155Y-118867376D01*
X159318909Y-118882600D01*
X159358691Y-118882600D01*
X159395445Y-118867376D01*
X159423576Y-118839245D01*
X159438800Y-118802491D01*
X159438800Y-118782599D01*
X159692354Y-118782599D01*
X159692354Y-118782601D01*
X160016377Y-119106624D01*
X160016378Y-119106624D01*
X160059975Y-119001375D01*
X160059979Y-119001360D01*
X160088799Y-118856473D01*
X160088800Y-118856471D01*
X160088800Y-118708728D01*
X160088799Y-118708726D01*
X160059979Y-118563840D01*
X160059978Y-118563836D01*
X160016377Y-118458575D01*
X159692354Y-118782599D01*
X159438800Y-118782599D01*
X159438800Y-118762709D01*
X159423576Y-118725955D01*
X159395445Y-118697824D01*
X159358691Y-118682600D01*
X159318909Y-118682600D01*
X159282155Y-118697824D01*
X159254024Y-118725955D01*
X159238800Y-118762709D01*
X158965355Y-118762709D01*
X158660868Y-118458222D01*
X158616730Y-118458222D01*
X158292354Y-118782599D01*
X158038800Y-118782599D01*
X158038800Y-118762709D01*
X158023576Y-118725955D01*
X157995445Y-118697824D01*
X157958691Y-118682600D01*
X157918909Y-118682600D01*
X157882155Y-118697824D01*
X157854024Y-118725955D01*
X157838800Y-118762709D01*
X157565356Y-118762709D01*
X157261221Y-118458574D01*
X157261220Y-118458574D01*
X157217623Y-118563828D01*
X157217620Y-118563840D01*
X157188800Y-118708726D01*
X154422900Y-118708726D01*
X154422900Y-118182600D01*
X157692354Y-118182600D01*
X157938800Y-118429046D01*
X158185246Y-118182600D01*
X159092354Y-118182600D01*
X159338800Y-118429046D01*
X159585246Y-118182600D01*
X159338800Y-117936154D01*
X159092354Y-118182600D01*
X158185246Y-118182600D01*
X157938800Y-117936154D01*
X157692354Y-118182600D01*
X154422900Y-118182600D01*
X154422900Y-117508726D01*
X157188800Y-117508726D01*
X157188800Y-117656473D01*
X157217620Y-117801359D01*
X157217622Y-117801367D01*
X157261221Y-117906624D01*
X157585246Y-117582600D01*
X157585246Y-117582599D01*
X157565356Y-117562709D01*
X157838800Y-117562709D01*
X157838800Y-117602491D01*
X157854024Y-117639245D01*
X157882155Y-117667376D01*
X157918909Y-117682600D01*
X157958691Y-117682600D01*
X157995445Y-117667376D01*
X158023576Y-117639245D01*
X158038800Y-117602491D01*
X158038800Y-117582599D01*
X158292354Y-117582599D01*
X158292354Y-117582601D01*
X158616729Y-117906976D01*
X158660869Y-117906976D01*
X158985246Y-117582600D01*
X158965355Y-117562709D01*
X159238800Y-117562709D01*
X159238800Y-117602491D01*
X159254024Y-117639245D01*
X159282155Y-117667376D01*
X159318909Y-117682600D01*
X159358691Y-117682600D01*
X159395445Y-117667376D01*
X159423576Y-117639245D01*
X159438800Y-117602491D01*
X159438800Y-117582599D01*
X159692354Y-117582599D01*
X159692354Y-117582601D01*
X160016377Y-117906624D01*
X160016378Y-117906624D01*
X160059975Y-117801375D01*
X160059979Y-117801360D01*
X160088799Y-117656473D01*
X160088800Y-117656471D01*
X160088800Y-117508728D01*
X160088799Y-117508726D01*
X160059979Y-117363840D01*
X160059978Y-117363836D01*
X160016377Y-117258575D01*
X159692354Y-117582599D01*
X159438800Y-117582599D01*
X159438800Y-117562709D01*
X159423576Y-117525955D01*
X159395445Y-117497824D01*
X159358691Y-117482600D01*
X159318909Y-117482600D01*
X159282155Y-117497824D01*
X159254024Y-117525955D01*
X159238800Y-117562709D01*
X158965355Y-117562709D01*
X158660868Y-117258222D01*
X158616730Y-117258222D01*
X158292354Y-117582599D01*
X158038800Y-117582599D01*
X158038800Y-117562709D01*
X158023576Y-117525955D01*
X157995445Y-117497824D01*
X157958691Y-117482600D01*
X157918909Y-117482600D01*
X157882155Y-117497824D01*
X157854024Y-117525955D01*
X157838800Y-117562709D01*
X157565356Y-117562709D01*
X157261221Y-117258574D01*
X157261220Y-117258574D01*
X157217623Y-117363828D01*
X157217620Y-117363840D01*
X157188800Y-117508726D01*
X154422900Y-117508726D01*
X154422900Y-117014945D01*
X154422900Y-117014943D01*
X154406758Y-116954700D01*
X154393446Y-116905020D01*
X157614774Y-116905020D01*
X157614774Y-116905021D01*
X157938800Y-117229046D01*
X157938801Y-117229046D01*
X158262824Y-116905021D01*
X158262822Y-116905020D01*
X159014774Y-116905020D01*
X159014774Y-116905021D01*
X159338800Y-117229046D01*
X159338801Y-117229046D01*
X159662824Y-116905021D01*
X159557567Y-116861422D01*
X159557559Y-116861420D01*
X159412672Y-116832600D01*
X159264928Y-116832600D01*
X159120040Y-116861420D01*
X159120028Y-116861423D01*
X159014774Y-116905020D01*
X158262822Y-116905020D01*
X158157567Y-116861422D01*
X158157559Y-116861420D01*
X158012672Y-116832600D01*
X157864928Y-116832600D01*
X157720040Y-116861420D01*
X157720028Y-116861423D01*
X157614774Y-116905020D01*
X154393446Y-116905020D01*
X154381977Y-116862215D01*
X154332194Y-116775989D01*
X154302920Y-116725284D01*
X154191116Y-116613480D01*
X154191115Y-116613479D01*
X154186785Y-116609149D01*
X154186774Y-116609139D01*
X151438240Y-113860605D01*
X151404755Y-113799282D01*
X151406145Y-113740832D01*
X151425700Y-113667858D01*
X151425700Y-113509743D01*
X151425700Y-108732965D01*
X151445385Y-108665926D01*
X151446598Y-108664074D01*
X151534590Y-108532385D01*
X151534590Y-108532384D01*
X151534594Y-108532379D01*
X151594937Y-108386697D01*
X151625700Y-108232042D01*
X151625700Y-108074358D01*
X151625700Y-108074355D01*
X151625699Y-108074353D01*
X151610945Y-108000181D01*
X151594937Y-107919703D01*
X151594935Y-107919698D01*
X151534597Y-107774027D01*
X151534590Y-107774014D01*
X151446989Y-107642911D01*
X151446986Y-107642907D01*
X151335492Y-107531413D01*
X151335488Y-107531410D01*
X151204385Y-107443809D01*
X151204372Y-107443802D01*
X151058701Y-107383464D01*
X151058689Y-107383461D01*
X150904045Y-107352700D01*
X150904042Y-107352700D01*
X150746358Y-107352700D01*
X150746355Y-107352700D01*
X150591710Y-107383461D01*
X150591698Y-107383464D01*
X150446027Y-107443802D01*
X150446014Y-107443809D01*
X150314911Y-107531410D01*
X150314907Y-107531413D01*
X150203413Y-107642907D01*
X150203410Y-107642911D01*
X150115809Y-107774014D01*
X150115802Y-107774027D01*
X150055464Y-107919698D01*
X150055461Y-107919710D01*
X150024700Y-108074353D01*
X150024700Y-108232046D01*
X150055461Y-108386689D01*
X150055464Y-108386701D01*
X150115802Y-108532372D01*
X150115809Y-108532385D01*
X150203802Y-108664074D01*
X150224680Y-108730751D01*
X150224700Y-108732965D01*
X150224700Y-113045290D01*
X150205015Y-113112329D01*
X150169591Y-113148392D01*
X150060911Y-113221010D01*
X150060907Y-113221013D01*
X149949413Y-113332507D01*
X149949410Y-113332511D01*
X149861809Y-113463614D01*
X149861802Y-113463627D01*
X149801464Y-113609298D01*
X149801461Y-113609310D01*
X149770700Y-113763953D01*
X138355480Y-113763953D01*
X139719908Y-112399525D01*
X139781229Y-112366042D01*
X139831779Y-112365591D01*
X139896277Y-112378421D01*
X139896279Y-112378421D01*
X140053965Y-112378421D01*
X140053966Y-112378420D01*
X140208618Y-112347658D01*
X140354300Y-112287315D01*
X140485410Y-112199710D01*
X140596910Y-112088210D01*
X140684515Y-111957100D01*
X140688813Y-111946725D01*
X140726128Y-111856637D01*
X140744858Y-111811418D01*
X140759938Y-111735602D01*
X140792322Y-111673694D01*
X140853037Y-111639120D01*
X140922807Y-111642859D01*
X140969236Y-111672115D01*
X141005807Y-111708686D01*
X141005811Y-111708689D01*
X141136914Y-111796290D01*
X141136927Y-111796297D01*
X141260887Y-111847642D01*
X141282603Y-111856637D01*
X141393963Y-111878788D01*
X141437253Y-111887399D01*
X141437256Y-111887400D01*
X141437258Y-111887400D01*
X141594943Y-111887400D01*
X141638237Y-111878788D01*
X141669541Y-111872561D01*
X141739132Y-111878788D01*
X141794310Y-111921650D01*
X141808294Y-111946725D01*
X141835404Y-112012176D01*
X141835409Y-112012185D01*
X141923010Y-112143288D01*
X141923013Y-112143292D01*
X142034507Y-112254786D01*
X142034511Y-112254789D01*
X142165614Y-112342390D01*
X142165627Y-112342397D01*
X142303553Y-112399527D01*
X142311303Y-112402737D01*
X142465953Y-112433499D01*
X142465956Y-112433500D01*
X142465958Y-112433500D01*
X142623644Y-112433500D01*
X142623645Y-112433499D01*
X142778297Y-112402737D01*
X142890966Y-112356067D01*
X142923972Y-112342397D01*
X142923972Y-112342396D01*
X142923979Y-112342394D01*
X142980844Y-112304397D01*
X143047521Y-112283520D01*
X143049735Y-112283500D01*
X144545525Y-112283500D01*
X144630069Y-112266682D01*
X144671198Y-112258501D01*
X144789581Y-112209465D01*
X144792544Y-112207484D01*
X144798623Y-112203424D01*
X144798625Y-112203423D01*
X144888623Y-112143288D01*
X144896123Y-112138277D01*
X149162077Y-107872323D01*
X149233265Y-107765781D01*
X149282301Y-107647398D01*
X149291198Y-107602669D01*
X149299249Y-107562196D01*
X149307300Y-107521724D01*
X149307300Y-106813131D01*
X149306444Y-106808827D01*
X149299905Y-106775953D01*
X160438700Y-106775953D01*
X160438700Y-106933646D01*
X160469461Y-107088289D01*
X160469464Y-107088301D01*
X160529802Y-107233972D01*
X160529809Y-107233985D01*
X160617410Y-107365088D01*
X160617413Y-107365092D01*
X160728907Y-107476586D01*
X160728911Y-107476589D01*
X160860014Y-107564190D01*
X160860027Y-107564197D01*
X160952913Y-107602671D01*
X161005703Y-107624537D01*
X161070347Y-107637395D01*
X161161049Y-107655438D01*
X161222960Y-107687823D01*
X161224539Y-107689374D01*
X162024781Y-108489616D01*
X162058266Y-108550939D01*
X162061100Y-108577297D01*
X162061100Y-109757834D01*
X162041415Y-109824873D01*
X162040202Y-109826725D01*
X161952209Y-109958414D01*
X161952202Y-109958427D01*
X161891864Y-110104098D01*
X161891861Y-110104110D01*
X161861100Y-110258753D01*
X161861100Y-110416446D01*
X161891861Y-110571089D01*
X161891864Y-110571101D01*
X161952202Y-110716772D01*
X161952209Y-110716785D01*
X162039810Y-110847888D01*
X162039813Y-110847892D01*
X162151307Y-110959386D01*
X162151311Y-110959389D01*
X162282414Y-111046990D01*
X162282427Y-111046997D01*
X162428098Y-111107335D01*
X162428103Y-111107337D01*
X162570366Y-111135635D01*
X162582753Y-111138099D01*
X162582756Y-111138100D01*
X162582758Y-111138100D01*
X162740444Y-111138100D01*
X162740445Y-111138099D01*
X162895097Y-111107337D01*
X163040779Y-111046994D01*
X163171889Y-110959389D01*
X163283389Y-110847889D01*
X163370994Y-110716779D01*
X163431337Y-110571097D01*
X163462100Y-110416442D01*
X163462100Y-110258758D01*
X163462100Y-110258755D01*
X163462099Y-110258753D01*
X163431338Y-110104110D01*
X163431337Y-110104103D01*
X163431335Y-110104098D01*
X163370997Y-109958427D01*
X163370990Y-109958414D01*
X163282998Y-109826725D01*
X163262120Y-109760047D01*
X163262100Y-109757834D01*
X163262100Y-108198145D01*
X163262100Y-108198143D01*
X163221177Y-108045416D01*
X163188317Y-107988500D01*
X163142124Y-107908490D01*
X163142121Y-107908486D01*
X163142120Y-107908484D01*
X163030316Y-107796680D01*
X163030315Y-107796679D01*
X163025985Y-107792349D01*
X163025974Y-107792339D01*
X162073774Y-106840139D01*
X162040289Y-106778816D01*
X162039838Y-106776649D01*
X162020157Y-106677711D01*
X162008937Y-106621303D01*
X162006866Y-106616304D01*
X161948597Y-106475627D01*
X161948590Y-106475614D01*
X161860989Y-106344511D01*
X161860986Y-106344507D01*
X161749492Y-106233013D01*
X161749488Y-106233010D01*
X161618385Y-106145409D01*
X161618372Y-106145402D01*
X161472701Y-106085064D01*
X161472689Y-106085061D01*
X161318045Y-106054300D01*
X161318042Y-106054300D01*
X161160358Y-106054300D01*
X161160355Y-106054300D01*
X161005710Y-106085061D01*
X161005698Y-106085064D01*
X160860027Y-106145402D01*
X160860014Y-106145409D01*
X160728911Y-106233010D01*
X160728907Y-106233013D01*
X160617413Y-106344507D01*
X160617410Y-106344511D01*
X160529809Y-106475614D01*
X160529802Y-106475627D01*
X160469464Y-106621298D01*
X160469461Y-106621310D01*
X160438700Y-106775953D01*
X149299905Y-106775953D01*
X149282301Y-106687456D01*
X149255609Y-106623015D01*
X149233266Y-106569074D01*
X149231614Y-106566602D01*
X149162078Y-106462532D01*
X149162072Y-106462525D01*
X145056537Y-102356991D01*
X145023052Y-102295668D01*
X145028036Y-102225976D01*
X145056533Y-102181634D01*
X147533697Y-99704469D01*
X147573924Y-99677591D01*
X147597579Y-99667794D01*
X147728689Y-99580189D01*
X147840189Y-99468689D01*
X147927794Y-99337579D01*
X147988137Y-99191897D01*
X148018900Y-99037242D01*
X148018900Y-98879558D01*
X148018900Y-98879555D01*
X148018899Y-98879553D01*
X148006874Y-98819099D01*
X147988137Y-98724903D01*
X147966268Y-98672106D01*
X147927797Y-98579227D01*
X147927790Y-98579214D01*
X147862694Y-98481791D01*
X147841816Y-98415113D01*
X147860301Y-98347733D01*
X147912279Y-98301043D01*
X147965796Y-98288900D01*
X153127931Y-98288900D01*
X153127947Y-98288901D01*
X153135543Y-98288901D01*
X153293654Y-98288901D01*
X153293657Y-98288901D01*
X153446385Y-98247977D01*
X153515800Y-98207900D01*
X153583316Y-98168920D01*
X153695120Y-98057116D01*
X153695120Y-98057114D01*
X153705324Y-98046911D01*
X153705327Y-98046906D01*
X161857520Y-89894716D01*
X161936577Y-89757784D01*
X161977501Y-89605057D01*
X161977501Y-89446942D01*
X161977501Y-89439347D01*
X161977500Y-89439329D01*
X161977500Y-85446944D01*
X161977500Y-85446943D01*
X161969180Y-85415894D01*
X161958089Y-85374500D01*
X161936577Y-85294216D01*
X161890150Y-85213801D01*
X161857524Y-85157290D01*
X161857521Y-85157286D01*
X161857520Y-85157284D01*
X161745716Y-85045480D01*
X161745715Y-85045479D01*
X161741385Y-85041149D01*
X161741374Y-85041139D01*
X161589215Y-84888980D01*
X161555730Y-84827657D01*
X161554423Y-84781901D01*
X161568302Y-84694276D01*
X161576500Y-84642514D01*
X161576500Y-84457486D01*
X161547555Y-84274736D01*
X161490379Y-84098765D01*
X161490379Y-84098764D01*
X161447577Y-84014763D01*
X161406378Y-83933904D01*
X161297621Y-83784213D01*
X161166787Y-83653379D01*
X161166786Y-83653378D01*
X161092165Y-83599162D01*
X161077190Y-83579742D01*
X160447448Y-82950000D01*
X160453661Y-82950000D01*
X160555394Y-82922741D01*
X160646606Y-82870080D01*
X160721080Y-82795606D01*
X160773741Y-82704394D01*
X160801000Y-82602661D01*
X160801000Y-82596448D01*
X161390983Y-83186431D01*
X161390984Y-83186430D01*
X161405942Y-83165845D01*
X161405947Y-83165836D01*
X161489915Y-83001043D01*
X161489916Y-83001040D01*
X161547066Y-82825147D01*
X161576000Y-82642473D01*
X161576000Y-82457526D01*
X161547066Y-82274852D01*
X161489916Y-82098959D01*
X161489915Y-82098956D01*
X161405949Y-81934165D01*
X161390983Y-81913568D01*
X160801000Y-82503551D01*
X160801000Y-82497339D01*
X160773741Y-82395606D01*
X160721080Y-82304394D01*
X160646606Y-82229920D01*
X160555394Y-82177259D01*
X160453661Y-82150000D01*
X160447447Y-82150000D01*
X161037431Y-81560016D01*
X161037430Y-81560015D01*
X161016834Y-81545050D01*
X160852043Y-81461084D01*
X160852040Y-81461083D01*
X160676147Y-81403933D01*
X160493473Y-81375000D01*
X160308527Y-81375000D01*
X160125852Y-81403933D01*
X159949959Y-81461083D01*
X159949956Y-81461084D01*
X159785167Y-81545049D01*
X159764568Y-81560015D01*
X160354554Y-82150000D01*
X160348339Y-82150000D01*
X160246606Y-82177259D01*
X160155394Y-82229920D01*
X160080920Y-82304394D01*
X160028259Y-82395606D01*
X160001000Y-82497339D01*
X160001000Y-82503553D01*
X159411015Y-81913568D01*
X159396049Y-81934167D01*
X159312084Y-82098956D01*
X159312083Y-82098959D01*
X159254933Y-82274852D01*
X159226000Y-82457526D01*
X159226000Y-82642473D01*
X159254933Y-82825147D01*
X159312083Y-83001040D01*
X159312084Y-83001043D01*
X159396050Y-83165834D01*
X159411015Y-83186430D01*
X159411016Y-83186431D01*
X160001000Y-82596447D01*
X160001000Y-82602661D01*
X160028259Y-82704394D01*
X160080920Y-82795606D01*
X160155394Y-82870080D01*
X160246606Y-82922741D01*
X160348339Y-82950000D01*
X160354553Y-82950000D01*
X159740355Y-83564196D01*
X159709833Y-83599163D01*
X159635213Y-83653378D01*
X159504381Y-83784210D01*
X159504381Y-83784211D01*
X159504379Y-83784213D01*
X159457672Y-83848499D01*
X159395622Y-83933903D01*
X159311620Y-84098764D01*
X159311619Y-84098767D01*
X159254445Y-84274734D01*
X159225500Y-84457486D01*
X159225500Y-84642513D01*
X159254445Y-84825265D01*
X159311619Y-85001232D01*
X159311620Y-85001235D01*
X159345005Y-85066755D01*
X159395622Y-85166096D01*
X159504379Y-85315787D01*
X159635213Y-85446621D01*
X159639432Y-85449686D01*
X159682094Y-85505019D01*
X159688069Y-85574633D01*
X159655459Y-85636426D01*
X159639432Y-85650314D01*
X159635210Y-85653381D01*
X159504381Y-85784210D01*
X159504381Y-85784211D01*
X159504379Y-85784213D01*
X159457672Y-85848499D01*
X159395622Y-85933903D01*
X159311620Y-86098764D01*
X159311619Y-86098767D01*
X159254445Y-86274734D01*
X159225500Y-86457486D01*
X159225500Y-86642514D01*
X159225499Y-86642514D01*
X159247576Y-86781900D01*
X159238621Y-86851193D01*
X159212784Y-86888978D01*
X158016384Y-88085381D01*
X157955061Y-88118866D01*
X157928703Y-88121700D01*
X136547543Y-88121700D01*
X136394816Y-88162623D01*
X136394809Y-88162626D01*
X136257890Y-88241675D01*
X136257882Y-88241681D01*
X136146081Y-88353482D01*
X136146075Y-88353490D01*
X136067026Y-88490409D01*
X136067023Y-88490416D01*
X136026100Y-88643143D01*
X136026100Y-100020669D01*
X136016661Y-100068121D01*
X135983863Y-100147301D01*
X135983860Y-100147311D01*
X135953100Y-100301953D01*
X135953100Y-100459646D01*
X135983861Y-100614289D01*
X135983864Y-100614301D01*
X136044202Y-100759972D01*
X136044209Y-100759985D01*
X136131810Y-100891088D01*
X136131813Y-100891092D01*
X136243307Y-101002586D01*
X136243311Y-101002589D01*
X136374414Y-101090190D01*
X136374427Y-101090197D01*
X136520098Y-101150535D01*
X136520103Y-101150537D01*
X136670736Y-101180500D01*
X136674753Y-101181299D01*
X136674756Y-101181300D01*
X136674758Y-101181300D01*
X136832444Y-101181300D01*
X136832445Y-101181299D01*
X136987097Y-101150537D01*
X137132779Y-101090194D01*
X137263889Y-101002589D01*
X137375389Y-100891089D01*
X137462994Y-100759979D01*
X137523337Y-100614297D01*
X137554100Y-100459642D01*
X137554100Y-100301958D01*
X137554100Y-100301955D01*
X137554099Y-100301953D01*
X137552879Y-100295819D01*
X137523337Y-100147303D01*
X137523335Y-100147298D01*
X137462997Y-100001627D01*
X137462990Y-100001614D01*
X137375389Y-99870511D01*
X137375386Y-99870507D01*
X137263419Y-99758540D01*
X137229934Y-99697217D01*
X137227100Y-99670859D01*
X137227100Y-93122111D01*
X146739500Y-93122111D01*
X146739500Y-93364688D01*
X146771161Y-93605185D01*
X146833947Y-93839504D01*
X146926773Y-94063605D01*
X146926776Y-94063612D01*
X147048064Y-94273689D01*
X147048066Y-94273692D01*
X147048067Y-94273693D01*
X147195733Y-94466136D01*
X147195739Y-94466143D01*
X147367256Y-94637660D01*
X147367262Y-94637665D01*
X147559711Y-94785336D01*
X147769788Y-94906624D01*
X147993900Y-94999454D01*
X148228211Y-95062238D01*
X148408586Y-95085984D01*
X148468711Y-95093900D01*
X148468712Y-95093900D01*
X148711289Y-95093900D01*
X148759388Y-95087567D01*
X148951789Y-95062238D01*
X149186100Y-94999454D01*
X149410212Y-94906624D01*
X149620289Y-94785336D01*
X149812738Y-94637665D01*
X149984265Y-94466138D01*
X150131936Y-94273689D01*
X150253224Y-94063612D01*
X150346054Y-93839500D01*
X150408838Y-93605189D01*
X150440500Y-93364688D01*
X150440500Y-93122112D01*
X150434664Y-93077786D01*
X150432584Y-93061986D01*
X150408838Y-92881611D01*
X150346054Y-92647300D01*
X150253224Y-92423188D01*
X150131936Y-92213111D01*
X149984265Y-92020662D01*
X149984260Y-92020656D01*
X149812743Y-91849139D01*
X149812736Y-91849133D01*
X149620293Y-91701467D01*
X149620292Y-91701466D01*
X149620289Y-91701464D01*
X149410212Y-91580176D01*
X149410205Y-91580173D01*
X149186104Y-91487347D01*
X148951785Y-91424561D01*
X148711289Y-91392900D01*
X148711288Y-91392900D01*
X148468712Y-91392900D01*
X148468711Y-91392900D01*
X148228214Y-91424561D01*
X147993895Y-91487347D01*
X147769794Y-91580173D01*
X147769785Y-91580177D01*
X147559706Y-91701467D01*
X147367263Y-91849133D01*
X147367256Y-91849139D01*
X147195739Y-92020656D01*
X147195733Y-92020663D01*
X147048067Y-92213106D01*
X147048064Y-92213110D01*
X147048064Y-92213111D01*
X147031817Y-92241251D01*
X146926777Y-92423185D01*
X146926773Y-92423194D01*
X146833947Y-92647295D01*
X146771161Y-92881614D01*
X146739500Y-93122111D01*
X137227100Y-93122111D01*
X137227100Y-89446700D01*
X137246785Y-89379661D01*
X137299589Y-89333906D01*
X137351100Y-89322700D01*
X158142131Y-89322700D01*
X158142147Y-89322701D01*
X158149743Y-89322701D01*
X158307854Y-89322701D01*
X158307857Y-89322701D01*
X158460585Y-89281777D01*
X158516552Y-89249464D01*
X158597516Y-89202720D01*
X158709320Y-89090916D01*
X158709320Y-89090914D01*
X158719524Y-89080711D01*
X158719528Y-89080706D01*
X159013821Y-88786412D01*
X159075142Y-88752929D01*
X159144834Y-88757913D01*
X159200767Y-88799785D01*
X159225184Y-88865249D01*
X159225500Y-88874095D01*
X159225500Y-89272870D01*
X159225501Y-89272876D01*
X159231908Y-89332483D01*
X159282202Y-89467328D01*
X159282206Y-89467335D01*
X159368452Y-89582544D01*
X159368455Y-89582547D01*
X159483664Y-89668793D01*
X159483671Y-89668797D01*
X159528618Y-89685561D01*
X159618517Y-89719091D01*
X159678127Y-89725500D01*
X160028902Y-89725499D01*
X160095940Y-89745183D01*
X160141695Y-89797987D01*
X160151639Y-89867146D01*
X160122614Y-89930701D01*
X160116582Y-89937180D01*
X153002184Y-97051581D01*
X152940861Y-97085066D01*
X152914503Y-97087900D01*
X140355966Y-97087900D01*
X140288927Y-97068215D01*
X140287075Y-97067002D01*
X140155385Y-96979009D01*
X140155372Y-96979002D01*
X140009701Y-96918664D01*
X140009689Y-96918661D01*
X139855045Y-96887900D01*
X139855042Y-96887900D01*
X139697358Y-96887900D01*
X139697355Y-96887900D01*
X139542710Y-96918661D01*
X139542698Y-96918664D01*
X139397027Y-96979002D01*
X139397014Y-96979009D01*
X139265911Y-97066610D01*
X139265907Y-97066613D01*
X139154413Y-97178107D01*
X139154410Y-97178111D01*
X139066809Y-97309214D01*
X139066802Y-97309227D01*
X139006464Y-97454898D01*
X139006461Y-97454910D01*
X138975700Y-97609553D01*
X138975700Y-97767246D01*
X139006461Y-97921889D01*
X139006464Y-97921901D01*
X139066802Y-98067572D01*
X139066809Y-98067585D01*
X139154410Y-98198688D01*
X139154413Y-98198692D01*
X139265907Y-98310186D01*
X139265911Y-98310189D01*
X139397014Y-98397790D01*
X139397027Y-98397797D01*
X139510212Y-98444679D01*
X139542703Y-98458137D01*
X139661619Y-98481791D01*
X139697353Y-98488899D01*
X139697356Y-98488900D01*
X139697358Y-98488900D01*
X139855044Y-98488900D01*
X139855045Y-98488899D01*
X140009697Y-98458137D01*
X140155379Y-98397794D01*
X140209863Y-98361389D01*
X140287075Y-98309798D01*
X140353753Y-98288920D01*
X140355966Y-98288900D01*
X146471005Y-98288900D01*
X146478107Y-98290985D01*
X146485403Y-98289739D01*
X146511176Y-98300695D01*
X146538044Y-98308585D01*
X146542890Y-98314177D01*
X146549703Y-98317074D01*
X146565461Y-98340226D01*
X146583799Y-98361389D01*
X146584852Y-98368715D01*
X146589017Y-98374834D01*
X146589757Y-98402827D01*
X146593743Y-98430547D01*
X146590714Y-98439007D01*
X146590864Y-98444679D01*
X146580335Y-98467995D01*
X146577055Y-98477160D01*
X146575633Y-98479506D01*
X146509006Y-98579221D01*
X146495595Y-98611596D01*
X146490696Y-98619682D01*
X146483713Y-98626063D01*
X146472327Y-98643103D01*
X143703651Y-101411781D01*
X143642328Y-101445266D01*
X143615970Y-101448100D01*
X135871305Y-101448100D01*
X135804266Y-101428415D01*
X135783624Y-101411781D01*
X126244896Y-91873052D01*
X126244889Y-91873046D01*
X126171204Y-91823812D01*
X126171204Y-91823813D01*
X126121966Y-91790913D01*
X125985392Y-91734343D01*
X125985382Y-91734340D01*
X125840395Y-91705500D01*
X125840393Y-91705500D01*
X119710004Y-91705500D01*
X119662555Y-91696062D01*
X119638897Y-91686263D01*
X119638893Y-91686262D01*
X119638888Y-91686260D01*
X119484245Y-91655500D01*
X119484242Y-91655500D01*
X119326558Y-91655500D01*
X119326555Y-91655500D01*
X119171910Y-91686261D01*
X119171898Y-91686264D01*
X119026227Y-91746602D01*
X119026214Y-91746609D01*
X118895111Y-91834210D01*
X118895107Y-91834213D01*
X118783613Y-91945707D01*
X118783610Y-91945711D01*
X118696009Y-92076814D01*
X118696002Y-92076827D01*
X118635664Y-92222498D01*
X118635661Y-92222510D01*
X118604900Y-92377153D01*
X118604900Y-92534846D01*
X118635661Y-92689489D01*
X118635664Y-92689501D01*
X118696002Y-92835172D01*
X118696009Y-92835185D01*
X118783610Y-92966288D01*
X118783613Y-92966292D01*
X118895107Y-93077786D01*
X118895111Y-93077789D01*
X119026214Y-93165390D01*
X119026227Y-93165397D01*
X119125460Y-93206500D01*
X119171903Y-93225737D01*
X119326553Y-93256499D01*
X119326556Y-93256500D01*
X119326558Y-93256500D01*
X119484244Y-93256500D01*
X119484245Y-93256499D01*
X119560552Y-93241320D01*
X119638888Y-93225739D01*
X119638889Y-93225738D01*
X119638897Y-93225737D01*
X119662555Y-93215937D01*
X119710004Y-93206500D01*
X125404245Y-93206500D01*
X125471284Y-93226185D01*
X125491926Y-93242819D01*
X135030661Y-102781554D01*
X135041460Y-102788769D01*
X135104345Y-102830786D01*
X135153580Y-102863684D01*
X135153581Y-102863684D01*
X135153582Y-102863685D01*
X135153584Y-102863686D01*
X135290157Y-102920256D01*
X135290162Y-102920258D01*
X135290166Y-102920258D01*
X135290167Y-102920259D01*
X135435154Y-102949100D01*
X135435157Y-102949100D01*
X135435158Y-102949100D01*
X135582992Y-102949100D01*
X143757392Y-102949100D01*
X143824431Y-102968785D01*
X143845073Y-102985419D01*
X147235473Y-106375819D01*
X147268958Y-106437142D01*
X147263974Y-106506834D01*
X147222102Y-106562767D01*
X147156638Y-106587184D01*
X147147792Y-106587500D01*
X126055766Y-106587500D01*
X125988727Y-106567815D01*
X125986875Y-106566602D01*
X125855185Y-106478609D01*
X125855172Y-106478602D01*
X125709501Y-106418264D01*
X125709489Y-106418261D01*
X125554845Y-106387500D01*
X125554842Y-106387500D01*
X125397158Y-106387500D01*
X125397155Y-106387500D01*
X125242510Y-106418261D01*
X125242498Y-106418264D01*
X125096827Y-106478602D01*
X125096814Y-106478609D01*
X124965711Y-106566210D01*
X124965707Y-106566213D01*
X124854213Y-106677707D01*
X124854210Y-106677711D01*
X124766609Y-106808814D01*
X124766602Y-106808827D01*
X124706264Y-106954498D01*
X124706261Y-106954510D01*
X124675500Y-107109153D01*
X124675500Y-107266846D01*
X124706261Y-107421489D01*
X124706264Y-107421501D01*
X124766602Y-107567172D01*
X124766609Y-107567185D01*
X124854210Y-107698288D01*
X124854213Y-107698292D01*
X124965707Y-107809786D01*
X124965711Y-107809789D01*
X125096814Y-107897390D01*
X125096827Y-107897397D01*
X125175894Y-107930147D01*
X125242503Y-107957737D01*
X125397153Y-107988499D01*
X125397156Y-107988500D01*
X125397158Y-107988500D01*
X125554844Y-107988500D01*
X125554845Y-107988499D01*
X125709497Y-107957737D01*
X125855179Y-107897394D01*
X125855185Y-107897390D01*
X125986875Y-107809398D01*
X126053553Y-107788520D01*
X126055766Y-107788500D01*
X147106646Y-107788500D01*
X147173685Y-107808185D01*
X147219440Y-107860989D01*
X147229384Y-107930147D01*
X147200359Y-107993703D01*
X147194327Y-108000181D01*
X144248327Y-110946181D01*
X144187004Y-110979666D01*
X144160646Y-110982500D01*
X143049735Y-110982500D01*
X142982696Y-110962815D01*
X142980890Y-110961633D01*
X142923979Y-110923606D01*
X142923972Y-110923602D01*
X142778301Y-110863264D01*
X142778289Y-110863261D01*
X142623645Y-110832500D01*
X142623642Y-110832500D01*
X142465958Y-110832500D01*
X142465953Y-110832500D01*
X142391357Y-110847338D01*
X142321765Y-110841111D01*
X142266588Y-110798247D01*
X142252605Y-110773173D01*
X142225497Y-110707726D01*
X142225490Y-110707714D01*
X142137889Y-110576611D01*
X142137886Y-110576607D01*
X142026392Y-110465113D01*
X142026388Y-110465110D01*
X141895285Y-110377509D01*
X141895272Y-110377502D01*
X141749601Y-110317164D01*
X141749591Y-110317161D01*
X141594249Y-110286261D01*
X141532338Y-110253876D01*
X141530760Y-110252325D01*
X141117410Y-109838975D01*
X141117408Y-109838972D01*
X140998537Y-109720101D01*
X140998536Y-109720100D01*
X140911724Y-109669980D01*
X140911724Y-109669979D01*
X140911720Y-109669978D01*
X140861605Y-109641043D01*
X140708877Y-109600119D01*
X140550763Y-109600119D01*
X140543167Y-109600119D01*
X140543151Y-109600120D01*
X139379452Y-109600120D01*
X139221337Y-109600120D01*
X139068610Y-109641043D01*
X139068609Y-109641043D01*
X139068607Y-109641044D01*
X139068604Y-109641045D01*
X139018491Y-109669979D01*
X139018490Y-109669980D01*
X138975084Y-109695040D01*
X138931680Y-109720099D01*
X138931677Y-109720101D01*
X138845757Y-109806022D01*
X138819875Y-109831904D01*
X138819873Y-109831906D01*
X137688965Y-110962815D01*
X136563399Y-112088381D01*
X136502076Y-112121866D01*
X136475718Y-112124700D01*
X120061366Y-112124700D01*
X119994327Y-112105015D01*
X119992475Y-112103802D01*
X119860785Y-112015809D01*
X119860772Y-112015802D01*
X119715101Y-111955464D01*
X119715089Y-111955461D01*
X119560445Y-111924700D01*
X119560442Y-111924700D01*
X119402758Y-111924700D01*
X119402755Y-111924700D01*
X119248110Y-111955461D01*
X119248098Y-111955464D01*
X119102427Y-112015802D01*
X119102414Y-112015809D01*
X118971311Y-112103410D01*
X118971307Y-112103413D01*
X118859813Y-112214907D01*
X118859810Y-112214911D01*
X118772209Y-112346014D01*
X118772202Y-112346027D01*
X118711864Y-112491698D01*
X118711861Y-112491710D01*
X118681100Y-112646353D01*
X118681100Y-112804046D01*
X118711861Y-112958689D01*
X118711864Y-112958701D01*
X118772202Y-113104372D01*
X118772209Y-113104385D01*
X118859810Y-113235488D01*
X118859813Y-113235492D01*
X118971307Y-113346986D01*
X118971311Y-113346989D01*
X119102414Y-113434590D01*
X119102427Y-113434597D01*
X119248098Y-113494935D01*
X119248103Y-113494937D01*
X119402753Y-113525699D01*
X119402756Y-113525700D01*
X119402758Y-113525700D01*
X119560444Y-113525700D01*
X119560445Y-113525699D01*
X119715097Y-113494937D01*
X119860779Y-113434594D01*
X119915263Y-113398189D01*
X119992475Y-113346598D01*
X120059153Y-113325720D01*
X120061366Y-113325700D01*
X136159504Y-113325700D01*
X136226543Y-113345385D01*
X136272298Y-113398189D01*
X136282242Y-113467347D01*
X136253217Y-113530903D01*
X136247185Y-113537381D01*
X136041586Y-113742980D01*
X135980263Y-113776465D01*
X135953905Y-113779299D01*
X107289026Y-113779299D01*
X107221987Y-113759614D01*
X107185924Y-113724190D01*
X107149389Y-113669511D01*
X107149387Y-113669508D01*
X107037892Y-113558013D01*
X107037888Y-113558010D01*
X106906785Y-113470409D01*
X106906772Y-113470402D01*
X106761101Y-113410064D01*
X106761089Y-113410061D01*
X106606445Y-113379300D01*
X106606442Y-113379300D01*
X106448758Y-113379300D01*
X106448755Y-113379300D01*
X106294110Y-113410061D01*
X106294098Y-113410064D01*
X106148427Y-113470402D01*
X106148414Y-113470409D01*
X106017311Y-113558010D01*
X106017307Y-113558013D01*
X105905813Y-113669507D01*
X105905810Y-113669511D01*
X105818209Y-113800614D01*
X105818202Y-113800627D01*
X105757864Y-113946298D01*
X105757861Y-113946310D01*
X105727100Y-114100953D01*
X105727100Y-114258646D01*
X105757861Y-114413294D01*
X105757863Y-114413297D01*
X105773840Y-114451871D01*
X105781308Y-114521340D01*
X105750032Y-114583819D01*
X105746960Y-114587002D01*
X105716879Y-114617083D01*
X105637826Y-114754009D01*
X105637823Y-114754016D01*
X105596900Y-114906743D01*
X105596900Y-115023915D01*
X105577215Y-115090954D01*
X105560581Y-115111596D01*
X105555251Y-115116925D01*
X105555248Y-115116929D01*
X105467647Y-115248032D01*
X105467644Y-115248038D01*
X105451340Y-115287400D01*
X105407498Y-115341803D01*
X105341204Y-115363867D01*
X105273505Y-115346587D01*
X105225895Y-115295450D01*
X105215162Y-115264137D01*
X105189138Y-115133310D01*
X105189137Y-115133303D01*
X105171596Y-115090954D01*
X105128797Y-114987627D01*
X105128790Y-114987614D01*
X105041189Y-114856511D01*
X105041186Y-114856507D01*
X104929692Y-114745013D01*
X104929688Y-114745010D01*
X104798585Y-114657409D01*
X104798572Y-114657402D01*
X104652901Y-114597064D01*
X104652891Y-114597061D01*
X104497549Y-114566161D01*
X104435638Y-114533776D01*
X104434060Y-114532225D01*
X98714819Y-108812984D01*
X98681334Y-108751661D01*
X98678500Y-108725303D01*
X98678500Y-103705553D01*
X107022500Y-103705553D01*
X107022500Y-103863246D01*
X107053261Y-104017889D01*
X107053264Y-104017901D01*
X107113602Y-104163572D01*
X107113609Y-104163585D01*
X107201210Y-104294688D01*
X107201213Y-104294692D01*
X107312707Y-104406186D01*
X107312711Y-104406189D01*
X107443814Y-104493790D01*
X107443827Y-104493797D01*
X107566442Y-104544585D01*
X107589503Y-104554137D01*
X107744153Y-104584899D01*
X107744156Y-104584900D01*
X107744158Y-104584900D01*
X107901844Y-104584900D01*
X107901845Y-104584899D01*
X108056497Y-104554137D01*
X108202179Y-104493794D01*
X108333289Y-104406189D01*
X108444789Y-104294689D01*
X108532394Y-104163579D01*
X108592737Y-104017897D01*
X108612113Y-103920485D01*
X108623638Y-103862550D01*
X108656023Y-103800639D01*
X108657518Y-103799116D01*
X113784529Y-98672104D01*
X113845850Y-98638621D01*
X113915542Y-98643605D01*
X113941099Y-98656685D01*
X114047814Y-98727990D01*
X114047827Y-98727997D01*
X114193498Y-98788335D01*
X114193503Y-98788337D01*
X114348153Y-98819099D01*
X114348156Y-98819100D01*
X114348158Y-98819100D01*
X114505844Y-98819100D01*
X114505845Y-98819099D01*
X114660497Y-98788337D01*
X114806179Y-98727994D01*
X114937289Y-98640389D01*
X115048789Y-98528889D01*
X115136394Y-98397779D01*
X115196737Y-98252097D01*
X115227500Y-98097442D01*
X115227500Y-97939758D01*
X115227500Y-97939755D01*
X115227499Y-97939753D01*
X115196738Y-97785110D01*
X115196737Y-97785103D01*
X115194948Y-97780783D01*
X115136397Y-97639427D01*
X115136390Y-97639414D01*
X115048398Y-97507725D01*
X115027520Y-97441047D01*
X115027500Y-97438834D01*
X115027500Y-96185052D01*
X115047185Y-96118013D01*
X115099989Y-96072258D01*
X115127309Y-96063435D01*
X115159967Y-96056938D01*
X115219297Y-96045137D01*
X115364979Y-95984794D01*
X115496089Y-95897189D01*
X115607589Y-95785689D01*
X115695194Y-95654579D01*
X115755537Y-95508897D01*
X115786300Y-95354242D01*
X115786300Y-95196558D01*
X115786300Y-95196555D01*
X115786299Y-95196553D01*
X115772032Y-95124827D01*
X115755537Y-95041903D01*
X115737954Y-94999454D01*
X115695197Y-94896227D01*
X115695190Y-94896214D01*
X115607589Y-94765111D01*
X115607586Y-94765107D01*
X115496092Y-94653613D01*
X115496088Y-94653610D01*
X115364985Y-94566009D01*
X115364972Y-94566002D01*
X115219301Y-94505664D01*
X115219289Y-94505661D01*
X115064645Y-94474900D01*
X115064642Y-94474900D01*
X114906958Y-94474900D01*
X114906955Y-94474900D01*
X114752310Y-94505661D01*
X114752298Y-94505664D01*
X114606627Y-94566002D01*
X114606614Y-94566009D01*
X114475511Y-94653610D01*
X114475507Y-94653613D01*
X114364013Y-94765107D01*
X114364010Y-94765111D01*
X114304658Y-94853937D01*
X114251045Y-94898742D01*
X114181720Y-94907449D01*
X114130420Y-94884297D01*
X114129554Y-94885595D01*
X113993385Y-94794609D01*
X113993372Y-94794602D01*
X113847701Y-94734264D01*
X113847689Y-94734261D01*
X113693045Y-94703500D01*
X113693042Y-94703500D01*
X113535358Y-94703500D01*
X113535355Y-94703500D01*
X113380710Y-94734261D01*
X113380698Y-94734264D01*
X113235027Y-94794602D01*
X113235014Y-94794609D01*
X113103911Y-94882210D01*
X113103907Y-94882213D01*
X112992413Y-94993707D01*
X112992410Y-94993711D01*
X112904809Y-95124814D01*
X112904802Y-95124827D01*
X112844464Y-95270498D01*
X112844461Y-95270510D01*
X112813700Y-95425153D01*
X112813700Y-95582846D01*
X112844461Y-95737489D01*
X112844464Y-95737501D01*
X112904802Y-95883172D01*
X112904809Y-95883185D01*
X112992802Y-96014874D01*
X113013680Y-96081551D01*
X113013700Y-96083765D01*
X113013700Y-97693102D01*
X112994015Y-97760141D01*
X112977381Y-97780783D01*
X107808339Y-102949825D01*
X107747016Y-102983310D01*
X107744850Y-102983761D01*
X107589508Y-103014661D01*
X107589498Y-103014664D01*
X107443827Y-103075002D01*
X107443814Y-103075009D01*
X107312711Y-103162610D01*
X107312707Y-103162613D01*
X107201213Y-103274107D01*
X107201210Y-103274111D01*
X107113609Y-103405214D01*
X107113602Y-103405227D01*
X107053264Y-103550898D01*
X107053261Y-103550910D01*
X107022500Y-103705553D01*
X98678500Y-103705553D01*
X98678500Y-102899046D01*
X98686779Y-102870850D01*
X98692400Y-102842002D01*
X98696510Y-102837708D01*
X98698185Y-102832007D01*
X98720388Y-102812767D01*
X98740718Y-102791533D01*
X98748083Y-102788769D01*
X98750989Y-102786252D01*
X98773511Y-102778482D01*
X98775889Y-102777910D01*
X98912497Y-102750737D01*
X98945150Y-102737211D01*
X98954615Y-102734936D01*
X98963987Y-102735401D01*
X98983604Y-102731500D01*
X102664520Y-102731500D01*
X102762062Y-102712096D01*
X102809513Y-102702658D01*
X102946095Y-102646084D01*
X103010891Y-102602789D01*
X103010894Y-102602786D01*
X103010896Y-102602786D01*
X103040147Y-102583240D01*
X103069016Y-102563952D01*
X111821295Y-93811670D01*
X111861519Y-93784793D01*
X111885179Y-93774994D01*
X112016289Y-93687389D01*
X112127789Y-93575889D01*
X112215394Y-93444779D01*
X112275737Y-93299097D01*
X112306500Y-93144442D01*
X112306500Y-92986758D01*
X112306500Y-92986755D01*
X112306499Y-92986753D01*
X112276350Y-92835185D01*
X112275737Y-92832103D01*
X112241855Y-92750304D01*
X112215397Y-92686427D01*
X112215390Y-92686414D01*
X112127789Y-92555311D01*
X112127786Y-92555307D01*
X112016292Y-92443813D01*
X112016288Y-92443810D01*
X111885185Y-92356209D01*
X111885172Y-92356202D01*
X111739501Y-92295864D01*
X111739489Y-92295861D01*
X111584845Y-92265100D01*
X111584842Y-92265100D01*
X111427158Y-92265100D01*
X111427155Y-92265100D01*
X111272510Y-92295861D01*
X111272498Y-92295864D01*
X111126827Y-92356202D01*
X111126814Y-92356209D01*
X110995711Y-92443810D01*
X110995707Y-92443813D01*
X110884213Y-92555307D01*
X110884207Y-92555315D01*
X110796607Y-92686418D01*
X110796605Y-92686422D01*
X110786805Y-92710080D01*
X110759927Y-92750304D01*
X102316051Y-101194181D01*
X102254728Y-101227666D01*
X102228370Y-101230500D01*
X98983604Y-101230500D01*
X98954614Y-101227064D01*
X98945151Y-101224788D01*
X98912497Y-101211263D01*
X98775907Y-101184093D01*
X98773510Y-101183517D01*
X98745267Y-101167286D01*
X98716397Y-101152185D01*
X98715136Y-101149971D01*
X98712931Y-101148704D01*
X98697953Y-101119796D01*
X98681823Y-101091469D01*
X98681401Y-101087848D01*
X98680789Y-101086667D01*
X98681000Y-101084407D01*
X98678500Y-101062953D01*
X98678500Y-88921060D01*
X98678501Y-88921047D01*
X98678501Y-88752944D01*
X98655152Y-88665806D01*
X98637577Y-88600216D01*
X98622784Y-88574594D01*
X98558524Y-88463290D01*
X98558518Y-88463282D01*
X92878018Y-82782782D01*
X92844533Y-82721459D01*
X92841699Y-82695101D01*
X92841699Y-81697329D01*
X92841698Y-81697323D01*
X92841697Y-81697316D01*
X92835291Y-81637717D01*
X92825308Y-81610952D01*
X92784997Y-81502871D01*
X92784993Y-81502864D01*
X92698747Y-81387655D01*
X92698744Y-81387652D01*
X92583535Y-81301406D01*
X92583528Y-81301402D01*
X92448682Y-81251108D01*
X92448683Y-81251108D01*
X92389083Y-81244701D01*
X92389081Y-81244700D01*
X92389073Y-81244700D01*
X92389064Y-81244700D01*
X90943329Y-81244700D01*
X90943323Y-81244701D01*
X90883716Y-81251108D01*
X90748871Y-81301402D01*
X90748864Y-81301406D01*
X90633655Y-81387652D01*
X90633652Y-81387655D01*
X90547406Y-81502864D01*
X90547402Y-81502871D01*
X90497108Y-81637717D01*
X90490701Y-81697316D01*
X90490701Y-81697323D01*
X90490700Y-81697335D01*
X84017275Y-81697335D01*
X84016264Y-79901126D01*
X84017036Y-79887255D01*
X84027196Y-79796762D01*
X84033376Y-79769661D01*
X84053610Y-79711815D01*
X84061119Y-79690347D01*
X84073181Y-79665303D01*
X84117897Y-79594165D01*
X84135237Y-79572435D01*
X84182108Y-79525606D01*
X84194678Y-79513046D01*
X84216423Y-79495726D01*
X84287601Y-79451076D01*
X84312656Y-79439036D01*
X84392002Y-79411362D01*
X84419102Y-79405210D01*
X84509451Y-79395148D01*
X84523348Y-79394387D01*
X99733703Y-79416820D01*
X99747515Y-79417614D01*
X99837606Y-79427867D01*
X99864576Y-79434045D01*
X99909408Y-79449752D01*
X99943527Y-79461706D01*
X99968462Y-79473714D01*
X100039317Y-79518203D01*
X100060965Y-79535443D01*
X100120178Y-79594532D01*
X100137465Y-79616147D01*
X100182100Y-79686904D01*
X100194163Y-79711815D01*
X100221990Y-79790708D01*
X100228226Y-79817673D01*
X100238604Y-79907178D01*
X100239428Y-79921023D01*
X100258051Y-85209909D01*
X100258074Y-85210246D01*
X100258185Y-85243260D01*
X100258187Y-85243282D01*
X100289357Y-85455211D01*
X100350320Y-85660581D01*
X100426976Y-85827249D01*
X100439834Y-85855205D01*
X100490679Y-85933903D01*
X100556086Y-86035141D01*
X100696722Y-86196744D01*
X100848409Y-86327686D01*
X100858880Y-86336725D01*
X101039281Y-86452256D01*
X101234263Y-86540990D01*
X101439872Y-86601129D01*
X101439878Y-86601129D01*
X101439882Y-86601131D01*
X101439881Y-86601131D01*
X101572392Y-86620077D01*
X101651938Y-86631452D01*
X101757687Y-86631384D01*
X101772041Y-86631377D01*
X101824942Y-86631351D01*
X101824944Y-86631350D01*
X149150477Y-86607046D01*
X149150479Y-86607047D01*
X149216371Y-86607013D01*
X149216371Y-86607012D01*
X149224707Y-86607007D01*
X149282263Y-86606979D01*
X149282300Y-86606968D01*
X149287556Y-86606964D01*
X149290755Y-86606962D01*
X149290759Y-86606964D01*
X149290776Y-86606962D01*
X149323653Y-86606947D01*
X149536019Y-86576313D01*
X149536021Y-86576312D01*
X149536023Y-86576312D01*
X149564071Y-86568063D01*
X149741866Y-86515777D01*
X149937007Y-86426572D01*
X150117472Y-86310512D01*
X150279590Y-86169958D01*
X150420063Y-86007769D01*
X150536033Y-85827246D01*
X150625141Y-85632060D01*
X150685573Y-85426182D01*
X150716101Y-85213801D01*
X150716100Y-85106520D01*
X150716101Y-85040627D01*
X150716100Y-85040623D01*
X150716100Y-81406248D01*
X153334700Y-81406248D01*
X153334700Y-81610951D01*
X153366722Y-81813134D01*
X153429981Y-82007823D01*
X153522915Y-82190213D01*
X153643228Y-82355813D01*
X153787986Y-82500571D01*
X153928504Y-82602661D01*
X153953590Y-82620887D01*
X154069807Y-82680103D01*
X154135976Y-82713818D01*
X154135978Y-82713818D01*
X154135981Y-82713820D01*
X154236449Y-82746464D01*
X154330665Y-82777077D01*
X154366685Y-82782782D01*
X154532848Y-82809100D01*
X154532849Y-82809100D01*
X154737551Y-82809100D01*
X154737552Y-82809100D01*
X154939734Y-82777077D01*
X155134419Y-82713820D01*
X155316810Y-82620887D01*
X155414380Y-82549999D01*
X155482413Y-82500571D01*
X155482415Y-82500568D01*
X155482419Y-82500566D01*
X155627166Y-82355819D01*
X155627168Y-82355815D01*
X155627171Y-82355813D01*
X155742956Y-82196446D01*
X155747487Y-82190210D01*
X155840420Y-82007819D01*
X155903677Y-81813134D01*
X155935700Y-81610952D01*
X155935700Y-81406248D01*
X155903677Y-81204066D01*
X155840420Y-81009381D01*
X155840418Y-81009378D01*
X155840418Y-81009376D01*
X155806703Y-80943207D01*
X155747487Y-80826990D01*
X155739756Y-80816349D01*
X155627171Y-80661386D01*
X155482413Y-80516628D01*
X155316813Y-80396315D01*
X155316812Y-80396314D01*
X155316810Y-80396313D01*
X155259853Y-80367291D01*
X155134423Y-80303381D01*
X154939734Y-80240122D01*
X154765195Y-80212478D01*
X154737552Y-80208100D01*
X154532848Y-80208100D01*
X154508529Y-80211951D01*
X154330665Y-80240122D01*
X154135976Y-80303381D01*
X153953586Y-80396315D01*
X153787986Y-80516628D01*
X153643228Y-80661386D01*
X153522915Y-80826986D01*
X153429981Y-81009376D01*
X153366722Y-81204065D01*
X153334700Y-81406248D01*
X150716100Y-81406248D01*
X150716100Y-79899361D01*
X150716880Y-79885477D01*
X150723263Y-79828827D01*
X150727059Y-79795131D01*
X150733235Y-79768070D01*
X150760953Y-79688856D01*
X150772996Y-79663850D01*
X150817646Y-79592789D01*
X150834951Y-79571090D01*
X150894290Y-79511751D01*
X150915989Y-79494446D01*
X150987050Y-79449796D01*
X151012056Y-79437753D01*
X151091270Y-79410035D01*
X151118333Y-79403859D01*
X151181019Y-79396796D01*
X151208679Y-79393680D01*
X151222562Y-79392900D01*
X151281492Y-79392900D01*
X168098677Y-79392900D01*
X168098688Y-79392903D01*
G37*
%TD.AperFunction*%
%TD*%
M02*
